<?xml version="1.0" standalone="no"?>
<!DOCTYPE svg PUBLIC "-//W3C//DTD SVG 1.1//EN" "http://www.w3.org/Graphics/SVG/1.1/DTD/svg11.dtd" >
<svg xmlns="http://www.w3.org/2000/svg">
<metadata></metadata>
<defs>
<font id="meta_serif_prolight" horiz-adv-x="1337" >
<font-face units-per-em="2048" ascent="1563" descent="-485" />
<missing-glyph horiz-adv-x="460" />
<glyph horiz-adv-x="0" />
<glyph horiz-adv-x="0" />
<glyph horiz-adv-x="682" />
<glyph unicode="&#xd;" horiz-adv-x="460" />
<glyph unicode=" "  horiz-adv-x="460" />
<glyph unicode="&#x09;" horiz-adv-x="460" />
<glyph unicode="&#xa0;" horiz-adv-x="460" />
<glyph unicode="!" horiz-adv-x="567" d="M156 117q0 53 36.5 90t90.5 37q53 0 91 -37.5t38 -89.5q0 -55 -39 -94t-92 -39q-52 0 -88.5 38.5t-36.5 94.5zM174 1395l211 32l-63 -997h-84z" />
<glyph unicode="&#x22;" horiz-adv-x="856" d="M170 928v512h149v-512h-149zM537 928v512h149v-512h-149z" />
<glyph unicode="#" horiz-adv-x="1116" d="M78 432v127h207l41 322h-189v129h209l60 428h106l-59 -428h286l60 428h106l-59 -428h192v-129h-211l-43 -322h193v-127h-211l-59 -432h-109l59 432h-286l-60 -432h-106l59 432h-186zM391 559h287l43 322h-287z" />
<glyph unicode="$" horiz-adv-x="1085" d="M86 86v246h117q21 -138 85.5 -201.5t217.5 -69.5v578l-84 27q-157 49 -233 134t-76 230q0 160 104.5 266t288.5 123v176h67v-172q233 -5 359 -98v-213h-109q-19 101 -74 156.5t-176 68.5v-522q416 -104 416 -409q0 -181 -108 -291.5t-308 -130.5v-189h-67v182 q-248 0 -420 109zM256 1094q0 -108 56 -161.5t194 -98.5v505q-119 -11 -184.5 -75t-65.5 -170zM573 61q136 16 199.5 88.5t63.5 184.5q0 122 -58 180.5t-205 106.5v-560z" />
<glyph unicode="%" horiz-adv-x="1816" d="M70 905q0 186 87 301t216 115q140 0 225.5 -120.5t85.5 -301.5q0 -185 -87.5 -295t-221.5 -110q-131 0 -218 112t-87 299zM213 924q0 -196 39 -282.5t125 -86.5q80 0 124 83t44 251q0 187 -45 277.5t-123 90.5q-88 0 -126 -81t-38 -252zM354 -252l992 1735h92l-994 -1735 h-90zM1133 393q0 186 87 301t216 115q140 0 225.5 -120.5t85.5 -301.5q0 -185 -87.5 -295t-221.5 -110q-131 0 -218 112t-87 299zM1276 412q0 -196 39 -282.5t125 -86.5q80 0 124 83t44 251q0 187 -45 277.5t-123 90.5q-88 0 -126 -81t-38 -252z" />
<glyph unicode="&#x26;" horiz-adv-x="1411" d="M86 319q0 61 16 110.5t41 85t72 71t93 60.5t120 61l-68 67q-45 45 -62.5 63.5t-47 55.5t-40.5 64t-20.5 68.5t-9.5 90.5q0 125 102 216t275 91q187 0 288 -79.5t101 -227.5q0 -123 -82.5 -212.5t-236.5 -166.5l420 -422q47 109 47 236q0 91 -29.5 124.5t-126.5 37.5v59 h414v-59q-50 -2 -78.5 -10t-45 -30.5t-22 -47t-10.5 -74.5q-17 -159 -92 -293l143 -143q27 -28 70 -43t82 -17v-55h-269l-129 129q-173 -152 -426 -152q-237 0 -363 94.5t-126 247.5zM274 367q0 -126 90 -217t252 -91q205 0 336 119l-479 484q-75 -48 -113.5 -82t-62 -86.5 t-23.5 -126.5zM346 1130q0 -72 45.5 -139t122.5 -141l72 -70q116 91 152 153.5t36 182.5q0 227 -217 227q-99 0 -155 -56t-56 -157z" />
<glyph unicode="'" horiz-adv-x="489" d="M170 928v512h149v-512h-149z" />
<glyph unicode="(" horiz-adv-x="665" d="M123 653q0 159 21 285t71.5 245t143.5 215.5t229 170.5l28 -58q-87 -56 -149 -129t-98 -148t-56.5 -174.5t-27 -190t-6.5 -212.5q0 -99 4.5 -179.5t16 -175.5t35.5 -173t59.5 -153t92 -135.5t129.5 -102.5l-28 -60q-111 49 -194.5 128.5t-134 172t-82 209t-43 227 t-11.5 238.5z" />
<glyph unicode=")" horiz-adv-x="665" d="M49 -262q73 42 129 99.5t92.5 129t60.5 146.5t35.5 170.5t16 180t4.5 193.5q0 99 -4 174.5t-16 161t-35.5 153.5t-60 135.5t-92.5 125t-130 104.5l27 58q135 -74 228 -171t144.5 -216t73 -245.5t21.5 -283.5q0 -128 -11.5 -238.5t-43 -227t-82 -209t-134 -172 t-194.5 -128.5z" />
<glyph unicode="*" horiz-adv-x="927" d="M88 1133l23 71l284 -59l39 293h62l34 -293l285 59l27 -76l-258 -127l141 -260l-61 -49l-203 221l-197 -215l-59 43l139 260z" />
<glyph unicode="+" horiz-adv-x="1157" d="M115 502v96h413v428h97v-428h417v-96h-417v-432h-97v432h-413z" />
<glyph unicode="," horiz-adv-x="585" d="M111 -227q86 33 131 77t45 89q0 24 -16 36t-56 29q-84 36 -84 117q0 56 41 96.5t102 40.5q69 0 114.5 -56.5t45.5 -144.5q0 -118 -78 -214.5t-204 -131.5z" />
<glyph unicode="-" horiz-adv-x="620" d="M115 481v133h391v-133h-391z" />
<glyph unicode="." horiz-adv-x="532" d="M127 115q0 60 39.5 101.5t99.5 41.5t100 -41.5t40 -101.5t-40 -102t-100 -42t-99.5 41.5t-39.5 102.5z" />
<glyph unicode="/" horiz-adv-x="802" d="M70 -305l528 1851h115l-529 -1851h-114z" />
<glyph unicode="0" horiz-adv-x="1114" d="M88 508q0 242 131.5 388t333.5 146q144 0 252.5 -72.5t164.5 -195.5t56 -276q0 -237 -133 -382t-336 -145q-205 0 -337 147t-132 390zM264 528q0 -238 71 -353.5t226 -115.5q137 0 213 114t76 316q0 233 -77 349t-220 116q-153 0 -221 -110.5t-68 -315.5z" />
<glyph unicode="1" horiz-adv-x="817" d="M102 823l326 215h100v-823q0 -42 3.5 -64.5t13.5 -42.5t33 -28.5t57 -14t92 -8.5v-57h-577v57q99 4 142 17t59 43.5t16 99.5v655q-116 -61 -242 -104z" />
<glyph unicode="2" horiz-adv-x="907" d="M57 0v86l195 147q95 72 151.5 119.5t117.5 113t89.5 130.5t28.5 135q0 96 -59.5 149.5t-163.5 53.5q-67 0 -122 -11.5t-85.5 -25.5t-75.5 -39l-45 74q160 115 358 115q179 0 272 -84.5t93 -223.5q0 -50 -11.5 -94.5t-40 -88t-61 -80.5t-90 -83.5t-111.5 -85.5t-139 -98 l-104 -72h586l-33 -137h-750z" />
<glyph unicode="3" horiz-adv-x="952" d="M33 -236q115 -14 190 -14q215 0 340 85t125 259q0 148 -80.5 204t-253.5 56q-53 0 -80 -2v90q66 -4 101 -4q145 0 217 66.5t72 222.5q0 93 -63.5 149t-172.5 56q-173 0 -309 -94l-53 65q187 144 385 144q174 0 275 -84t101 -230q0 -112 -69 -198.5t-193 -122.5 q138 -29 218.5 -114t80.5 -196q0 -86 -33.5 -158.5t-90.5 -123.5t-133.5 -86.5t-162.5 -52.5t-178 -17q-115 0 -213 23z" />
<glyph unicode="4" horiz-adv-x="1093" d="M57 37v80l457 938h178l-510 -930h500q3 319 80 567l82 29v-596h172v-88h-172v-367l-162 -35v402h-625z" />
<glyph unicode="5" horiz-adv-x="933" d="M53 -223q103 -25 217 -25q86 0 156.5 19t126 59t86.5 109t31 161q0 285 -275 285q-125 0 -248 -45l64 674h608l-28 -142h-492l-39 -415q115 28 189 28q185 0 291 -98t106 -270q0 -86 -31.5 -160.5t-84.5 -127.5t-123 -91t-148 -56t-158 -18q-79 0 -126 7.5t-101 25.5z " />
<glyph unicode="6" horiz-adv-x="1058" d="M92 524q0 151 41 281.5t109.5 226.5t166.5 174t204.5 129.5t230.5 87.5l24 -71q-129 -51 -223 -106.5t-173.5 -133.5t-128.5 -184.5t-69 -243.5q68 54 150 87.5t160 33.5q173 0 285 -104t112 -285q0 -191 -121.5 -319t-308.5 -128q-207 0 -333 148t-126 407zM266 510 q0 -453 285 -453q256 0 256 355q0 86 -20.5 145t-58.5 89t-81.5 42t-101.5 12q-139 0 -277 -108q-2 -20 -2 -82z" />
<glyph unicode="7" horiz-adv-x="956" d="M66 872l34 142h793l-27 -123q-166 -224 -298.5 -547.5t-198.5 -654.5l-181 -47q71 300 229 637.5t337 592.5h-688z" />
<glyph unicode="8" horiz-adv-x="1087" d="M86 332q0 117 86 207.5t219 152.5q-239 126 -239 320q0 150 117 247t280 97q176 0 285.5 -87.5t109.5 -224.5q0 -187 -270 -315q52 -22 93.5 -44.5t87.5 -56.5t76 -72t50 -91t20 -113q0 -171 -129.5 -275t-330.5 -104q-212 0 -333.5 102t-121.5 257zM254 344 q0 -137 74.5 -211t216.5 -74q136 0 216.5 68t80.5 186q0 46 -10 82.5t-35.5 68t-52.5 54.5t-78.5 50t-94.5 46t-118 50q-199 -137 -199 -320zM305 1040q0 -97 65 -158t234 -128q176 121 176 282q0 110 -59 172t-174 62q-113 0 -177.5 -64.5t-64.5 -165.5z" />
<glyph unicode="9" horiz-adv-x="1058" d="M78 606q0 190 125 318.5t313 128.5q208 0 329.5 -142t121.5 -403q0 -155 -42 -286.5t-114.5 -228.5t-177 -174t-222.5 -127t-257 -83l-58 65q319 104 484.5 260t201.5 404q-66 -54 -148.5 -87.5t-158.5 -33.5q-173 0 -285 104t-112 285zM252 610q0 -86 20.5 -145 t58.5 -89t81.5 -42t101.5 -12q135 0 274 104q5 46 5 111q0 231 -71 329.5t-206 98.5q-124 0 -194 -86.5t-70 -268.5z" />
<glyph unicode=":" horiz-adv-x="606" d="M164 115q0 60 39.5 101.5t99.5 41.5t99.5 -41.5t39.5 -101.5q0 -61 -39.5 -102.5t-99.5 -41.5t-99.5 41.5t-39.5 102.5zM164 758q0 60 39.5 101.5t99.5 41.5t99.5 -41.5t39.5 -101.5q0 -61 -39.5 -102.5t-99.5 -41.5t-99.5 41.5t-39.5 102.5z" />
<glyph unicode=";" horiz-adv-x="641" d="M145 -227q86 33 131.5 77t45.5 89q0 24 -16 36t-56 29q-84 36 -84 117q0 56 41 96.5t102 40.5q69 0 114.5 -56.5t45.5 -144.5q0 -118 -78 -214.5t-205 -131.5zM168 758q0 60 39.5 101.5t99.5 41.5t99.5 -41.5t39.5 -101.5q0 -61 -39.5 -102.5t-99.5 -41.5t-99.5 41.5 t-39.5 102.5z" />
<glyph unicode="&#x3c;" horiz-adv-x="956" d="M115 516v143l727 459v-119l-652 -403l652 -358v-113z" />
<glyph unicode="=" horiz-adv-x="1157" d="M115 354v97h927v-97h-927zM115 657v97h927v-97h-927z" />
<glyph unicode="&#x3e;" horiz-adv-x="956" d="M115 125v113l651 358l-651 403v119l727 -459v-143z" />
<glyph unicode="?" horiz-adv-x="892" d="M119 1153v176q47 35 129.5 63.5t191.5 28.5q74 0 133.5 -16.5t106.5 -52t72.5 -96t25.5 -142.5q0 -54 -17.5 -103.5t-37 -79.5t-54 -62t-48 -41.5t-39.5 -26.5q-94 -60 -129 -110.5t-35 -141.5q0 -48 14 -109h-61q-45 72 -45 158q0 135 112 242q7 7 37 33.5t42 39t35 41 t33.5 51.5t19.5 58.5t9 73.5q0 94 -54 148t-140 54q-88 0 -137 -48.5t-58 -137.5h-106zM276 117q0 55 39 94t95 39t97.5 -39t41.5 -94q0 -59 -41 -101.5t-98 -42.5q-55 0 -94.5 42.5t-39.5 101.5z" />
<glyph unicode="@" horiz-adv-x="1839" d="M96 391q0 191 64.5 354.5t178.5 278t275.5 179.5t348.5 65q354 0 567 -193.5t213 -515.5q0 -116 -27.5 -211t-74.5 -159t-111 -108t-134.5 -63.5t-146.5 -19.5q-120 0 -175.5 48.5t-55.5 160.5q-48 -95 -125.5 -152t-183.5 -57q-105 0 -164.5 72.5t-59.5 203.5 q0 144 47 266.5t125 202.5t178 125t207 45q89 0 152.5 -23.5t120.5 -72.5q-26 -85 -45 -170l-94 -383q-15 -65 -15 -102q0 -54 27 -75t86 -21q57 0 113.5 29.5t105 85.5t79 149t30.5 207q0 134 -32 242.5t-89 184.5t-138 127t-177 75t-208 24q-158 0 -291 -56t-228 -158 t-148 -253t-53 -334q0 -197 75 -350t219.5 -240.5t339.5 -87.5q184 0 324 45l25 -49q-165 -67 -373 -67q-165 0 -303 51t-238 146t-155.5 237t-55.5 317zM647 289q0 -176 123 -176q34 0 67.5 15.5t58.5 37.5t55.5 62t49.5 70.5t50 82.5l88 381q-14 30 -46.5 49.5t-76.5 19.5 q-115 0 -200.5 -76.5t-127 -198t-41.5 -267.5z" />
<glyph unicode="A" d="M41 0v59q73 7 109 45t67 136l375 1159h162l370 -1155q15 -49 26.5 -76t30.5 -53t46.5 -39t68.5 -17v-59h-477v59q73 5 106 26.5t33 66.5q0 28 -10 63l-69 225h-492l-70 -225q-12 -43 -12 -74q0 -45 34 -62t116 -20v-59h-414zM414 526h440l-94 312q-114 373 -119 395h-8 q-16 -63 -35.5 -126.5t-45.5 -141t-42 -127.5z" />
<glyph unicode="B" horiz-adv-x="1230" d="M80 0v59q94 7 129 42t35 120v957q0 85 -35 119t-129 42v60h504q261 0 380 -86t119 -256q0 -116 -60 -193t-198 -112v-9q162 -25 246 -123.5t84 -238.5q0 -97 -38.5 -172t-106 -119.5t-152.5 -67t-184 -22.5h-594zM414 88h272q166 0 227.5 70t61.5 235q0 164 -68 228.5 t-256 64.5h-237v-598zM414 772h223q152 0 213 63t61 199q0 152 -63.5 214.5t-218.5 62.5h-215v-539z" />
<glyph unicode="C" horiz-adv-x="1169" d="M94 688q0 345 162 540t432 195q263 0 393 -90v-223h-118q-30 123 -91 176t-190 53q-94 0 -165.5 -34.5t-124.5 -109t-80 -201t-27 -302.5q0 -146 19 -255.5t53.5 -181t88 -115t116 -61.5t143.5 -18q126 0 190.5 51t87.5 171h109v-209l6 4q-143 -101 -393 -101 q-307 0 -459 187t-152 524z" />
<glyph unicode="D" horiz-adv-x="1355" d="M80 0v59q95 9 129.5 42.5t34.5 119.5v957q0 85 -35 119t-129 42v60h506q156 0 279 -41.5t212.5 -126t137 -219.5t47.5 -314q0 -124 -22 -227.5t-72.5 -192t-127.5 -149.5t-192 -95t-262 -34h-506zM420 92h186q123 0 206 26t144 91t89 179t28 286q0 176 -29 300t-89 199 t-144 108.5t-201 33.5h-190v-1223z" />
<glyph unicode="E" horiz-adv-x="1140" d="M80 0v59q94 7 129 42t35 120v957q0 85 -35 119t-129 42v60h938l20 -295h-63q-37 124 -76 165.5t-131 41.5h-354v-537h202q103 0 143 30t46 116h59v-377h-59q-6 83 -46 114t-141 31h-204v-600h356q125 0 169 46.5t56 191.5h68v-326h-983z" />
<glyph unicode="F" horiz-adv-x="1118" d="M80 0v59q94 7 129 42t35 120v957q0 85 -35 119t-129 42v60h942l25 -305h-64q-25 73 -42 111.5t-43 64.5t-56.5 33.5t-83.5 7.5h-344v-570h202q103 0 143 30t46 116h59v-383h-59q-6 85 -46.5 118t-140.5 33h-204v-428q0 -92 37 -128t143 -40v-59h-514z" />
<glyph unicode="G" horiz-adv-x="1306" d="M94 692q0 338 164.5 534.5t429.5 196.5q280 0 422 -98v-221h-119q-17 84 -46.5 132t-95.5 75.5t-177 27.5q-106 0 -183.5 -48.5t-122.5 -139t-66 -206.5t-21 -263t22.5 -258.5t72.5 -195t134 -126.5t201 -43q137 0 239 64v340q0 64 -12 95.5t-51.5 48t-120.5 18.5v59h487 v-59q-77 -4 -105 -39.5t-28 -122.5v-385q-83 -49 -199.5 -75t-230.5 -26q-280 0 -437 188t-157 527z" />
<glyph unicode="H" horiz-adv-x="1433" d="M80 0v59q94 7 129 42t35 120v957q0 85 -35 119t-129 42v60h498v-60q-94 -8 -129 -42t-35 -119v-392h606v392q0 85 -35 119t-129 42v60h498v-60q-94 -8 -129 -42t-35 -119v-957q0 -85 35 -120t129 -42v-59h-498v59q94 7 129 42t35 120v475h-606v-475q0 -85 35 -120 t129 -42v-59h-498z" />
<glyph unicode="I" horiz-adv-x="657" d="M80 0v59q94 7 129 42t35 120v957q0 85 -35 119t-129 42v60h498v-60q-94 -8 -129 -42t-35 -119v-957q0 -85 35 -120t129 -42v-59h-498z" />
<glyph unicode="J" horiz-adv-x="686" d="M23 -233q80 44 127 84t72 93t32.5 108t7.5 147v979q0 89 -35.5 123t-138.5 38v60h518v-60q-103 -4 -138.5 -38t-35.5 -123v-965q0 -158 -34.5 -252.5t-112 -153.5t-222.5 -104z" />
<glyph unicode="K" horiz-adv-x="1265" d="M80 0v59q94 7 129 42t35 120v957q0 85 -35 119t-129 42v60h498v-60q-94 -8 -129 -42t-35 -119v-957q0 -85 35 -120t129 -42v-59h-498zM473 735l373 434q51 61 51 103q0 61 -111 67v60h410v-62q-68 -11 -119 -52t-155 -157l-295 -340l430 -626q38 -57 72.5 -77t111.5 -26 v-59h-285z" />
<glyph unicode="L" horiz-adv-x="1101" d="M80 0v59q94 7 129 42t35 120v957q0 85 -35 119t-129 42v60h508v-60q-57 -2 -91 -11t-52.5 -30.5t-24.5 -49t-6 -74.5v-1086h307q117 0 167.5 52t82.5 194h65l-30 -334h-926z" />
<glyph unicode="M" horiz-adv-x="1640" d="M37 0v59q83 6 111 39.5t36 128.5l70 951q1 9 1 18q0 62 -32 96q-36 40 -133 47v60h373l295 -924q52 -160 59 -242h12q6 57 60 240l276 926h375v-60q-57 -3 -91.5 -13t-51 -31.5t-20.5 -47.5q-2 -15 -2 -35q0 -15 1 -34l82 -951q8 -94 35.5 -129t110.5 -39v-59h-461v59 q93 3 125 41q27 32 27 90q0 11 -1 23l-59 750q-12 126 -12 200v47h-13q-33 -131 -65 -227l-305 -983h-103l-299 938q-51 163 -78 274h-12l-18 -276q-6 -119 -20.5 -360.5t-20.5 -360.5q-4 -35 -1.5 -63.5t14 -48.5t45 -31.5t91.5 -12.5v-59h-401z" />
<glyph unicode="N" horiz-adv-x="1390" d="M80 0v59q94 7 129 42t35 120v957q0 85 -35 119t-129 42v60h311l520 -854q121 -197 152 -299h12q-14 85 -14 430v502q0 85 -35 119t-129 42v60h424v-60q-86 -7 -116.5 -41.5t-30.5 -119.5v-1178h-125l-510 834q-144 231 -183 350h-12q12 -82 12 -383v-580q0 -85 35 -120 t129 -42v-59h-440z" />
<glyph unicode="O" horiz-adv-x="1363" d="M94 705q0 341 158 529.5t426 188.5q124 0 224 -39t168 -106.5t113.5 -161.5t66 -200t20.5 -226q0 -324 -155.5 -518.5t-426.5 -194.5q-145 0 -259 54.5t-186.5 152.5t-110.5 230t-38 291zM279 727q0 -156 21.5 -275t68.5 -209.5t127 -138t192 -47.5q393 0 393 615 q0 332 -94.5 499.5t-308.5 167.5q-206 0 -302.5 -152.5t-96.5 -459.5z" />
<glyph unicode="P" horiz-adv-x="1169" d="M80 0v59q94 7 129 42t35 120v957q0 85 -35 119t-129 42v60h504q516 0 516 -400q0 -196 -119.5 -303.5t-343.5 -107.5h-223v-361q0 -92 37 -128t143 -40v-59h-514zM414 674h211q158 0 225.5 70.5t67.5 232.5q0 95 -14.5 155.5t-52 102.5t-100.5 59t-163 17h-174v-637z" />
<glyph unicode="Q" horiz-adv-x="1376" d="M94 705q0 341 158 529.5t426 188.5q124 0 224 -39t168 -106.5t113.5 -161.5t66 -200t20.5 -226q0 -271 -112 -450.5t-314 -225.5q68 -15 139 -49.5t133 -58t135 -23.5q61 0 101 4l-49 -125q-36 -18 -107 -18q-49 0 -100.5 23.5t-99 57t-98 68t-117.5 60.5t-138 29 q-255 12 -402 208t-147 515zM279 727q0 -670 409 -670q393 0 393 615q0 332 -94.5 499.5t-308.5 167.5q-206 0 -302.5 -152.5t-96.5 -459.5z" />
<glyph unicode="R" horiz-adv-x="1243" d="M80 0v59q94 7 129 42t35 120v957q0 85 -35 119t-129 42v60h495q237 0 367.5 -88t130.5 -287q0 -167 -120.5 -261t-311.5 -97v-9q128 -31 211 -139q42 -52 211 -338q34 -62 68.5 -89.5t107.5 -31.5v-59h-283q-187 375 -260 487q-60 91 -121.5 134t-160.5 47v-451 q0 -84 33.5 -119t125.5 -39v-59h-493zM414 729h164q151 0 232 67t81 226q0 165 -69.5 227t-233.5 62h-174v-582z" />
<glyph unicode="S" horiz-adv-x="1085" d="M86 86v246h117q21 -144 89 -207.5t230 -63.5q163 0 238.5 74t75.5 199q0 67 -14.5 112t-50 77.5t-82.5 54t-126 45.5l-141 43q-153 46 -231 134t-78 230q0 178 118 285.5t326 107.5q240 0 375 -98v-213h-109q-14 74 -41.5 121t-90 76.5t-161.5 29.5q-128 0 -201 -65 t-73 -180q0 -112 56.5 -165t199.5 -95l143 -43q334 -101 334 -385q0 -205 -127 -317t-368 -112q-236 0 -408 109z" />
<glyph unicode="T" horiz-adv-x="1120" d="M49 1090l17 309h989l16 -309h-72q-10 50 -16.5 78t-17 57t-21.5 42t-29.5 25t-42 15.5t-57.5 3.5h-170v-1090q0 -94 39.5 -125.5t144.5 -36.5v-59h-538v59q105 5 144.5 36.5t39.5 125.5v1090h-170q-34 0 -57.5 -3.5t-42 -15.5t-29.5 -25t-21.5 -42t-17 -57t-16.5 -78h-72 z" />
<glyph unicode="U" horiz-adv-x="1392" d="M66 1339v60h497v-60q-58 -2 -91.5 -10t-52.5 -28.5t-24.5 -47.5t-5.5 -75v-695q0 -107 16.5 -178.5t57 -121.5t108 -72.5t170.5 -22.5q176 0 251 85t75 280v725q0 85 -37 119.5t-137 41.5v60h434v-60q-86 -7 -116.5 -41.5t-30.5 -119.5v-725q0 -245 -118 -360.5 t-349 -115.5q-247 0 -370.5 117t-123.5 344v740q0 90 -30.5 123.5t-122.5 37.5z" />
<glyph unicode="V" horiz-adv-x="1329" d="M41 1339v60h477v-60q-74 -5 -106.5 -25.5t-32.5 -66.5q0 -21 10 -63l182 -621q9 -31 37 -125t48 -164.5t30 -115.5h12q9 36 29.5 103t49 158.5t44.5 143.5l187 621q12 43 12 76q0 42 -32 59t-109 20v60h409v-62q-76 -12 -110.5 -45.5t-65.5 -132.5l-369 -1159h-165 l-365 1155q-30 94 -64.5 134t-107.5 50z" />
<glyph unicode="W" horiz-adv-x="1828" d="M41 1339v60h469v-60q-76 -6 -109.5 -27.5t-33.5 -68.5q0 -29 6 -59l135 -611q62 -289 70 -364h12l88 364l199 826h129l206 -828l93 -362h12l78 362l127 568q10 51 10 86q0 59 -34 83.5t-116 30.5v60h404v-62q-70 -12 -105.5 -58t-58.5 -142l-262 -1137h-164l-223 893 q-40 172 -53 252h-13q-4 -19 -13.5 -62.5t-23.5 -102.5t-20 -87l-211 -893h-172l-262 1155q-21 93 -55.5 133.5t-108.5 50.5z" />
<glyph unicode="X" horiz-adv-x="1286" d="M57 0v59q57 9 105.5 54t103.5 141l275 485l-265 447q-51 86 -89 115.5t-101 37.5v60h465v-60q-63 -3 -89 -19.5t-26 -47.5q0 -33 37 -96l186 -332h9l184 330q33 61 33 94q0 61 -109 71v60h373v-60q-60 -9 -101 -44.5t-92 -123.5l-237 -411l307 -531q52 -89 97 -125 t106 -45v-59h-475v59q112 6 112 70q0 34 -35 96l-231 416h-8l-230 -420q-30 -53 -30 -90q0 -62 121 -72v-59h-396z" />
<glyph unicode="Y" horiz-adv-x="1216" d="M35 1339v60h463v-60q-109 -6 -109 -67q0 -31 31 -98l231 -484h8l234 488q27 58 27 90q0 61 -121 71v60h383v-60q-62 -9 -103 -47.5t-94 -146.5l-283 -576v-348q0 -89 36 -123.5t139 -38.5v-59h-519v59q103 4 138.5 38.5t35.5 123.5v336l-307 610q-48 93 -88 128t-102 44z " />
<glyph unicode="Z" horiz-adv-x="1054" d="M57 0v109l770 1202h-397q-108 0 -164 -54.5t-88 -177.5h-65l28 320h860v-109l-770 -1202h420q122 0 181 55.5t90 196.5h65l-31 -340h-899z" />
<glyph unicode="[" horiz-adv-x="593" d="M180 -317v1888h355v-74h-218v-1741h218v-73h-355z" />
<glyph unicode="\" horiz-adv-x="802" d="M102 1546h115l528 -1851h-114z" />
<glyph unicode="]" horiz-adv-x="593" d="M59 -244h217v1741h-217v74h355v-1888h-355v73z" />
<glyph unicode="^" horiz-adv-x="1212" d="M135 635l410 803h123l409 -803h-131l-346 684l-336 -684h-129z" />
<glyph unicode="_" horiz-adv-x="1015" d="M8 -166h1000v-90h-1000v90z" />
<glyph unicode="`" horiz-adv-x="770" d="M160 1352l98 170l352 -299l-35 -60z" />
<glyph unicode="a" horiz-adv-x="1036" d="M78 256q0 89 37 152.5t108 100.5t164 54t215 17q57 0 84 -2v96q0 140 -42.5 200t-156.5 60q-124 0 -179.5 -50t-69.5 -134h-105v174q73 40 176 70t195 30q344 0 344 -338q0 -20 -4 -169t-4 -255q0 -114 28.5 -150.5t122.5 -45.5v-60q-56 -18 -129 -18q-94 0 -130 41.5 t-48 128.5q-37 -73 -113 -130t-176 -57q-144 0 -230.5 75.5t-86.5 209.5zM252 270q0 -107 45 -150.5t143 -43.5q72 0 133.5 47.5t102.5 118.5l6 250q-46 4 -84 4q-182 0 -264 -53t-82 -173z" />
<glyph unicode="b" horiz-adv-x="1128" d="M35 1370v55l268 58h27q22 -71 22 -197v-436q156 168 328 168t271.5 -128.5t99.5 -375.5q0 -252 -103 -393t-289 -141q-184 0 -325 153q-21 -64 -72 -133h-94q22 65 22 233v957q0 75 -15 112.5t-45.5 51t-94.5 16.5zM352 225q45 -45 74.5 -69t81.5 -45t113 -21 q88 0 142 38t82.5 133t28.5 257q0 209 -58 294t-187 85q-82 0 -158 -44.5t-119 -98.5v-529z" />
<glyph unicode="c" horiz-adv-x="935" d="M78 481q0 255 127.5 396t329.5 141q175 0 294 -74v-182h-114q-15 93 -56.5 133.5t-128.5 40.5q-131 0 -202.5 -96.5t-71.5 -317.5q0 -243 71.5 -343.5t225.5 -100.5q89 0 144.5 23.5t125.5 82.5l43 -45q-145 -162 -342 -162q-94 0 -174 31.5t-141 92.5t-96 158.5 t-35 221.5z" />
<glyph unicode="d" horiz-adv-x="1148" d="M78 487q0 239 109.5 385t297.5 146q163 0 291 -137v309q0 75 -15 112.5t-45.5 51t-94.5 16.5v55l288 58h29v-1207q0 -75 14.5 -111.5t47 -51t100.5 -17.5v-51q-54 -16 -252 -72h-19q-40 83 -53 174q-59 -74 -144 -120.5t-163 -46.5q-79 0 -147 28t-124 86t-88 159 t-32 234zM254 512q0 -236 58.5 -333t189.5 -97q125 0 274 170v530q-49 60 -120 95.5t-140 35.5q-65 0 -110.5 -17.5t-81 -61t-53 -123.5t-17.5 -199z" />
<glyph unicode="e" horiz-adv-x="976" d="M78 504q0 242 119.5 382t308.5 140q188 0 292.5 -126.5t104.5 -356.5v-49h-653q2 -152 40 -242t108.5 -127t185.5 -37q64 0 138 22.5t130 57.5l33 -57q-174 -134 -350 -134q-214 0 -335.5 139.5t-121.5 387.5zM252 582h481q0 193 -54 275.5t-177 82.5q-115 0 -176.5 -81 t-73.5 -277z" />
<glyph unicode="f" horiz-adv-x="634" d="M68 0v57q84 8 113.5 37t29.5 113v686h-129v55l129 45v199q0 136 86 213.5t227 77.5q114 0 207 -33l-16 -162h-103q-15 107 -106 107q-67 0 -101 -47.5t-34 -153.5v-201h245l-26 -100h-217v-686q0 -82 36 -112.5t146 -37.5v-57h-487z" />
<glyph unicode="g" horiz-adv-x="1062" d="M94 -158q0 81 99 138l65 4q-20 -46 -20 -101q0 -94 60.5 -139t209.5 -45q299 0 299 197q0 41 -8.5 67t-27.5 45t-59 29t-94.5 15t-142.5 7q-85 3 -168 11q-66 7 -100.5 48t-34.5 107q0 112 193 176q-115 27 -180.5 107.5t-65.5 183.5q0 147 102 238.5t271 91.5 q70 0 155 -23q106 -32 158 -32q79 0 162 57l61 -119q-71 -33 -131 -33q-61 0 -149 33q116 -87 116 -217q0 -42 -11 -81.5t-37 -78.5t-65.5 -69t-102 -50.5t-140.5 -25.5h-49q-62 -18 -105 -49.5t-43 -65.5q0 -57 86 -57h189q183 0 273.5 -62t90.5 -215q0 -145 -124 -233 t-314 -88q-207 0 -312.5 63.5t-105.5 165.5zM289 700q0 -237 200 -237q100 0 149.5 56t49.5 175q0 126 -49 185t-152 59q-198 0 -198 -238z" />
<glyph unicode="h" horiz-adv-x="1185" d="M55 1372v55l269 56h26q23 -81 23 -197v-448q88 88 169 134t185 46q120 0 192 -70t72 -198v-543q0 -88 25 -116t108 -34v-57h-438v57q87 7 115 34.5t28 101.5v520q0 92 -40 133t-121 41q-87 0 -153.5 -37t-141.5 -111v-546q0 -74 28 -101.5t115 -34.5v-57h-448v57 q84 8 113.5 37t29.5 113v985q0 57 -7 90.5t-27 53t-47 27t-75 9.5z" />
<glyph unicode="i" horiz-adv-x="577" d="M61 893v51l285 76h27v-813q0 -85 27.5 -113.5t115.5 -36.5v-57h-448v57q84 8 113.5 37t29.5 113v506q0 75 -13.5 111.5t-43.5 51t-93 17.5zM158 1313q0 53 34.5 88t86.5 35t86 -35t34 -88t-34 -88t-86 -35t-86.5 35t-34.5 88z" />
<glyph unicode="j" horiz-adv-x="534" d="M49 -348q92 44 127 124.5t35 241.5v693q0 75 -13.5 112t-44 52t-92.5 18v51l285 76h27v-1004q0 -55 -4.5 -100t-15.5 -81.5t-22.5 -64t-33 -52t-38.5 -41t-47.5 -35t-52.5 -29.5t-59 -29zM158 1313q0 53 34.5 88t86.5 35t86 -35t34 -88t-34 -88t-86 -35t-86.5 35 t-34.5 88z" />
<glyph unicode="k" horiz-adv-x="1083" d="M55 1370v55l271 58h26q21 -82 21 -197v-1093q0 -74 28 -101.5t115 -34.5v-57h-448v57q84 8 113.5 37t29.5 113v983q0 57 -7 90.5t-27 53t-47 27t-75 9.5zM416 530l276 283q41 41 41 69q0 42 -92 54v57h360v-57q-46 -7 -84.5 -35.5t-103.5 -93.5l-235 -232l311 -393 q47 -60 87.5 -89t90.5 -36v-57h-227z" />
<glyph unicode="l" horiz-adv-x="593" d="M55 1370v55l277 58h26q23 -82 23 -197v-1073q0 -87 30 -117.5t121 -38.5v-57h-464v57q89 8 120 37t31 113v983q0 76 -15.5 113t-48 50.5t-100.5 16.5z" />
<glyph unicode="m" horiz-adv-x="1693" d="M61 891v51l244 78h27q30 -72 33 -178q91 86 167 131t168 45q79 0 139 -38t91 -114q166 152 323 152q109 0 177.5 -70.5t68.5 -197.5v-543q0 -88 25 -116t108 -34v-57h-428v57q81 7 107 34.5t26 101.5v520q0 94 -31.5 134t-105.5 40q-71 0 -130.5 -31t-123.5 -90v-573 q0 -77 24 -103.5t99 -32.5v-57h-418v57q81 7 107 34.5t26 101.5v520q0 94 -31.5 134t-105.5 40q-54 0 -104.5 -20.5t-84 -45.5t-85.5 -73v-555q0 -74 26 -101.5t107 -34.5v-57h-438v57q84 8 113.5 37t29.5 113v504q0 75 -13.5 111.5t-43.5 51t-93 17.5z" />
<glyph unicode="n" horiz-adv-x="1185" d="M61 891v51l246 78h27q10 -26 20 -82.5t11 -108.5q87 91 172.5 140t189.5 49q120 0 192 -70t72 -198v-543q0 -88 25 -116t108 -34v-57h-438v57q87 7 115 34.5t28 101.5v520q0 92 -40 133t-121 41q-88 0 -155 -37.5t-140 -112.5v-544q0 -74 28 -101.5t115 -34.5v-57h-448 v57q84 8 113.5 37t29.5 113v504q0 75 -13.5 111.5t-43.5 51t-93 17.5z" />
<glyph unicode="o" horiz-adv-x="1073" d="M78 500q0 245 122 384.5t332 139.5q148 0 254.5 -71t157.5 -190t51 -274q0 -238 -127 -376t-331 -138q-214 0 -336.5 138t-122.5 387zM254 520q0 -239 66.5 -348t220.5 -109q137 0 207.5 107.5t70.5 310.5q0 234 -72.5 344.5t-214.5 110.5q-79 0 -134 -28t-86 -84 t-44.5 -129.5t-13.5 -174.5z" />
<glyph unicode="p" horiz-adv-x="1150" d="M61 891v51l244 78h27q25 -73 30 -170q61 72 152.5 120t173.5 48q173 0 279 -126t106 -376q0 -244 -104.5 -385t-300.5 -141q-171 0 -295 129v-316q0 -81 32.5 -111t126.5 -36v-57h-464v57q84 8 113.5 36.5t29.5 112.5v906q0 75 -13.5 111.5t-43.5 51t-93 17.5zM373 217 q49 -60 122.5 -99.5t135.5 -39.5q68 0 115 18.5t82 63t52 123t17 194.5q0 235 -56.5 328.5t-189.5 93.5q-145 0 -278 -149v-533z" />
<glyph unicode="q" horiz-adv-x="1105" d="M78 487q0 239 109.5 385t297.5 146q93 0 173 -39.5t137 -110.5q27 80 73 133h93q-21 -100 -21 -280v-916q0 -84 29.5 -112.5t113.5 -36.5v-57h-465v57q94 6 127 36t33 111v353q-69 -81 -151.5 -128.5t-157.5 -47.5q-79 0 -147 28t-124 86t-88 159t-32 234zM254 512 q0 -236 58.5 -333t189.5 -97q120 0 274 168v530q-50 60 -120.5 96.5t-139.5 36.5q-65 0 -110.5 -17.5t-81 -61t-53 -123.5t-17.5 -199z" />
<glyph unicode="r" horiz-adv-x="741" d="M61 891v51l244 78h27q34 -91 37 -229q137 235 284 235q24 0 52 -8l-43 -189q-21 7 -56 7q-126 0 -179.5 -63.5t-53.5 -211.5v-354q0 -84 35 -113t139 -37v-57h-479v57q84 8 113.5 37t29.5 113v504q0 75 -13.5 111.5t-43.5 51t-93 17.5z" />
<glyph unicode="s" horiz-adv-x="866" d="M80 57v191h113q12 -103 65.5 -147t165.5 -44q98 0 160.5 45.5t62.5 139.5q0 81 -44 121t-142 63l-121 29q-250 60 -250 278q0 143 92.5 216t253.5 73q158 0 295 -70v-174h-108q-15 83 -64 122.5t-139 39.5q-94 0 -147.5 -44t-53.5 -120q0 -68 38.5 -106.5t135.5 -61.5 l121 -28q270 -66 270 -273q0 -158 -97 -245t-281 -87q-196 0 -326 82z" />
<glyph unicode="t" horiz-adv-x="651" d="M63 893v55l138 45q37 201 86 283l80 18q-17 -126 -17 -301h242l-27 -100h-217v-625q0 -122 29 -162t115 -40q48 0 106 18l14 -66q-96 -47 -190 -47q-120 0 -178 62.5t-58 208.5v651h-123z" />
<glyph unicode="u" horiz-adv-x="1179" d="M51 891v51l268 78h37v-744q0 -94 41 -133t125 -39q88 0 147.5 36t137.5 114v457q0 77 -13 114t-41.5 50.5t-88.5 15.5v51l268 78h37v-746q0 -75 13 -111.5t43 -51t93 -17.5v-51l-231 -70h-25q-32 86 -45 193q-88 -94 -168 -142.5t-184 -48.5q-123 0 -196.5 67.5 t-73.5 199.5v469q0 77 -13.5 114t-42 50.5t-88.5 15.5z" />
<glyph unicode="v" horiz-adv-x="1034" d="M10 936v57h430v-57q-71 -4 -101 -19.5t-30 -46.5q0 -20 15 -63l165 -457q49 -143 60 -182h8q22 73 61 180l162 459q15 47 15 61q0 33 -29.5 49t-101.5 19v57h360v-57q-61 -9 -90.5 -39t-59.5 -109l-292 -798h-121l-301 798q-31 80 -60.5 109.5t-89.5 38.5z" />
<glyph unicode="w" horiz-adv-x="1529" d="M16 936v57h414v-57q-57 -3 -87 -18t-30 -52q0 -19 11 -59l122 -408q10 -35 32 -103t32 -103h10q9 34 29 102t29 102l161 596h109l192 -594q51 -152 66 -206h8q3 12 16.5 57t24.5 84.5t16 62.5l105 410q8 36 8 55q0 36 -24.5 53.5t-90.5 20.5v57h344v-57 q-64 -9 -91.5 -38.5t-51.5 -109.5l-231 -798h-125l-162 524q-14 43 -39.5 128t-38.5 128h-8q-9 -33 -27.5 -98.5t-27.5 -98.5l-166 -583h-129l-256 798q-25 78 -54.5 108.5t-89.5 39.5z" />
<glyph unicode="x" horiz-adv-x="1064" d="M39 0v57q61 7 92 31.5t80 99.5l223 332l-194 285q-53 76 -87 100t-102 31v57h432v-57q-52 -3 -72 -13t-20 -32t31 -72l141 -213h8l148 232q18 30 18 49q0 20 -19 32.5t-75 16.5v57h336v-57q-64 -7 -96 -32t-80 -99l-176 -275l227 -342q49 -74 81 -99t95 -32v-57h-430v57 q57 3 79.5 13.5t22.5 33.5q0 20 -30 70l-176 266h-9l-178 -266q-22 -34 -22 -59q0 -23 27 -38t73 -20v-57h-348z" />
<glyph unicode="y" horiz-adv-x="1034" d="M10 936v57h430v-57q-72 -4 -101.5 -20.5t-29.5 -49.5q0 -12 15 -59l147 -414q49 -134 76 -289h8q17 61 78 246l147 457q15 43 15 65q0 29 -29.5 44.5t-101.5 19.5v57h360v-57q-60 -7 -91 -38.5t-59 -109.5l-286 -825q-62 -179 -145.5 -273t-217.5 -124l-45 131 q51 14 86 27t74 36.5t66.5 54t54 79t45.5 112.5l-78 -12q-55 210 -104 348l-164 446q-28 77 -59 108t-91 40z" />
<glyph unicode="z" horiz-adv-x="919" d="M86 0v92l582 813h-269q-110 0 -148.5 -36t-55.5 -154h-64v278h709v-100l-576 -805h246q52 0 87 3t63.5 14.5t45 23t33.5 40.5t27.5 55t28.5 77h67l-45 -301h-731z" />
<glyph unicode="{" horiz-adv-x="710" d="M59 598v57q109 3 163 48t54 145v485q0 122 62 180t162 58h151v-70h-104q-141 0 -141 -158v-471q0 -62 -15.5 -109.5t-41 -74t-50.5 -40t-51 -17.5v-8q26 -4 51 -18t50.5 -40t41 -74t15.5 -110v-471q0 -158 141 -158h104v-69h-151q-115 0 -169.5 55t-54.5 182v486 q0 101 -53 145.5t-164 46.5z" />
<glyph unicode="|" horiz-adv-x="466" d="M180 -305v1851h107v-1851h-107z" />
<glyph unicode="}" horiz-adv-x="710" d="M59 -250h105q141 0 141 158v473q0 62 15.5 110t41 74t50.5 40t51 18v8q-26 4 -51 17.5t-50.5 40t-41 74t-15.5 109.5v471q0 158 -141 158h-105v70h152q115 0 169 -55.5t54 -182.5v-485q0 -101 53 -146t164 -47v-57q-110 -3 -163.5 -47.5t-53.5 -144.5v-486 q0 -122 -61.5 -179.5t-161.5 -57.5h-152v67z" />
<glyph unicode="~" horiz-adv-x="1118" d="M106 483q27 132 84.5 195t165.5 63q65 0 131.5 -24.5t128.5 -49t115 -24.5q151 0 219 123l62 -33q-35 -123 -99 -185.5t-170 -62.5q-64 0 -136 25.5t-136 50.5t-109 25q-74 0 -120 -32t-84 -99z" />
<glyph unicode="&#xa1;" horiz-adv-x="567" d="M156 932q0 53 36.5 90t90.5 37q53 0 91 -37.5t38 -89.5q0 -55 -39 -94t-92 -39q-52 0 -88.5 38.5t-36.5 94.5zM182 -385l64 997h84l63 -964z" />
<glyph unicode="&#xa2;" horiz-adv-x="935" d="M78 481q0 236 112 375t295 160v194h68v-192q175 -7 276 -74v-182h-114q-14 84 -50.5 125.5t-111.5 48.5v-858q89 1 144.5 25t125.5 81l43 -43q-131 -147 -313 -164v-182h-68v185q-181 16 -294 144.5t-113 356.5zM256 522q0 -207 55.5 -310t173.5 -130v850 q-229 -44 -229 -410z" />
<glyph unicode="&#xa3;" horiz-adv-x="1169" d="M106 0v59q94 7 129 42t35 120v395h-164v78h164v185q0 128 34.5 223t97 151.5t144 83.5t181.5 27q182 0 295 -88v-186h-127q-15 103 -58 147.5t-137 44.5q-126 0 -193 -78t-67 -270v-240h391v-78h-391v-528h328q117 0 167.5 52t82.5 194h65l-30 -334h-947z" />
<glyph unicode="&#xa4;" horiz-adv-x="946" d="M106 565q0 175 113 277l-94 147l98 68l96 -154q82 29 154 29q59 0 145 -27l99 152l96 -68l-90 -141q117 -107 117 -283q0 -182 -121 -282l94 -146l-96 -67l-103 155q-80 -22 -141 -22q-73 0 -149 24l-103 -157l-96 67l96 150q-115 101 -115 278zM272 582q0 -155 45 -226 t156 -71q112 0 157.5 70.5t45.5 226.5q0 134 -45 202t-158 68q-111 0 -156 -68.5t-45 -201.5z" />
<glyph unicode="&#xa5;" horiz-adv-x="1216" d="M35 1339v60h463v-60q-109 -6 -109 -67q0 -31 31 -98l233 -496h9l231 500q27 58 27 90q0 61 -121 71v60h383v-60q-62 -9 -103 -47.5t-94 -146.5l-186 -379h286v-78h-325l-58 -119v-43h383v-77h-383v-236q0 -89 36 -123.5t139 -38.5v-51h-519v51q103 4 138.5 38.5 t35.5 123.5v236h-372v77h372v31l-67 131h-305v78h266l-201 401q-48 93 -88 128t-102 44z" />
<glyph unicode="&#xa6;" horiz-adv-x="497" d="M180 -307v809h107v-809h-107zM180 729v809h107v-809h-107z" />
<glyph unicode="&#xa7;" horiz-adv-x="884" d="M49 588q0 108 65 185.5t183 109.5q-180 93 -180 288q0 137 94.5 221.5t230.5 84.5q150 0 281 -64v-174h-109q-15 82 -59.5 119t-126.5 37q-87 0 -138.5 -52.5t-51.5 -138.5q0 -70 45 -117t137 -86q53 -23 82.5 -36t75 -34.5t70.5 -37.5t58 -39.5t51 -45.5t35.5 -50 t25 -59.5t7.5 -67.5q0 -122 -66.5 -205.5t-189.5 -114.5q95 -53 139 -119t44 -161q0 -143 -89.5 -223t-263.5 -80q-207 0 -313 67v191h113q12 -104 61.5 -147.5t157.5 -43.5q91 0 150 45t59 140q0 81 -45 130.5t-133 88.5l-132 57q-49 21 -82.5 39t-71.5 47t-61 61t-38 79.5 t-15 105.5zM174 623q0 -78 38.5 -117.5t154.5 -95.5l108 -52q95 11 157 68.5t62 146.5q0 79 -56 131t-157 95l-114 49q-83 -25 -138 -84t-55 -141z" />
<glyph unicode="&#xa8;" horiz-adv-x="972" d="M156 1300q0 50 33.5 83.5t82.5 33.5q50 0 83.5 -33.5t33.5 -83.5q0 -49 -33.5 -82.5t-83.5 -33.5t-83 33t-33 83zM584 1300q0 50 33.5 83.5t82.5 33.5q50 0 83.5 -33.5t33.5 -83.5q0 -49 -33.5 -82.5t-83.5 -33.5t-83 33t-33 83z" />
<glyph unicode="&#xa9;" horiz-adv-x="1622" d="M94 698q0 159 56.5 295.5t153.5 230t228.5 146.5t278.5 53t278.5 -53t228.5 -146.5t153.5 -230t56.5 -295.5q0 -215 -94 -380.5t-257 -254t-366 -88.5t-366 88.5t-257 254t-94 380.5zM182 696q0 -144 49 -266t134 -204.5t200 -128.5t246 -46t246 46t200 128.5t134 204.5 t49 266q0 147 -49 270t-134 206t-200 128.5t-246 45.5t-246 -45.5t-200 -128.5t-134 -206t-49 -270zM393 690q0 210 107.5 328.5t318.5 118.5q180 0 283 -68v-172h-107q-8 48 -16.5 75.5t-28 51t-52.5 33.5t-85 10q-262 0 -262 -360q0 -173 66.5 -275t199.5 -102 q100 0 141.5 37.5t55.5 126.5h94v-170q-107 -68 -283 -68q-215 0 -323.5 112.5t-108.5 321.5z" />
<glyph unicode="&#xaa;" horiz-adv-x="800" d="M49 913q0 252 397 252q27 0 68 -4v62q0 107 -33.5 152.5t-122.5 45.5t-126.5 -33t-49.5 -96h-92v131q56 31 134.5 53.5t146.5 22.5q130 0 200 -63t70 -193q0 -15 -3 -128.5t-3 -196.5q0 -35 0.5 -51t4 -34.5t9 -25t19 -14t29.5 -10t44 -5.5v-55q-44 -14 -96 -14 q-70 0 -97.5 33t-35.5 102q-83 -150 -223 -150q-109 0 -174.5 58t-65.5 161zM197 934q0 -81 33 -114.5t106 -33.5q52 0 96.5 36.5t73.5 92.5l6 183q-40 4 -68 4q-129 0 -188 -40t-59 -128z" />
<glyph unicode="&#xab;" horiz-adv-x="1015" d="M115 494l338 421l65 -59l-231 -362l231 -363l-65 -59zM516 494l338 421l66 -59l-232 -362l232 -363l-66 -59z" />
<glyph unicode="&#xac;" horiz-adv-x="1005" d="M115 485v103h776v-441h-96v338h-680z" />
<glyph unicode="&#xad;" horiz-adv-x="620" d="M115 481v133h391v-133h-391z" />
<glyph unicode="&#xae;" horiz-adv-x="1622" d="M94 698q0 159 56.5 295.5t153.5 230t228.5 146.5t278.5 53t278.5 -53t228.5 -146.5t153.5 -230t56.5 -295.5q0 -215 -94 -380.5t-257 -254t-366 -88.5t-366 88.5t-257 254t-94 380.5zM182 696q0 -144 49 -266t134 -204.5t200 -128.5t246 -46t246 46t200 128.5t134 204.5 t49 266q0 147 -49 270t-134 206t-200 128.5t-246 45.5t-246 -45.5t-200 -128.5t-134 -206t-49 -270zM440 279v47q69 3 90 29.5t21 97.5v493q0 42 -2 60.5t-12.5 36.5t-33 23.5t-63.5 6.5v51h340q75 0 130.5 -10.5t100 -35.5t67 -70t22.5 -111q0 -122 -62 -170t-190 -51v-8 q100 -38 162 -136q9 -16 31 -56.5t38 -69.5q28 -50 47.5 -63.5t77.5 -14.5v-49h-215q-46 103 -106 213q-23 41 -29 52t-23 39t-24 34t-23 21t-29.5 18t-33 7.5t-43.5 4.5v-215q0 -78 23.5 -101.5t103.5 -25.5v-47h-365zM678 727h92q108 0 150.5 36.5t42.5 133.5 q0 88 -47.5 125t-172.5 37h-65v-332z" />
<glyph unicode="&#xaf;" horiz-adv-x="870" d="M160 1208v105h551v-105h-551z" />
<glyph unicode="&#xb0;" horiz-adv-x="839" d="M96 1073q0 155 88 247.5t232 92.5q154 0 240.5 -91.5t86.5 -252.5q0 -154 -89.5 -246t-233.5 -92q-152 0 -238 91.5t-86 250.5zM229 1081q0 -133 46.5 -189t146.5 -56q96 0 142 56t46 169q0 134 -47 191t-145 57q-189 0 -189 -228z" />
<glyph unicode="&#xb1;" horiz-adv-x="1005" d="M115 51v103h776v-103h-776zM115 606v103h344v317h96v-317h336v-103h-336v-336h-96v336h-344z" />
<glyph unicode="&#xb2;" horiz-adv-x="673" d="M51 512v78l156 160q115 116 159.5 183.5t45.5 156.5q0 72 -41 109.5t-113 37.5q-92 0 -168 -55l-29 41q113 98 248 98q112 0 183 -58t71 -161q0 -41 -15 -81.5t-34.5 -71.5t-61.5 -73.5t-71 -68.5t-88 -76l-131 -113h440l-20 -106h-531z" />
<glyph unicode="&#xb3;" horiz-adv-x="649" d="M45 541q49 -9 107 -9q122 0 201 57t79 156q0 83 -42 117.5t-126 34.5q-33 0 -61 -4l6 74h20q99 0 147 29.5t48 111.5q0 64 -38.5 97.5t-106.5 33.5q-89 0 -170 -51l-33 49q108 84 248 84q105 0 170 -48.5t65 -137.5q0 -75 -49.5 -124.5t-132.5 -70.5q92 -10 146.5 -66.5 t54.5 -134.5q0 -125 -108.5 -196.5t-264.5 -71.5q-78 0 -144 16z" />
<glyph unicode="&#xb4;" horiz-adv-x="770" d="M160 1223l350 299l100 -170l-415 -189z" />
<glyph unicode="&#xb5;" horiz-adv-x="1097" d="M94 -369q27 150 27 373v322q0 331 -12 663l137 25h39v-123q0 -71 -1 -268.5t-1 -282.5q0 -62 9.5 -106.5t24.5 -69t38.5 -38.5t44.5 -18t51 -4q72 0 147.5 43t132.5 107v739l121 21h41v-770q0 -81 22.5 -119.5t92.5 -38.5q19 0 51 4v-67q-74 -41 -158 -41 q-125 0 -166 180q-63 -83 -144.5 -136t-164.5 -53q-38 0 -84 15t-68 41l-8 -2q13 -82 13 -246l2 -160l-179 -27z" />
<glyph unicode="&#xb6;" horiz-adv-x="1255" d="M49 1018q0 214 97.5 297.5t332.5 83.5h707v-51q-94 -7 -129 -42t-35 -120v-1442h-88v1571h-199v-1571h-88v885h-170q-105 0 -180 17.5t-133 60t-86.5 120t-28.5 191.5zM383 1018q0 -168 36.5 -235.5t141.5 -67.5h86v600h-86q-57 0 -89.5 -11.5t-53.5 -46t-28 -89.5 t-7 -150z" />
<glyph unicode="&#xb7;" horiz-adv-x="573" d="M147 563q0 60 40 102t100 42t99.5 -41.5t39.5 -102.5q0 -60 -39.5 -101.5t-99.5 -41.5t-100 41.5t-40 101.5z" />
<glyph unicode="&#xb8;" horiz-adv-x="571" d="M111 -360l26 51q63 -29 123 -29q45 0 69.5 16.5t24.5 63.5q0 66 -143 74v34l45 158l51 -8l-26 -92q90 -6 133 -47t43 -99q0 -168 -191 -168q-81 0 -155 46z" />
<glyph unicode="&#xb9;" horiz-adv-x="634" d="M74 1161l237 146h99v-656q0 -55 34 -72t140 -20v-47h-484v47q109 3 141.5 19t32.5 73v541q-109 -54 -186 -76z" />
<glyph unicode="&#xba;" horiz-adv-x="804" d="M49 1090q0 184 97.5 291.5t252.5 107.5q166 0 261.5 -114t95.5 -292q0 -180 -99 -284.5t-256 -104.5t-254.5 106.5t-97.5 289.5zM197 1108q0 -177 49.5 -259.5t161.5 -82.5q102 0 154 80t52 231q0 175 -53 257.5t-158 82.5q-113 0 -159.5 -78.5t-46.5 -230.5z" />
<glyph unicode="&#xbb;" horiz-adv-x="1015" d="M96 131l232 363l-232 362l66 59l338 -421l-338 -422zM498 131l231 363l-231 362l65 59l338 -421l-338 -422z" />
<glyph unicode="&#xbc;" horiz-adv-x="1851" d="M74 1161l237 146h99v-656q0 -55 34 -72t140 -20v-47h-484v47q109 3 141.5 19t32.5 73v541q-109 -54 -186 -76zM365 -252l991 1735h88l-991 -1735h-88zM1174 186v45l286 564h133l-311 -547h285q0 188 45 327l90 19v-346h106v-62h-106v-206l-135 -21v227h-393z" />
<glyph unicode="&#xbd;" horiz-adv-x="1853" d="M74 1161l237 146h99v-656q0 -55 34 -72t140 -20v-47h-484v47q109 3 141.5 19t32.5 73v541q-109 -54 -186 -76zM365 -252l991 1735h88l-991 -1735h-88zM1257 0v78l156 160q115 116 159.5 183.5t45.5 156.5q0 72 -41 109.5t-113 37.5q-92 0 -168 -55l-28 41q113 98 248 98 q112 0 182.5 -58t70.5 -161q0 -41 -15 -81.5t-34.5 -71.5t-61.5 -73.5t-71 -68.5t-88 -76l-131 -113h440l-20 -106h-531z" />
<glyph unicode="&#xbe;" horiz-adv-x="1865" d="M45 541q49 -9 107 -9q122 0 201 57t79 156q0 83 -42 117.5t-126 34.5q-33 0 -61 -4l6 74h20q99 0 147 29.5t48 111.5q0 64 -38.5 97.5t-106.5 33.5q-89 0 -170 -51l-33 49q108 84 248 84q105 0 170 -48.5t65 -137.5q0 -75 -49.5 -124.5t-132.5 -70.5q92 -10 146.5 -66.5 t54.5 -134.5q0 -125 -108.5 -196.5t-264.5 -71.5q-78 0 -144 16zM379 -252l991 1735h88l-991 -1735h-88zM1186 229l289 566h133l-312 -547h285q0 188 45 327l90 19v-346h107v-62h-107v-206l-135 -21v227h-393z" />
<glyph unicode="&#xbf;" horiz-adv-x="892" d="M139 -82q0 54 17.5 103.5t37 79.5t54.5 62t48 41t40 27q94 60 129 111t35 141q0 43 -15 109h62q45 -72 45 -158q0 -133 -113 -241q-7 -7 -37 -33.5t-42 -39t-35 -41t-33.5 -51.5t-19.5 -58.5t-9 -73.5q0 -94 54.5 -148.5t140.5 -54.5q88 0 136.5 48.5t57.5 137.5h107 v-178q-48 -34 -131.5 -62t-190.5 -28q-74 0 -133.5 16.5t-106.5 52t-72.5 96t-25.5 142.5zM369 926q0 56 38.5 94.5t94.5 38.5t97.5 -39t41.5 -94q0 -59 -41 -101.5t-98 -42.5q-55 0 -94 42.5t-39 101.5z" />
<glyph unicode="&#xc0;" d="M41 0v59q73 7 109 45t67 136l375 1159h162l370 -1155q15 -49 26.5 -76t30.5 -53t46.5 -39t68.5 -17v-59h-477v59q73 5 106 26.5t33 66.5q0 28 -10 63l-69 225h-492l-70 -225q-12 -43 -12 -74q0 -45 34 -62t116 -20v-59h-414zM414 526h440l-94 312q-114 373 -119 395h-8 q-16 -63 -35.5 -126.5t-45.5 -141t-42 -127.5zM436 1630l82 172l373 -250l-37 -59z" />
<glyph unicode="&#xc1;" d="M41 0v59q73 7 109 45t67 136l375 1159h162l370 -1155q15 -49 26.5 -76t30.5 -53t46.5 -39t68.5 -17v-59h-477v59q73 5 106 26.5t33 66.5q0 28 -10 63l-69 225h-492l-70 -225q-12 -43 -12 -74q0 -45 34 -62t116 -20v-59h-414zM414 526h440l-94 312q-114 373 -119 395h-8 q-16 -63 -35.5 -126.5t-45.5 -141t-42 -127.5zM440 1552l373 250l82 -172l-420 -139z" />
<glyph unicode="&#xc2;" d="M41 0v59q73 7 109 45t67 136l375 1159h162l370 -1155q15 -49 26.5 -76t30.5 -53t46.5 -39t68.5 -17v-59h-477v59q73 5 106 26.5t33 66.5q0 28 -10 63l-69 225h-492l-70 -225q-12 -43 -12 -74q0 -45 34 -62t116 -20v-59h-414zM348 1546l320 293l319 -293l-43 -49l-276 164 l-277 -164zM414 526h440l-94 312q-114 373 -119 395h-8q-16 -63 -35.5 -126.5t-45.5 -141t-42 -127.5z" />
<glyph unicode="&#xc3;" d="M41 0v59q73 7 109 45t67 136l375 1159h162l370 -1155q15 -49 26.5 -76t30.5 -53t46.5 -39t68.5 -17v-59h-477v59q73 5 106 26.5t33 66.5q0 28 -10 63l-69 225h-492l-70 -225q-12 -43 -12 -74q0 -45 34 -62t116 -20v-59h-414zM324 1563q53 194 200 194q52 0 99 -23.5 t92 -47t92 -23.5q98 0 158 88l51 -20q-65 -187 -209 -187q-56 0 -106 22.5t-93.5 45t-83.5 22.5q-56 0 -88.5 -23.5t-62.5 -68.5zM414 526h440l-94 312q-114 373 -119 395h-8q-16 -63 -35.5 -126.5t-45.5 -141t-42 -127.5z" />
<glyph unicode="&#xc4;" d="M41 0v59q73 7 109 45t67 136l375 1159h162l370 -1155q15 -49 26.5 -76t30.5 -53t46.5 -39t68.5 -17v-59h-477v59q73 5 106 26.5t33 66.5q0 28 -10 63l-69 225h-492l-70 -225q-12 -43 -12 -74q0 -45 34 -62t116 -20v-59h-414zM336 1606q0 51 33.5 83.5t83.5 32.5 q51 0 84.5 -32.5t33.5 -83.5t-33.5 -84t-84.5 -33q-50 0 -83.5 33t-33.5 84zM414 526h440l-94 312q-114 373 -119 395h-8q-16 -63 -35.5 -126.5t-45.5 -141t-42 -127.5zM764 1606q0 51 34 83.5t85 32.5q50 0 83 -32.5t33 -83.5t-33 -84t-83 -33q-51 0 -85 33t-34 84z" />
<glyph unicode="&#xc5;" d="M41 0v59q73 7 109 45t67 136l375 1159h162l370 -1155q15 -49 26.5 -76t30.5 -53t46.5 -39t68.5 -17v-59h-477v59q73 5 106 26.5t33 66.5q0 28 -10 63l-69 225h-492l-70 -225q-12 -43 -12 -74q0 -45 34 -62t116 -20v-59h-414zM414 526h440l-94 312q-114 373 -119 395h-8 q-16 -63 -35.5 -126.5t-45.5 -141t-42 -127.5zM467 1675q0 87 57 145t144 58q88 0 145 -58t57 -145t-56.5 -144.5t-145.5 -57.5q-87 0 -144 57.5t-57 144.5zM537 1673q0 -60 36 -99.5t95 -39.5q60 0 96.5 39.5t36.5 99.5q0 63 -36.5 104.5t-96.5 41.5q-59 0 -95 -41.5 t-36 -104.5z" />
<glyph unicode="&#xc6;" horiz-adv-x="1824" d="M41 0v59q66 8 104.5 37.5t83.5 110.5l521 975q24 46 24 73q0 75 -149 84v60h1077l20 -295h-63q-37 124 -76 165.5t-131 41.5h-354v-537h202q103 0 143 30t46 116h59v-377h-59q-6 83 -45.5 114t-140.5 31h-205v-600h356q125 0 169 46.5t56 191.5h68v-326h-983v59 q94 7 129 42t35 120v281h-430l-160 -301q-29 -56 -29 -76q0 -56 117 -66v-59h-385zM541 588h387v342q0 199 4 387h-8z" />
<glyph unicode="&#xc7;" horiz-adv-x="1169" d="M94 688q0 345 162 540t432 195q263 0 393 -90v-223h-118q-30 123 -91 176t-190 53q-94 0 -165.5 -34.5t-124.5 -109t-80 -201t-27 -302.5q0 -146 19 -255.5t53.5 -181t88 -115t116 -61.5t143.5 -18q126 0 190.5 51t87.5 171h109v-209l6 4q-143 -101 -402 -101l-18 -69 q90 -6 131 -46.5t41 -99.5q0 -168 -191 -168q-84 0 -155 44l26 55q68 -31 123 -31q45 0 70 16.5t25 63.5q0 66 -148 74v34l37 130q-272 23 -407.5 207t-135.5 501z" />
<glyph unicode="&#xc8;" horiz-adv-x="1140" d="M80 0v59q94 7 129 42t35 120v957q0 85 -35 119t-129 42v60h938l20 -295h-63q-37 124 -76 165.5t-131 41.5h-354v-537h202q103 0 143 30t46 116h59v-377h-59q-6 83 -46 114t-141 31h-204v-600h356q125 0 169 46.5t56 191.5h68v-326h-983zM369 1630l82 172l372 -250 l-37 -59z" />
<glyph unicode="&#xc9;" horiz-adv-x="1140" d="M80 0v59q94 7 129 42t35 120v957q0 85 -35 119t-129 42v60h938l20 -295h-63q-37 124 -76 165.5t-131 41.5h-354v-537h202q103 0 143 30t46 116h59v-377h-59q-6 83 -46 114t-141 31h-204v-600h356q125 0 169 46.5t56 191.5h68v-326h-983zM373 1552l372 250l82 -172 l-419 -139z" />
<glyph unicode="&#xca;" horiz-adv-x="1140" d="M80 0v59q94 7 129 42t35 120v957q0 85 -35 119t-129 42v60h938l20 -295h-63q-37 124 -76 165.5t-131 41.5h-354v-537h202q103 0 143 30t46 116h59v-377h-59q-6 83 -46 114t-141 31h-204v-600h356q125 0 169 46.5t56 191.5h68v-326h-983zM281 1546l319 293l320 -293 l-43 -49l-277 164l-276 -164z" />
<glyph unicode="&#xcb;" horiz-adv-x="1140" d="M80 0v59q94 7 129 42t35 120v957q0 85 -35 119t-129 42v60h938l20 -295h-63q-37 124 -76 165.5t-131 41.5h-354v-537h202q103 0 143 30t46 116h59v-377h-59q-6 83 -46 114t-141 31h-204v-600h356q125 0 169 46.5t56 191.5h68v-326h-983zM268 1606q0 51 33.5 83.5 t83.5 32.5q51 0 85 -32.5t34 -83.5t-34 -84t-85 -33q-50 0 -83.5 33t-33.5 84zM696 1606q0 51 34 83.5t85 32.5q50 0 83.5 -32.5t33.5 -83.5t-33.5 -84t-83.5 -33q-51 0 -85 33t-34 84z" />
<glyph unicode="&#xcc;" horiz-adv-x="657" d="M80 0v59q94 7 129 42t35 120v957q0 85 -35 119t-129 42v60h498v-60q-94 -8 -129 -42t-35 -119v-957q0 -85 35 -120t129 -42v-59h-498zM96 1630l82 172l373 -250l-37 -59z" />
<glyph unicode="&#xcd;" horiz-adv-x="657" d="M80 0v59q94 7 129 42t35 120v957q0 85 -35 119t-129 42v60h498v-60q-94 -8 -129 -42t-35 -119v-957q0 -85 35 -120t129 -42v-59h-498zM100 1552l373 250l82 -172l-420 -139z" />
<glyph unicode="&#xce;" horiz-adv-x="657" d="M8 1546l320 293l319 -293l-43 -49l-276 164l-277 -164zM80 0v59q94 7 129 42t35 120v957q0 85 -35 119t-129 42v60h498v-60q-94 -8 -129 -42t-35 -119v-957q0 -85 35 -120t129 -42v-59h-498z" />
<glyph unicode="&#xcf;" horiz-adv-x="657" d="M-4 1606q0 51 33.5 83.5t83.5 32.5q51 0 84.5 -32.5t33.5 -83.5t-33.5 -84t-84.5 -33q-50 0 -83.5 33t-33.5 84zM80 0v59q94 7 129 42t35 120v957q0 85 -35 119t-129 42v60h498v-60q-94 -8 -129 -42t-35 -119v-957q0 -85 35 -120t129 -42v-59h-498zM424 1606 q0 51 34 83.5t85 32.5q50 0 83 -32.5t33 -83.5t-33 -84t-83 -33q-51 0 -85 33t-34 84z" />
<glyph unicode="&#xd0;" horiz-adv-x="1359" d="M76 700v82h172v396q0 85 -35 119t-129 42v60h506q156 0 279 -41.5t212.5 -126t137 -219.5t47.5 -314q0 -124 -22 -227.5t-72.5 -192t-127.5 -149.5t-192 -95t-262 -34h-506v59q94 7 129 42t35 120v479h-172zM424 92h186q123 0 206 26t144 91t89 179t28 286q0 176 -29 300 t-89 199t-144 108.5t-201 33.5h-190v-533h264v-82h-264v-608z" />
<glyph unicode="&#xd1;" horiz-adv-x="1390" d="M80 0v59q94 7 129 42t35 120v957q0 85 -35 119t-129 42v60h311l520 -854q121 -197 152 -299h12q-14 85 -14 430v502q0 85 -35 119t-129 42v60h424v-60q-86 -7 -116.5 -41.5t-30.5 -119.5v-1178h-125l-510 834q-144 231 -183 350h-12q12 -82 12 -383v-580q0 -85 35 -120 t129 -42v-59h-440zM356 1563q24 87 73.5 140.5t127.5 53.5q52 0 99 -23.5t92 -47t92 -23.5q97 0 157 88l52 -20q-65 -187 -209 -187q-56 0 -106 22.5t-93.5 45t-83.5 22.5q-56 0 -88.5 -23.5t-62.5 -68.5z" />
<glyph unicode="&#xd2;" horiz-adv-x="1363" d="M94 705q0 341 158 529.5t426 188.5q124 0 224 -39t168 -106.5t113.5 -161.5t66 -200t20.5 -226q0 -324 -155.5 -518.5t-426.5 -194.5q-145 0 -259 54.5t-186.5 152.5t-110.5 230t-38 291zM279 727q0 -156 21.5 -275t68.5 -209.5t127 -138t192 -47.5q393 0 393 615 q0 332 -94.5 499.5t-308.5 167.5q-206 0 -302.5 -152.5t-96.5 -459.5zM451 1630l81 172l373 -250l-37 -59z" />
<glyph unicode="&#xd3;" horiz-adv-x="1363" d="M94 705q0 341 158 529.5t426 188.5q124 0 224 -39t168 -106.5t113.5 -161.5t66 -200t20.5 -226q0 -324 -155.5 -518.5t-426.5 -194.5q-145 0 -259 54.5t-186.5 152.5t-110.5 230t-38 291zM279 727q0 -156 21.5 -275t68.5 -209.5t127 -138t192 -47.5q393 0 393 615 q0 332 -94.5 499.5t-308.5 167.5q-206 0 -302.5 -152.5t-96.5 -459.5zM455 1552l372 250l82 -172l-420 -139z" />
<glyph unicode="&#xd4;" horiz-adv-x="1363" d="M94 705q0 341 158 529.5t426 188.5q124 0 224 -39t168 -106.5t113.5 -161.5t66 -200t20.5 -226q0 -324 -155.5 -518.5t-426.5 -194.5q-145 0 -259 54.5t-186.5 152.5t-110.5 230t-38 291zM279 727q0 -156 21.5 -275t68.5 -209.5t127 -138t192 -47.5q393 0 393 615 q0 332 -94.5 499.5t-308.5 167.5q-206 0 -302.5 -152.5t-96.5 -459.5zM362 1546l320 293l319 -293l-43 -49l-276 164l-276 -164z" />
<glyph unicode="&#xd5;" horiz-adv-x="1363" d="M94 705q0 341 158 529.5t426 188.5q124 0 224 -39t168 -106.5t113.5 -161.5t66 -200t20.5 -226q0 -324 -155.5 -518.5t-426.5 -194.5q-145 0 -259 54.5t-186.5 152.5t-110.5 230t-38 291zM279 727q0 -156 21.5 -275t68.5 -209.5t127 -138t192 -47.5q393 0 393 615 q0 332 -94.5 499.5t-308.5 167.5q-206 0 -302.5 -152.5t-96.5 -459.5zM338 1563q24 87 73.5 140.5t127.5 53.5q52 0 98.5 -23.5t91.5 -47t92 -23.5q98 0 158 88l51 -20q-65 -187 -209 -187q-56 0 -105.5 22.5t-93 45t-83.5 22.5q-56 0 -89 -23.5t-63 -68.5z" />
<glyph unicode="&#xd6;" horiz-adv-x="1363" d="M94 705q0 341 158 529.5t426 188.5q124 0 224 -39t168 -106.5t113.5 -161.5t66 -200t20.5 -226q0 -324 -155.5 -518.5t-426.5 -194.5q-145 0 -259 54.5t-186.5 152.5t-110.5 230t-38 291zM279 727q0 -156 21.5 -275t68.5 -209.5t127 -138t192 -47.5q393 0 393 615 q0 332 -94.5 499.5t-308.5 167.5q-206 0 -302.5 -152.5t-96.5 -459.5zM350 1606q0 51 33.5 83.5t83.5 32.5q51 0 85 -32.5t34 -83.5t-34 -84t-85 -33q-50 0 -83.5 33t-33.5 84zM778 1606q0 51 34 83.5t85 32.5q50 0 83.5 -32.5t33.5 -83.5t-33.5 -84t-83.5 -33q-51 0 -85 33 t-34 84z" />
<glyph unicode="&#xd7;" horiz-adv-x="1013" d="M115 223l325 326l-325 328l63 65l328 -328l328 328l65 -65l-328 -328l328 -326l-65 -65l-328 327l-328 -327z" />
<glyph unicode="&#xd8;" horiz-adv-x="1363" d="M94 705q0 341 158 529.5t426 188.5q175 0 319 -88l111 181l68 -37l-115 -193q105 -99 157 -254.5t52 -341.5q0 -324 -155.5 -518.5t-426.5 -194.5q-198 0 -346 105l-119 -201l-63 35l127 215q-193 196 -193 574zM279 727q0 -287 83 -471l578 979q-101 104 -262 104 q-206 0 -302.5 -152.5t-96.5 -459.5zM406 184q98 -127 282 -127q393 0 393 615q0 304 -92 495z" />
<glyph unicode="&#xd9;" horiz-adv-x="1392" d="M66 1339v60h497v-60q-58 -2 -91.5 -10t-52.5 -28.5t-24.5 -47.5t-5.5 -75v-695q0 -107 16.5 -178.5t57 -121.5t108 -72.5t170.5 -22.5q176 0 251 85t75 280v725q0 85 -37 119.5t-137 41.5v60h434v-60q-86 -7 -116.5 -41.5t-30.5 -119.5v-725q0 -245 -118 -360.5 t-349 -115.5q-247 0 -370.5 117t-123.5 344v740q0 90 -30.5 123.5t-122.5 37.5zM494 1630l81 172l373 -250l-37 -59z" />
<glyph unicode="&#xda;" horiz-adv-x="1392" d="M66 1339v60h497v-60q-58 -2 -91.5 -10t-52.5 -28.5t-24.5 -47.5t-5.5 -75v-695q0 -107 16.5 -178.5t57 -121.5t108 -72.5t170.5 -22.5q176 0 251 85t75 280v725q0 85 -37 119.5t-137 41.5v60h434v-60q-86 -7 -116.5 -41.5t-30.5 -119.5v-725q0 -245 -118 -360.5 t-349 -115.5q-247 0 -370.5 117t-123.5 344v740q0 90 -30.5 123.5t-122.5 37.5zM498 1552l372 250l82 -172l-420 -139z" />
<glyph unicode="&#xdb;" horiz-adv-x="1392" d="M66 1339v60h497v-60q-58 -2 -91.5 -10t-52.5 -28.5t-24.5 -47.5t-5.5 -75v-695q0 -107 16.5 -178.5t57 -121.5t108 -72.5t170.5 -22.5q176 0 251 85t75 280v725q0 85 -37 119.5t-137 41.5v60h434v-60q-86 -7 -116.5 -41.5t-30.5 -119.5v-725q0 -245 -118 -360.5 t-349 -115.5q-247 0 -370.5 117t-123.5 344v740q0 90 -30.5 123.5t-122.5 37.5zM406 1546l319 293l319 -293l-43 -49l-276 164l-276 -164z" />
<glyph unicode="&#xdc;" horiz-adv-x="1392" d="M66 1339v60h497v-60q-58 -2 -91.5 -10t-52.5 -28.5t-24.5 -47.5t-5.5 -75v-695q0 -107 16.5 -178.5t57 -121.5t108 -72.5t170.5 -22.5q176 0 251 85t75 280v725q0 85 -37 119.5t-137 41.5v60h434v-60q-86 -7 -116.5 -41.5t-30.5 -119.5v-725q0 -245 -118 -360.5 t-349 -115.5q-247 0 -370.5 117t-123.5 344v740q0 90 -30.5 123.5t-122.5 37.5zM393 1606q0 51 33.5 83.5t83.5 32.5q51 0 85 -32.5t34 -83.5t-34 -84t-85 -33q-50 0 -83.5 33t-33.5 84zM821 1606q0 51 34 83.5t85 32.5q50 0 83.5 -32.5t33.5 -83.5t-33.5 -84t-83.5 -33 q-51 0 -85 33t-34 84z" />
<glyph unicode="&#xdd;" horiz-adv-x="1216" d="M35 1339v60h463v-60q-109 -6 -109 -67q0 -31 31 -98l231 -484h8l234 488q27 58 27 90q0 61 -121 71v60h383v-60q-62 -9 -103 -47.5t-94 -146.5l-283 -576v-348q0 -89 36 -123.5t139 -38.5v-59h-519v59q103 4 138.5 38.5t35.5 123.5v336l-307 610q-48 93 -88 128t-102 44z M410 1552l372 250l82 -172l-420 -139z" />
<glyph unicode="&#xde;" horiz-adv-x="1169" d="M80 0v59q94 7 129 42t35 120v957q0 85 -35 119t-129 42v60h498v-60q-94 -8 -129 -42t-35 -119v-50h190q138 0 236.5 -27t155.5 -79t82.5 -120t25.5 -157q0 -197 -118 -295t-347 -98h-225v-125q0 -92 37 -128t143 -40v-59h-514zM414 436h213q158 0 225.5 67t67.5 222 q0 91 -14.5 148.5t-52 97t-100.5 55.5t-163 16h-176v-606z" />
<glyph unicode="&#xdf;" horiz-adv-x="1189" d="M68 0v57q84 8 113.5 37t29.5 113v686h-129v55l127 45v101q0 188 114 286.5t302 98.5q164 0 268 -75.5t104 -201.5q0 -53 -18.5 -96.5t-57.5 -80t-75 -60.5t-96 -58q-51 -30 -61 -44q-7 -10 -7 -21q0 -32 55 -60q89 -48 152.5 -92t121.5 -101.5t87.5 -126.5t29.5 -149 q0 -145 -96.5 -238t-259.5 -93q-172 0 -278 81l38 78q59 -35 113 -52t123 -17q92 0 138 56.5t46 162.5q0 56 -13 103.5t-32 82.5t-55 72t-69 63.5t-87 65.5q-43 30 -58.5 41.5t-35.5 31t-25.5 37t-5.5 41.5q0 38 25.5 66.5t93.5 71.5q74 47 107.5 98.5t33.5 126.5 q0 109 -54 156t-161 47q-130 0 -186.5 -79.5t-56.5 -242.5v-1073h-305z" />
<glyph unicode="&#xe0;" horiz-adv-x="1036" d="M78 256q0 89 37 152.5t108 100.5t164 54t215 17q57 0 84 -2v96q0 140 -42.5 200t-156.5 60q-124 0 -179.5 -50t-69.5 -134h-105v174q73 40 176 70t195 30q344 0 344 -338q0 -20 -4 -169t-4 -255q0 -114 28.5 -150.5t122.5 -45.5v-60q-56 -18 -129 -18q-94 0 -130 41.5 t-48 128.5q-37 -73 -113 -130t-176 -57q-144 0 -230.5 75.5t-86.5 209.5zM233 1352l99 170l352 -299l-35 -60zM252 270q0 -107 45 -150.5t143 -43.5q72 0 133.5 47.5t102.5 118.5l6 250q-46 4 -84 4q-182 0 -264 -53t-82 -173z" />
<glyph unicode="&#xe1;" horiz-adv-x="1036" d="M78 256q0 89 37 152.5t108 100.5t164 54t215 17q57 0 84 -2v96q0 140 -42.5 200t-156.5 60q-124 0 -179.5 -50t-69.5 -134h-105v174q73 40 176 70t195 30q344 0 344 -338q0 -20 -4 -169t-4 -255q0 -114 28.5 -150.5t122.5 -45.5v-60q-56 -18 -129 -18q-94 0 -130 41.5 t-48 128.5q-37 -73 -113 -130t-176 -57q-144 0 -230.5 75.5t-86.5 209.5zM252 270q0 -107 45 -150.5t143 -43.5q72 0 133.5 47.5t102.5 118.5l6 250q-46 4 -84 4q-182 0 -264 -53t-82 -173zM266 1223l350 299l101 -170l-416 -189z" />
<glyph unicode="&#xe2;" horiz-adv-x="1036" d="M78 256q0 89 37 152.5t108 100.5t164 54t215 17q57 0 84 -2v96q0 140 -42.5 200t-156.5 60q-124 0 -179.5 -50t-69.5 -134h-105v174q73 40 176 70t195 30q344 0 344 -338q0 -20 -4 -169t-4 -255q0 -114 28.5 -150.5t122.5 -45.5v-60q-56 -18 -129 -18q-94 0 -130 41.5 t-48 128.5q-37 -73 -113 -130t-176 -57q-144 0 -230.5 75.5t-86.5 209.5zM172 1210l320 301l319 -301l-43 -49l-276 172l-277 -172zM252 270q0 -107 45 -150.5t143 -43.5q72 0 133.5 47.5t102.5 118.5l6 250q-46 4 -84 4q-182 0 -264 -53t-82 -173z" />
<glyph unicode="&#xe3;" horiz-adv-x="1036" d="M78 256q0 89 37 152.5t108 100.5t164 54t215 17q57 0 84 -2v96q0 140 -42.5 200t-156.5 60q-124 0 -179.5 -50t-69.5 -134h-105v174q73 40 176 70t195 30q344 0 344 -338q0 -20 -4 -169t-4 -255q0 -114 28.5 -150.5t122.5 -45.5v-60q-56 -18 -129 -18q-94 0 -130 41.5 t-48 128.5q-37 -73 -113 -130t-176 -57q-144 0 -230.5 75.5t-86.5 209.5zM166 1212q21 92 66.5 150.5t117.5 58.5q54 0 132.5 -31.5t121.5 -31.5q91 0 141 82l54 -23q-26 -85 -75.5 -141.5t-119.5 -56.5q-55 0 -135.5 29.5t-118.5 29.5q-52 0 -81 -20t-56 -66zM252 270 q0 -107 45 -150.5t143 -43.5q72 0 133.5 47.5t102.5 118.5l6 250q-46 4 -84 4q-182 0 -264 -53t-82 -173z" />
<glyph unicode="&#xe4;" horiz-adv-x="1036" d="M78 256q0 89 37 152.5t108 100.5t164 54t215 17q57 0 84 -2v96q0 140 -42.5 200t-156.5 60q-124 0 -179.5 -50t-69.5 -134h-105v174q73 40 176 70t195 30q344 0 344 -338q0 -20 -4 -169t-4 -255q0 -114 28.5 -150.5t122.5 -45.5v-60q-56 -18 -129 -18q-94 0 -130 41.5 t-48 128.5q-37 -73 -113 -130t-176 -57q-144 0 -230.5 75.5t-86.5 209.5zM160 1300q0 50 33.5 83.5t82.5 33.5q50 0 83.5 -33.5t33.5 -83.5q0 -49 -33.5 -82.5t-83.5 -33.5t-83 33t-33 83zM252 270q0 -107 45 -150.5t143 -43.5q72 0 133.5 47.5t102.5 118.5l6 250 q-46 4 -84 4q-182 0 -264 -53t-82 -173zM588 1300q0 50 34 83.5t83 33.5t82.5 -33.5t33.5 -83.5t-33.5 -83t-82.5 -33q-50 0 -83.5 33.5t-33.5 82.5z" />
<glyph unicode="&#xe5;" horiz-adv-x="1036" d="M78 256q0 89 37 152.5t108 100.5t164 54t215 17q57 0 84 -2v96q0 140 -42.5 200t-156.5 60q-124 0 -179.5 -50t-69.5 -134h-105v174q73 40 176 70t195 30q344 0 344 -338q0 -20 -4 -169t-4 -255q0 -114 28.5 -150.5t122.5 -45.5v-60q-56 -18 -129 -18q-94 0 -130 41.5 t-48 128.5q-37 -73 -113 -130t-176 -57q-144 0 -230.5 75.5t-86.5 209.5zM252 270q0 -107 45 -150.5t143 -43.5q72 0 133.5 47.5t102.5 118.5l6 250q-46 4 -84 4q-182 0 -264 -53t-82 -173zM289 1350q0 87 56.5 144.5t143.5 57.5q89 0 146 -57.5t57 -144.5t-57 -145 t-146 -58q-87 0 -143.5 58t-56.5 145zM358 1348q0 -60 36 -100t95 -40q60 0 97 40t37 100q0 63 -37 104t-97 41q-59 0 -95 -41t-36 -104z" />
<glyph unicode="&#xe6;" horiz-adv-x="1564" d="M78 256q0 326 524 326h72v100q0 136 -39 194t-148 58q-124 0 -179.5 -50t-69.5 -134h-105v174q73 40 176 70t195 30q210 0 287 -129q58 63 137.5 97t165.5 34q188 0 292.5 -126.5t104.5 -356.5v-49h-653q2 -152 39.5 -242t108 -127t185.5 -37q64 0 139 22.5t130 57.5 l33 -57q-174 -134 -351 -134q-236 0 -364 177q-129 -177 -363 -177q-145 0 -231 72t-86 207zM252 270q0 -182 188 -182q153 0 269 164q-34 85 -37 242h-74q-182 0 -264 -52.5t-82 -171.5zM840 582h481q0 193 -54 275.5t-177 82.5q-115 0 -176.5 -81t-73.5 -277z" />
<glyph unicode="&#xe7;" horiz-adv-x="935" d="M78 481q0 255 127.5 396t329.5 141q175 0 294 -74v-182h-114q-15 93 -56.5 133.5t-128.5 40.5q-131 0 -202.5 -96.5t-71.5 -317.5q0 -243 71.5 -343.5t225.5 -100.5q89 0 144.5 23.5t125.5 82.5l43 -45q-145 -162 -342 -162h-28l-19 -69q90 -6 132 -46.5t42 -99.5 q0 -168 -190 -168q-85 0 -156 44l27 55q68 -31 123 -31q45 0 69.5 16.5t24.5 63.5q0 66 -146 74v34l39 134q-165 29 -264.5 155.5t-99.5 341.5z" />
<glyph unicode="&#xe8;" horiz-adv-x="976" d="M78 504q0 242 119.5 382t308.5 140q188 0 292.5 -126.5t104.5 -356.5v-49h-653q2 -152 40 -242t108.5 -127t185.5 -37q64 0 138 22.5t130 57.5l33 -57q-174 -134 -350 -134q-214 0 -335.5 139.5t-121.5 387.5zM252 582h481q0 193 -54 275.5t-177 82.5q-115 0 -176.5 -81 t-73.5 -277zM258 1352l98 170l353 -299l-35 -60z" />
<glyph unicode="&#xe9;" horiz-adv-x="976" d="M78 504q0 242 119.5 382t308.5 140q188 0 292.5 -126.5t104.5 -356.5v-49h-653q2 -152 40 -242t108.5 -127t185.5 -37q64 0 138 22.5t130 57.5l33 -57q-174 -134 -350 -134q-214 0 -335.5 139.5t-121.5 387.5zM252 582h481q0 193 -54 275.5t-177 82.5q-115 0 -176.5 -81 t-73.5 -277zM289 1223l350 299l100 -170l-415 -189z" />
<glyph unicode="&#xea;" horiz-adv-x="976" d="M78 504q0 242 119.5 382t308.5 140q188 0 292.5 -126.5t104.5 -356.5v-49h-653q2 -152 40 -242t108.5 -127t185.5 -37q64 0 138 22.5t130 57.5l33 -57q-174 -134 -350 -134q-214 0 -335.5 139.5t-121.5 387.5zM182 1210l320 301l319 -301l-43 -49l-276 172l-277 -172z M252 582h481q0 193 -54 275.5t-177 82.5q-115 0 -176.5 -81t-73.5 -277z" />
<glyph unicode="&#xeb;" horiz-adv-x="976" d="M78 504q0 242 119.5 382t308.5 140q188 0 292.5 -126.5t104.5 -356.5v-49h-653q2 -152 40 -242t108.5 -127t185.5 -37q64 0 138 22.5t130 57.5l33 -57q-174 -134 -350 -134q-214 0 -335.5 139.5t-121.5 387.5zM172 1300q0 50 34 83.5t83 33.5t83 -33.5t34 -83.5 q0 -49 -33.5 -82.5t-83.5 -33.5t-83.5 33.5t-33.5 82.5zM252 582h481q0 193 -54 275.5t-177 82.5q-115 0 -176.5 -81t-73.5 -277zM600 1300q0 50 34 83.5t83 33.5t83 -33.5t34 -83.5q0 -49 -33.5 -82.5t-83.5 -33.5t-83.5 33.5t-33.5 82.5z" />
<glyph unicode="&#xec;" horiz-adv-x="577" d="M37 1352l98 170l352 -299l-34 -60zM61 893v51l285 76h27v-813q0 -85 27.5 -113.5t115.5 -36.5v-57h-448v57q84 8 113.5 37t29.5 113v506q0 75 -13.5 111.5t-43.5 51t-93 17.5z" />
<glyph unicode="&#xed;" horiz-adv-x="577" d="M61 893v51l285 76h27v-813q0 -85 27.5 -113.5t115.5 -36.5v-57h-448v57q84 8 113.5 37t29.5 113v506q0 75 -13.5 111.5t-43.5 51t-93 17.5zM63 1223l351 299l100 -170l-416 -189z" />
<glyph unicode="&#xee;" horiz-adv-x="577" d="M-33 1210l320 301l319 -301l-43 -49l-276 172l-277 -172zM61 893v51l285 76h27v-813q0 -85 27.5 -113.5t115.5 -36.5v-57h-448v57q84 8 113.5 37t29.5 113v506q0 75 -13.5 111.5t-43.5 51t-93 17.5z" />
<glyph unicode="&#xef;" horiz-adv-x="577" d="M-41 1300q0 50 33.5 83.5t83.5 33.5t83.5 -33.5t33.5 -83.5q0 -49 -33.5 -82.5t-83.5 -33.5t-83.5 33.5t-33.5 82.5zM61 893v51l285 76h27v-813q0 -85 27.5 -113.5t115.5 -36.5v-57h-448v57q84 8 113.5 37t29.5 113v506q0 75 -13.5 111.5t-43.5 51t-93 17.5zM387 1300 q0 50 33.5 83.5t83.5 33.5t83.5 -33.5t33.5 -83.5q0 -49 -33.5 -82.5t-83.5 -33.5t-83.5 33.5t-33.5 82.5z" />
<glyph unicode="&#xf0;" horiz-adv-x="1079" d="M78 498q0 241 132.5 382.5t328.5 141.5q103 0 204 -59q-74 151 -194 254l-293 -119l-29 67l252 105q-124 75 -274 123l24 63q206 -52 367 -139l254 100l29 -63l-207 -84q323 -236 323 -738q0 -266 -126 -411.5t-332 -145.5q-202 0 -330.5 145t-128.5 378zM254 502 q0 -216 67.5 -327.5t219.5 -111.5q137 0 207.5 115t70.5 334q0 207 -37 342q-135 80 -225 80q-303 0 -303 -432z" />
<glyph unicode="&#xf1;" horiz-adv-x="1185" d="M61 891v51l246 78h27q10 -26 20 -82.5t11 -108.5q87 91 172.5 140t189.5 49q120 0 192 -70t72 -198v-543q0 -88 25 -116t108 -34v-57h-438v57q87 7 115 34.5t28 101.5v520q0 92 -40 133t-121 41q-88 0 -155 -37.5t-140 -112.5v-544q0 -74 28 -101.5t115 -34.5v-57h-448 v57q84 8 113.5 37t29.5 113v504q0 75 -13.5 111.5t-43.5 51t-93 17.5zM279 1212q21 92 66.5 150.5t117.5 58.5q54 0 132.5 -31.5t121.5 -31.5q91 0 141 82l53 -23q-26 -86 -75 -142t-119 -56q-55 0 -135.5 29.5t-118.5 29.5q-52 0 -81 -20t-56 -66z" />
<glyph unicode="&#xf2;" horiz-adv-x="1073" d="M78 500q0 245 122 384.5t332 139.5q148 0 254.5 -71t157.5 -190t51 -274q0 -238 -127 -376t-331 -138q-214 0 -336.5 138t-122.5 387zM254 520q0 -239 66.5 -348t220.5 -109q137 0 207.5 107.5t70.5 310.5q0 234 -72.5 344.5t-214.5 110.5q-79 0 -134 -28t-86 -84 t-44.5 -129.5t-13.5 -174.5zM283 1352l98 170l352 -299l-35 -60z" />
<glyph unicode="&#xf3;" horiz-adv-x="1073" d="M78 500q0 245 122 384.5t332 139.5q148 0 254.5 -71t157.5 -190t51 -274q0 -238 -127 -376t-331 -138q-214 0 -336.5 138t-122.5 387zM254 520q0 -239 66.5 -348t220.5 -109q137 0 207.5 107.5t70.5 310.5q0 234 -72.5 344.5t-214.5 110.5q-79 0 -134 -28t-86 -84 t-44.5 -129.5t-13.5 -174.5zM311 1223l351 299l100 -170l-416 -189z" />
<glyph unicode="&#xf4;" horiz-adv-x="1073" d="M78 500q0 245 122 384.5t332 139.5q148 0 254.5 -71t157.5 -190t51 -274q0 -238 -127 -376t-331 -138q-214 0 -336.5 138t-122.5 387zM215 1210l320 301l319 -301l-43 -49l-276 172l-277 -172zM254 520q0 -239 66.5 -348t220.5 -109q137 0 207.5 107.5t70.5 310.5 q0 234 -72.5 344.5t-214.5 110.5q-79 0 -134 -28t-86 -84t-44.5 -129.5t-13.5 -174.5z" />
<glyph unicode="&#xf5;" horiz-adv-x="1073" d="M78 500q0 245 122 384.5t332 139.5q148 0 254.5 -71t157.5 -190t51 -274q0 -238 -127 -376t-331 -138q-214 0 -336.5 138t-122.5 387zM227 1212q21 92 67 150.5t118 58.5q54 0 132.5 -31.5t121.5 -31.5q91 0 141 82l53 -23q-26 -86 -75 -142t-119 -56q-55 0 -135.5 29.5 t-118.5 29.5q-52 0 -81.5 -20.5t-56.5 -65.5zM254 520q0 -239 66.5 -348t220.5 -109q137 0 207.5 107.5t70.5 310.5q0 234 -72.5 344.5t-214.5 110.5q-79 0 -134 -28t-86 -84t-44.5 -129.5t-13.5 -174.5z" />
<glyph unicode="&#xf6;" horiz-adv-x="1073" d="M78 500q0 245 122 384.5t332 139.5q148 0 254.5 -71t157.5 -190t51 -274q0 -238 -127 -376t-331 -138q-214 0 -336.5 138t-122.5 387zM207 1300q0 50 33.5 83.5t83.5 33.5q49 0 82.5 -33.5t33.5 -83.5t-33 -83t-83 -33t-83.5 33.5t-33.5 82.5zM254 520q0 -239 66.5 -348 t220.5 -109q137 0 207.5 107.5t70.5 310.5q0 234 -72.5 344.5t-214.5 110.5q-79 0 -134 -28t-86 -84t-44.5 -129.5t-13.5 -174.5zM635 1300q0 50 33.5 83.5t83.5 33.5q49 0 82.5 -33.5t33.5 -83.5t-33 -83t-83 -33t-83.5 33.5t-33.5 82.5z" />
<glyph unicode="&#xf7;" horiz-adv-x="1239" d="M115 502v96h1009v-96h-1009zM492 109q0 54 37.5 93.5t91.5 39.5q53 0 91 -38t38 -91q0 -58 -38 -97t-91 -39q-54 0 -91.5 37.5t-37.5 94.5zM492 975q0 56 37.5 94.5t91.5 38.5q53 0 91 -37.5t38 -91.5q0 -57 -38 -96t-91 -39q-54 0 -91.5 38t-37.5 93z" />
<glyph unicode="&#xf8;" horiz-adv-x="1073" d="M78 500q0 242 126 383t328 141q127 0 238 -63l104 172l62 -37l-107 -178q81 -71 123.5 -182.5t42.5 -246.5q0 -237 -127.5 -375.5t-330.5 -138.5q-119 0 -240 62l-107 -178l-55 35l109 182q-166 144 -166 424zM254 520q0 -207 57 -332l404 678q-76 70 -183 70 q-79 0 -134 -28t-86 -84t-44.5 -129.5t-13.5 -174.5zM354 129q66 -66 187 -66q137 0 207.5 107.5t70.5 310.5q0 188 -61 322z" />
<glyph unicode="&#xf9;" horiz-adv-x="1179" d="M51 891v51l268 78h37v-744q0 -94 41 -133t125 -39q88 0 147.5 36t137.5 114v457q0 77 -13 114t-41.5 50.5t-88.5 15.5v51l268 78h37v-746q0 -75 13 -111.5t43 -51t93 -17.5v-51l-231 -70h-25q-32 86 -45 193q-88 -94 -168 -142.5t-184 -48.5q-123 0 -196.5 67.5 t-73.5 199.5v469q0 77 -13.5 114t-42 50.5t-88.5 15.5zM332 1352l98 170l352 -299l-34 -60z" />
<glyph unicode="&#xfa;" horiz-adv-x="1179" d="M51 891v51l268 78h37v-744q0 -94 41 -133t125 -39q88 0 147.5 36t137.5 114v457q0 77 -13 114t-41.5 50.5t-88.5 15.5v51l268 78h37v-746q0 -75 13 -111.5t43 -51t93 -17.5v-51l-231 -70h-25q-32 86 -45 193q-88 -94 -168 -142.5t-184 -48.5q-123 0 -196.5 67.5 t-73.5 199.5v469q0 77 -13.5 114t-42 50.5t-88.5 15.5zM358 1223l351 299l100 -170l-416 -189z" />
<glyph unicode="&#xfb;" horiz-adv-x="1179" d="M51 891v51l268 78h37v-744q0 -94 41 -133t125 -39q88 0 147.5 36t137.5 114v457q0 77 -13 114t-41.5 50.5t-88.5 15.5v51l268 78h37v-746q0 -75 13 -111.5t43 -51t93 -17.5v-51l-231 -70h-25q-32 86 -45 193q-88 -94 -168 -142.5t-184 -48.5q-123 0 -196.5 67.5 t-73.5 199.5v469q0 77 -13.5 114t-42 50.5t-88.5 15.5zM262 1210l320 301l319 -301l-43 -49l-276 172l-277 -172z" />
<glyph unicode="&#xfc;" horiz-adv-x="1179" d="M51 891v51l268 78h37v-744q0 -94 41 -133t125 -39q88 0 147.5 36t137.5 114v457q0 77 -13 114t-41.5 50.5t-88.5 15.5v51l268 78h37v-746q0 -75 13 -111.5t43 -51t93 -17.5v-51l-231 -70h-25q-32 86 -45 193q-88 -94 -168 -142.5t-184 -48.5q-123 0 -196.5 67.5 t-73.5 199.5v469q0 77 -13.5 114t-42 50.5t-88.5 15.5zM254 1300q0 50 34 83.5t83 33.5t82.5 -33.5t33.5 -83.5t-33.5 -83t-82.5 -33q-50 0 -83.5 33.5t-33.5 82.5zM682 1300q0 50 34 83.5t83 33.5t82.5 -33.5t33.5 -83.5t-33.5 -83t-82.5 -33q-50 0 -83.5 33.5t-33.5 82.5z " />
<glyph unicode="&#xfd;" horiz-adv-x="1034" d="M10 936v57h430v-57q-72 -4 -101.5 -20.5t-29.5 -49.5q0 -12 15 -59l147 -414q49 -134 76 -289h8q17 61 78 246l147 457q15 43 15 65q0 29 -29.5 44.5t-101.5 19.5v57h360v-57q-60 -7 -91 -38.5t-59 -109.5l-286 -825q-62 -179 -145.5 -273t-217.5 -124l-45 131 q51 14 86 27t74 36.5t66.5 54t54 79t45.5 112.5l-78 -12q-55 210 -104 348l-164 446q-28 77 -59 108t-91 40zM330 1223l350 299l100 -170l-415 -189z" />
<glyph unicode="&#xfe;" horiz-adv-x="1130" d="M35 1370v55l268 58h27q22 -71 22 -197v-436q156 168 328 168t271.5 -128.5t99.5 -375.5q0 -252 -103 -393t-289 -141q-174 0 -307 133v-310q0 -81 33 -111t127 -36v-57h-465v57q84 8 113.5 36.5t29.5 112.5v1385q0 75 -15 112.5t-45.5 51t-94.5 16.5zM352 225 q45 -45 74.5 -69t81.5 -45t113 -21q88 0 142 38t82.5 133t28.5 257q0 209 -58 294t-187 85q-82 0 -158 -44.5t-119 -98.5v-529z" />
<glyph unicode="&#xff;" horiz-adv-x="1034" d="M10 936v57h430v-57q-72 -4 -101.5 -20.5t-29.5 -49.5q0 -12 15 -59l147 -414q49 -134 76 -289h8q17 61 78 246l147 457q15 43 15 65q0 29 -29.5 44.5t-101.5 19.5v57h360v-57q-60 -7 -91 -38.5t-59 -109.5l-286 -825q-62 -179 -145.5 -273t-217.5 -124l-45 131 q51 14 86 27t74 36.5t66.5 54t54 79t45.5 112.5l-78 -12q-55 210 -104 348l-164 446q-28 77 -59 108t-91 40zM223 1300q0 50 33.5 83.5t83.5 33.5t83.5 -33.5t33.5 -83.5q0 -49 -33.5 -82.5t-83.5 -33.5t-83.5 33.5t-33.5 82.5zM651 1300q0 50 33.5 83.5t83.5 33.5 t83.5 -33.5t33.5 -83.5q0 -49 -33.5 -82.5t-83.5 -33.5t-83.5 33.5t-33.5 82.5z" />
<glyph unicode="&#x152;" horiz-adv-x="1880" d="M94 698q0 178 55 314t155 219.5t231.5 125.5t291.5 42h930l21 -295h-64q-37 124 -76 165.5t-131 41.5h-354v-537h203q103 0 142.5 30t45.5 116h60v-377h-60q-6 83 -45.5 114t-140.5 31h-205v-600h356q125 0 169.5 47t56.5 191h67v-326h-975q-185 0 -326.5 52 t-229.5 146.5t-132.5 220t-44.5 279.5zM283 674q0 -136 25 -238t69 -167t111 -105t143.5 -56t175.5 -16h149v1223h-153q-93 0 -170 -21t-143 -68.5t-111 -120.5t-70.5 -182t-25.5 -249z" />
<glyph unicode="&#x153;" horiz-adv-x="1722" d="M78 500q0 242 126 383t328 141q117 0 215 -56t156 -153q56 102 148 156.5t200 54.5q188 0 293 -126.5t105 -356.5v-49h-654q0 -223 81 -314.5t253 -91.5q64 0 138 22.5t130 57.5l33 -57q-174 -134 -350 -134q-119 0 -219 55.5t-154 151.5q-65 -98 -162 -153.5t-208 -55.5 q-205 0 -332 141t-127 384zM254 520q0 -239 66.5 -348t220.5 -109q137 0 207.5 107.5t70.5 310.5q0 234 -72.5 344.5t-214.5 110.5q-79 0 -134 -28t-86 -84t-44.5 -129.5t-13.5 -174.5zM997 582h482q0 193 -54 275.5t-178 82.5q-115 0 -176.5 -81t-73.5 -277z" />
<glyph unicode="&#x178;" horiz-adv-x="1216" d="M35 1339v60h463v-60q-109 -6 -109 -67q0 -31 31 -98l231 -484h8l234 488q27 58 27 90q0 61 -121 71v60h383v-60q-62 -9 -103 -47.5t-94 -146.5l-283 -576v-348q0 -89 36 -123.5t139 -38.5v-59h-519v59q103 4 138.5 38.5t35.5 123.5v336l-307 610q-48 93 -88 128t-102 44z M305 1606q0 51 33.5 83.5t83.5 32.5q51 0 85 -32.5t34 -83.5t-34 -84t-85 -33q-50 0 -83.5 33t-33.5 84zM733 1606q0 51 34 83.5t85 32.5q50 0 83.5 -32.5t33.5 -83.5t-33.5 -84t-83.5 -33q-51 0 -85 33t-34 84z" />
<glyph unicode="&#x2c6;" horiz-adv-x="958" d="M160 1210l319 301l320 -301l-43 -49l-277 172l-276 -172z" />
<glyph unicode="&#x2dc;" horiz-adv-x="954" d="M162 1212q21 92 66.5 150.5t117.5 58.5q54 0 132.5 -31.5t121.5 -31.5q91 0 141 82l54 -23q-26 -85 -75.5 -141.5t-119.5 -56.5q-55 0 -135.5 29.5t-118.5 29.5q-52 0 -81 -20t-56 -66z" />
<glyph unicode="&#x2000;" horiz-adv-x="939" />
<glyph unicode="&#x2001;" horiz-adv-x="1878" />
<glyph unicode="&#x2002;" horiz-adv-x="939" />
<glyph unicode="&#x2003;" horiz-adv-x="1878" />
<glyph unicode="&#x2004;" horiz-adv-x="626" />
<glyph unicode="&#x2005;" horiz-adv-x="469" />
<glyph unicode="&#x2006;" horiz-adv-x="313" />
<glyph unicode="&#x2007;" horiz-adv-x="313" />
<glyph unicode="&#x2008;" horiz-adv-x="234" />
<glyph unicode="&#x2009;" horiz-adv-x="375" />
<glyph unicode="&#x200a;" horiz-adv-x="104" />
<glyph unicode="&#x2010;" horiz-adv-x="620" d="M115 481v133h391v-133h-391z" />
<glyph unicode="&#x2011;" horiz-adv-x="620" d="M115 481v133h391v-133h-391z" />
<glyph unicode="&#x2012;" horiz-adv-x="620" d="M115 481v133h391v-133h-391z" />
<glyph unicode="&#x2013;" horiz-adv-x="1189" d="M115 516v92h960v-92h-960z" />
<glyph unicode="&#x2014;" horiz-adv-x="1648" d="M115 516v92h1419v-92h-1419z" />
<glyph unicode="&#x2018;" horiz-adv-x="528" d="M113 1094q0 116 71 207t195 126l43 -57q-162 -63 -162 -162q0 -23 14.5 -35t44.5 -22q93 -33 93 -119q0 -58 -40.5 -97.5t-101.5 -39.5q-69 0 -113 55.5t-44 143.5z" />
<glyph unicode="&#x2019;" horiz-adv-x="528" d="M104 954q162 63 162 162q0 23 -14.5 35.5t-44.5 22.5q-92 33 -92 118q0 58 40 98t101 40q69 0 113.5 -55.5t44.5 -143.5q0 -116 -71.5 -207.5t-195.5 -126.5z" />
<glyph unicode="&#x201a;" horiz-adv-x="528" d="M104 -209q162 63 162 162q0 23 -14.5 35t-44.5 22q-92 33 -92 119q0 58 40 97.5t101 39.5q69 0 113.5 -55.5t44.5 -142.5q0 -116 -71.5 -207.5t-195.5 -126.5z" />
<glyph unicode="&#x201c;" horiz-adv-x="954" d="M113 1094q0 116 71 207t195 126l43 -57q-162 -63 -162 -162q0 -23 14.5 -35t44.5 -22q93 -33 93 -119q0 -58 -40.5 -97.5t-101.5 -39.5q-69 0 -113 55.5t-44 143.5zM541 1094q0 116 71 207t195 126l43 -57q-162 -63 -162 -162q0 -23 14.5 -34.5t45.5 -22.5 q92 -33 92 -119q0 -58 -40.5 -97.5t-101.5 -39.5q-69 0 -113 55.5t-44 143.5z" />
<glyph unicode="&#x201d;" horiz-adv-x="954" d="M102 952q162 63 162 162q0 23 -14.5 35t-44.5 22q-92 33 -92 119q0 58 40 97.5t101 39.5q69 0 113.5 -55.5t44.5 -142.5q0 -116 -71.5 -207.5t-195.5 -126.5zM530 952q162 63 162 162q0 23 -14.5 35t-44.5 22q-92 33 -92 119q0 58 40 97.5t101 39.5q69 0 113.5 -55.5 t44.5 -142.5q0 -116 -71.5 -207.5t-195.5 -126.5z" />
<glyph unicode="&#x201e;" horiz-adv-x="954" d="M102 -209q162 63 162 162q0 23 -14.5 35t-44.5 22q-92 33 -92 119q0 58 40 97.5t101 39.5q69 0 113.5 -55.5t44.5 -142.5q0 -116 -71.5 -207.5t-195.5 -126.5zM530 -209q162 63 162 162q0 23 -14.5 35t-44.5 22q-92 33 -92 119q0 58 40 97.5t101 39.5q69 0 113.5 -55.5 t44.5 -142.5q0 -116 -71.5 -207.5t-195.5 -126.5z" />
<glyph unicode="&#x2022;" horiz-adv-x="1058" d="M180 680q0 148 101.5 252t246.5 104t248 -104t103 -252t-103 -252t-248 -104t-246.5 104t-101.5 252z" />
<glyph unicode="&#x2026;" horiz-adv-x="1544" d="M152 115q0 60 39.5 101.5t99.5 41.5t99.5 -41.5t39.5 -101.5q0 -61 -39.5 -102.5t-99.5 -41.5t-99.5 41.5t-39.5 102.5zM633 115q0 60 39.5 101.5t99.5 41.5t99.5 -41.5t39.5 -101.5q0 -61 -39.5 -102.5t-99.5 -41.5t-99.5 41.5t-39.5 102.5zM1114 115q0 60 39.5 101.5 t99.5 41.5t100 -41.5t40 -101.5t-40 -102t-100 -42t-99.5 41.5t-39.5 102.5z" />
<glyph unicode="&#x202f;" horiz-adv-x="375" />
<glyph unicode="&#x2039;" horiz-adv-x="614" d="M115 494l338 421l65 -59l-231 -362l231 -363l-65 -59z" />
<glyph unicode="&#x203a;" horiz-adv-x="614" d="M96 131l232 363l-232 362l66 59l338 -421l-338 -422z" />
<glyph unicode="&#x205f;" horiz-adv-x="469" />
<glyph unicode="&#x20ac;" horiz-adv-x="1259" d="M49 518v78h180q-2 27 -2 92q0 61 2 90h-180v78h191q38 269 187 418t372 149q145 0 231 -23t144 -67v-223h-123q-31 126 -84.5 177.5t-175.5 51.5q-159 0 -248 -113.5t-109 -369.5h541v-78h-547q0 -139 2 -182h545v-78h-541q12 -131 42 -221t79.5 -141.5t111.5 -73 t146 -21.5q121 0 177.5 50t80.5 172h113v-209q-133 -97 -371 -97q-253 0 -396 141t-179 400h-189z" />
<glyph unicode="&#x2122;" horiz-adv-x="2111" d="M106 1110v289h707l16 -289h-59q-25 132 -63 173.5t-132 41.5h-43v-510q0 -91 29.5 -124.5t126.5 -37.5v-55h-434v55q97 4 126.5 37.5t29.5 124.5v510h-54q-56 0 -88.5 -9t-54 -35.5t-31 -64.5t-16.5 -106h-60zM930 598v51q67 3 93.5 33t33.5 125l28 405q5 64 -17.5 93.5 t-90.5 35.5v58h274l158 -457q37 -109 51 -188h10q19 79 56 186l164 459h256v-60q-61 -6 -85 -28t-24 -64q0 -29 2 -45l31 -391q7 -91 37 -125t98 -39v-49h-367v49q66 3 91.5 26.5t25.5 94.5q0 12 -2 41l-16 209q-6 80 -6 139v98h-11q-43 -130 -63 -184l-176 -473h-86 l-185 549q-20 59 -34 108h-11l-14 -188l-16 -258q-5 -88 18.5 -122t95.5 -38v-51h-319z" />
<glyph unicode="&#x25fc;" horiz-adv-x="993" d="M0 0v993h993v-993h-993z" />
<glyph unicode="&#xfb01;" horiz-adv-x="1155" d="M68 0v57q84 8 113.5 37t29.5 113v686h-129v55l129 47v140q0 160 98 254t266 94q145 0 238 -33v-176h-125q-8 55 -42 88t-89 33q-186 0 -186 -258v-144h454l99 27h26v-813q0 -85 28 -113.5t116 -36.5v-57h-441v57q83 6 109 34t26 116v506q0 107 -28.5 143.5t-118.5 36.5 h-268v-686q0 -85 25.5 -114.5t107.5 -35.5v-57h-438z" />
<glyph unicode="&#xfb02;" horiz-adv-x="1163" d="M68 0v57q84 8 113.5 37t29.5 113v686h-129v55l129 47v133q0 166 104.5 260.5t288.5 94.5q142 0 246 -58l51 58h49v-1270q0 -87 30.5 -117.5t121.5 -38.5v-57h-465v57q89 8 120 37t31 113v983q0 205 -202 205q-113 0 -164 -64.5t-51 -200.5v-137h245l-26 -100h-217v-686 q0 -85 25.5 -114.5t107.5 -35.5v-57h-438z" />
<glyph unicode="&#xfb03;" horiz-adv-x="1732" d="M68 0v57q84 8 113.5 37t29.5 113v686h-129v55l129 47v99q0 161 102 254.5t281 93.5q79 0 150.5 -26.5t113.5 -69.5q47 64 123.5 100.5t171.5 36.5q145 0 238 -33v-176h-125q-8 55 -42 88t-89 33q-187 0 -187 -258v-144h455l98 27h27v-813q0 -85 27.5 -113.5t115.5 -36.5 v-57h-440v57q83 6 109 34t26 116v506q0 80 -14 117t-46.5 50t-101.5 13h-254v-686q0 -85 25.5 -114.5t107.5 -35.5v-57h-430v57q83 6 109 34t26 116v686h-415v-686q0 -85 25.5 -114.5t107.5 -35.5v-57h-438zM371 993h417v148q0 63 -16.5 107t-47.5 66t-64.5 31t-77.5 9 q-109 0 -160 -64t-51 -194v-103z" />
<glyph unicode="&#xfb04;" horiz-adv-x="1740" d="M68 0v57q84 8 113.5 37t29.5 113v686h-129v55l129 47v99q0 161 102 254.5t281 93.5q76 0 145.5 -25t112.5 -67q54 61 140 97t190 36q141 0 245 -58l58 58h43v-1270q0 -87 30 -117.5t121 -38.5v-57h-465v57q89 8 120.5 37t31.5 113v983q0 205 -203 205q-113 0 -164 -64.5 t-51 -200.5v-137h246l-27 -100h-217v-686q0 -85 25.5 -114.5t107.5 -35.5v-57h-430v57q83 6 109 34t26 116v686h-415v-686q0 -85 25.5 -114.5t107.5 -35.5v-57h-438zM371 993h417v148q0 63 -16.5 107t-47.5 66t-64.5 31t-77.5 9q-109 0 -160 -64t-51 -194v-103z" />
</font>
</defs>
</svg>
