<?xml version="1.0" standalone="no"?>
<!DOCTYPE svg PUBLIC "-//W3C//DTD SVG 1.1//EN" "http://www.w3.org/Graphics/SVG/1.1/DTD/svg11.dtd" >
<svg xmlns="http://www.w3.org/2000/svg">
<metadata></metadata>
<defs>
<font id="meta_serif_probook" horiz-adv-x="1345" >
<font-face units-per-em="2048" ascent="1563" descent="-485" />
<missing-glyph horiz-adv-x="460" />
<glyph horiz-adv-x="0" />
<glyph horiz-adv-x="0" />
<glyph horiz-adv-x="682" />
<glyph unicode="&#xd;" horiz-adv-x="460" />
<glyph unicode=" "  horiz-adv-x="460" />
<glyph unicode="&#x09;" horiz-adv-x="460" />
<glyph unicode="&#xa0;" horiz-adv-x="460" />
<glyph unicode="!" horiz-adv-x="595" d="M164 123q0 56 38 94.5t95 38.5q56 0 95.5 -39t39.5 -94q0 -58 -40.5 -98.5t-96.5 -40.5q-55 0 -93 40t-38 99zM176 1407l236 35l-64 -1012h-108z" />
<glyph unicode="&#x22;" horiz-adv-x="888" d="M174 928v524h174v-524h-174zM541 928v524h174v-524h-174z" />
<glyph unicode="#" horiz-adv-x="1128" d="M72 432v139h207l40 310h-188v141h209l59 428h127l-59 -428h270l60 428h127l-60 -428h193v-141h-211l-43 -310h192v-139h-211l-61 -432h-127l59 432h-270l-59 -432h-127l59 432h-186zM406 571h270l43 310h-270z" />
<glyph unicode="$" horiz-adv-x="1101" d="M82 90v254h141q20 -138 79 -201t200 -69v567l-76 25q-160 49 -238.5 137t-78.5 233q0 163 104.5 271t288.5 125v176h92v-172q215 -5 358 -105v-219h-133q-19 101 -68.5 156.5t-156.5 66.5v-510l74 -22q342 -101 342 -391q0 -184 -108 -296t-308 -132v-189h-92v182 q-242 0 -420 113zM276 1100q0 -104 50.5 -156t175.5 -92v485q-106 -9 -166 -71.5t-60 -165.5zM594 76q123 14 180 84t57 180q0 82 -25.5 133.5t-73.5 81.5t-138 59v-538z" />
<glyph unicode="%" horiz-adv-x="1824" d="M61 911q0 189 91 305.5t225 116.5q146 0 234.5 -122t88.5 -306q0 -188 -91 -299.5t-230 -111.5q-136 0 -227 113.5t-91 303.5zM229 930q0 -193 36.5 -278t115.5 -85q74 0 115 81.5t41 246.5q0 183 -42 272.5t-114 89.5q-82 0 -117 -79.5t-35 -247.5zM346 -252l997 1747 h111l-999 -1747h-109zM1124 399q0 189 91 305.5t225 116.5q146 0 234.5 -122t88.5 -306q0 -188 -91 -299.5t-230 -111.5q-136 0 -227 113.5t-91 303.5zM1292 418q0 -193 36.5 -278t115.5 -85q74 0 114.5 81.5t40.5 246.5q0 184 -41.5 273t-113.5 89q-82 0 -117 -79.5 t-35 -247.5z" />
<glyph unicode="&#x26;" horiz-adv-x="1419" d="M82 326q0 52 9.5 94t31.5 77t47.5 62.5t68.5 55.5t82.5 49t100.5 51l-62 61q-40 40 -54 54.5t-42.5 47t-39 52.5t-25 52t-19 65.5t-4.5 74.5q0 61 26 117t74 100t123 70.5t166 26.5q193 0 297.5 -81.5t104.5 -232.5q0 -125 -82 -214t-236 -167l400 -401q41 93 41 217 q0 47 -5 73.5t-22 46t-47 27t-82 9.5v71h438v-71q-35 -1 -58.5 -4t-40 -12.5t-26 -18.5t-15.5 -30t-8.5 -38.5t-6.5 -52.5q-17 -157 -93 -293l140 -139q30 -28 74 -42.5t81 -14.5v-68h-286l-123 123q-165 -146 -426 -146q-243 0 -372.5 96.5t-129.5 252.5zM295 373 q0 -58 21 -111.5t60.5 -96t104 -68t144.5 -25.5q200 0 323 112l-469 473q-52 -33 -82 -57.5t-55.5 -57.5t-36 -73.5t-10.5 -95.5zM367 1137q0 -41 11.5 -77.5t38 -73t49 -61t64.5 -65.5l64 -61q75 60 110 101t50.5 91.5t15.5 130.5q0 109 -52 165t-153 56q-93 0 -145.5 -54 t-52.5 -152z" />
<glyph unicode="'" horiz-adv-x="522" d="M174 928v524h174v-524h-174z" />
<glyph unicode="(" horiz-adv-x="681" d="M123 659q0 127 13.5 232.5t46.5 209t87 188t138.5 161.5t197.5 137l35 -71q-73 -46 -128.5 -101.5t-92 -121.5t-60.5 -134t-36 -153t-16.5 -162.5t-4.5 -179.5q0 -122 6 -217.5t26.5 -210t55.5 -200t98.5 -164t151.5 -126.5l-35 -72q-97 41 -173.5 102.5t-128.5 138.5 t-88 162.5t-56 185t-28.5 194.5t-8.5 202z" />
<glyph unicode=")" horiz-adv-x="681" d="M41 -254q74 40 130 96.5t92.5 128.5t60 147t35.5 171t16 180.5t4 194.5q0 98 -4.5 174.5t-16.5 161.5t-36 154t-60.5 136t-92 123.5t-128.5 102.5l35 71q113 -60 197.5 -137t138.5 -161.5t87 -188t46.5 -209t13.5 -232.5q0 -107 -8.5 -202t-28.5 -194.5t-56 -185 t-88 -162.5t-128.5 -138.5t-173.5 -102.5z" />
<glyph unicode="*" horiz-adv-x="944" d="M82 1137l27 84l284 -62l37 291h86l35 -291l283 60l28 -86l-258 -127l141 -261l-75 -59l-201 221l-195 -215l-73 56l139 258z" />
<glyph unicode="+" horiz-adv-x="1177" d="M113 502v108h413v428h121v-428h418v-108h-418v-432h-121v432h-413z" />
<glyph unicode="," horiz-adv-x="608" d="M113 -229q87 33 133.5 78.5t46.5 91.5q0 25 -16.5 38t-57.5 29q-86 37 -86 119q0 59 43 101t105 42q72 0 118.5 -58t46.5 -149q0 -121 -80.5 -220.5t-211.5 -135.5z" />
<glyph unicode="-" horiz-adv-x="641" d="M113 481v146h415v-146h-415z" />
<glyph unicode="." horiz-adv-x="557" d="M133 121q0 63 41.5 106t104.5 43t104 -43t41 -106q0 -64 -41 -107t-104 -43t-104.5 43.5t-41.5 106.5z" />
<glyph unicode="/" horiz-adv-x="815" d="M59 -305l533 1864h139l-532 -1864h-140z" />
<glyph unicode="0" horiz-adv-x="1130" d="M84 514q0 122 36.5 224t100.5 171t151.5 107.5t188.5 38.5q148 0 259.5 -73.5t169 -198t57.5 -279.5q0 -240 -137 -386.5t-345 -146.5q-209 0 -345 148.5t-136 394.5zM285 535q0 -235 67.5 -349t216.5 -114q131 0 204 112.5t73 311.5q0 230 -74 344t-211 114 q-147 0 -211.5 -108.5t-64.5 -310.5z" />
<glyph unicode="1" horiz-adv-x="833" d="M96 831l334 220h119v-830q0 -33 2 -53.5t10 -38.5t20 -27.5t35.5 -17t54 -10t77.5 -4.5v-70h-603v70q140 6 178.5 32.5t38.5 120.5v639q-98 -53 -239 -98z" />
<glyph unicode="2" horiz-adv-x="915" d="M49 0v94l199 150q74 56 120.5 93.5t102 90.5t86.5 97.5t52.5 100t21.5 111.5q0 93 -56.5 145t-154.5 52q-67 0 -123.5 -13t-86.5 -27t-77 -42l-55 86q168 121 373 121q185 0 280.5 -85.5t95.5 -228.5q0 -60 -20 -114.5t-52 -100t-94.5 -101t-125 -102t-166.5 -118.5 l-86 -59h573l-33 -150h-774z" />
<glyph unicode="3" horiz-adv-x="960" d="M18 -221q122 -17 205 -17q209 0 331 83.5t122 254.5q0 145 -77.5 199.5t-244.5 54.5q-22 0 -92 -4v105q74 -4 113 -4q139 0 207.5 64.5t68.5 217.5q0 90 -60 144.5t-163 54.5q-176 0 -313 -103l-64 80q189 150 400 150q180 0 284.5 -85.5t104.5 -234.5q0 -115 -69 -200 t-196 -121q139 -28 220.5 -111.5t81.5 -197.5q0 -87 -34 -160.5t-92.5 -125.5t-137 -88.5t-166.5 -53.5t-181 -17q-117 0 -225 27z" />
<glyph unicode="4" horiz-adv-x="1103" d="M49 37v86l461 944h201l-514 -930h477q3 320 80 565l106 35v-600h172v-100h-172v-365l-186 -39v404h-625z" />
<glyph unicode="5" horiz-adv-x="946" d="M43 -205q115 -31 231 -31q84 0 152 18.5t122 58t84 107t30 158.5q0 279 -263 279q-137 0 -260 -49l64 690h633l-29 -154h-492l-36 -401q96 27 174 27q191 0 300 -100t109 -275q0 -109 -48.5 -198t-129 -145t-178.5 -86t-201 -30q-83 0 -132.5 8.5t-106.5 28.5z" />
<glyph unicode="6" horiz-adv-x="1075" d="M88 530q0 154 42.5 286.5t113.5 230t171.5 176t209.5 130.5t235 87l31 -84q-129 -50 -223 -104.5t-172.5 -130.5t-127.5 -178.5t-69 -233.5q60 48 137 78t156 30q178 0 293.5 -105.5t115.5 -289.5q0 -193 -125 -323t-317 -130q-214 0 -342.5 149.5t-128.5 411.5zM287 516 q0 -446 272 -446q244 0 244 348q0 68 -13.5 118.5t-35.5 81.5t-55 49.5t-67.5 25.5t-78.5 7q-140 0 -264 -92q-2 -29 -2 -92z" />
<glyph unicode="7" horiz-adv-x="964" d="M57 872l35 154h817l-26 -131q-170 -228 -302 -549.5t-196 -654.5l-207 -53q70 302 230 640.5t340 593.5h-691z" />
<glyph unicode="8" horiz-adv-x="1103" d="M82 338q0 62 25 118.5t69 100.5t94.5 78.5t110.5 62.5q-234 122 -234 320q0 101 57.5 182.5t150.5 124.5t202 43q182 0 295 -88.5t113 -228.5q0 -191 -265 -316q51 -21 92.5 -43t86 -56t74.5 -72.5t49.5 -91.5t19.5 -114q0 -174 -133.5 -279.5t-339.5 -105.5 q-217 0 -342 103.5t-125 261.5zM274 350q0 -134 71.5 -206t207.5 -72q130 0 207.5 66t77.5 181q0 38 -9 70.5t-22 58t-40.5 50.5t-53 43t-71 40.5t-82.5 38.5t-99 42q-187 -131 -187 -312zM326 1047q0 -95 62 -155.5t224 -123.5q164 113 164 274q0 107 -56.5 167.5 t-164.5 60.5q-106 0 -167.5 -62.5t-61.5 -160.5z" />
<glyph unicode="9" horiz-adv-x="1075" d="M74 612q0 193 128.5 323t321.5 130q214 0 338.5 -143.5t124.5 -407.5q0 -158 -43 -291t-117 -231t-181 -175t-228 -127t-264 -83l-66 76q334 104 512 282q73 74 115 159t59 200q-58 -47 -135 -77t-156 -30q-178 0 -293.5 105.5t-115.5 289.5zM272 616q0 -68 13.5 -118.5 t35.5 -81.5t55 -49.5t67.5 -25.5t78.5 -7q141 0 262 90q4 74 4 119q0 227 -67.5 324.5t-196.5 97.5q-118 0 -185 -85t-67 -264z" />
<glyph unicode=":" horiz-adv-x="638" d="M174 121q0 63 41 106t104 43t104.5 -43t41.5 -106t-41.5 -106.5t-104.5 -43.5t-104 43t-41 107zM174 764q0 63 41 106t104 43t104.5 -43t41.5 -106t-41.5 -106.5t-104.5 -43.5t-104 43t-41 107z" />
<glyph unicode=";" horiz-adv-x="669" d="M154 -229q87 33 133.5 78.5t46.5 91.5q0 8 -1.5 14.5t-6 12.5t-8 9.5t-12 8t-13 7t-16.5 7.5t-17 8q-86 37 -86 119q0 59 43 101t105 42q72 0 118.5 -58t46.5 -149q0 -121 -80.5 -220.5t-211.5 -135.5zM174 764q0 63 41 106t104 43t104.5 -43t41.5 -106t-41.5 -106.5 t-104.5 -43.5t-104 43t-41 107z" />
<glyph unicode="&#x3c;" horiz-adv-x="976" d="M113 520v148l751 475v-139l-647 -402l647 -354v-133z" />
<glyph unicode="=" horiz-adv-x="1177" d="M113 354v109h952v-109h-952zM113 657v109h952v-109h-952z" />
<glyph unicode="&#x3e;" horiz-adv-x="976" d="M113 115v133l647 354l-647 402v139l751 -475v-148z" />
<glyph unicode="?" horiz-adv-x="915" d="M119 1153v184q48 36 134.5 66.5t199.5 30.5q76 0 138 -17.5t110.5 -53.5t75 -98t26.5 -145q0 -55 -17.5 -105t-38.5 -81.5t-55.5 -63t-50.5 -42.5t-41 -27q-91 -58 -124.5 -107.5t-33.5 -138.5q0 -52 17 -115h-84q-15 26 -23.5 43t-17 50.5t-8.5 70.5q0 140 116 246 q7 7 37 33t41.5 37.5t34 39t32.5 50.5t18.5 58.5t8.5 74.5q0 91 -51 143.5t-131 52.5q-162 0 -182 -186h-131zM283 123q0 59 40.5 99t98.5 40q59 0 102 -40.5t43 -98.5q0 -62 -42.5 -106t-102.5 -44q-58 0 -98.5 44t-40.5 106z" />
<glyph unicode="@" horiz-adv-x="1855" d="M92 397q0 192 65.5 357t181.5 280t279 180.5t353 65.5q360 0 576 -195t216 -520q0 -145 -43 -257.5t-115.5 -178t-160.5 -98.5t-187 -33q-126 0 -184.5 49.5t-58.5 163.5q-98 -213 -297 -213q-111 0 -173.5 74.5t-62.5 208.5q0 146 48 269.5t128 204.5t182 126t212 45 q94 0 159.5 -25.5t124.5 -77.5q-24 -79 -51 -196l-88 -359q-14 -60 -14 -100q0 -51 23.5 -70.5t76.5 -19.5q55 0 109 29t101 84.5t76 147t29 204.5q0 165 -47.5 290.5t-133 202.5t-198.5 115.5t-251 38.5q-316 0 -512.5 -215.5t-196.5 -579.5q0 -195 73.5 -346t216 -238 t333.5 -87q184 0 329 49l31 -62q-180 -71 -385 -71q-225 0 -397 88.5t-269.5 261t-97.5 407.5zM668 295q0 -170 110 -170q39 0 75.5 20t71.5 61.5t60.5 80t61.5 100.5l88 383q-13 26 -42.5 43.5t-68.5 17.5q-110 0 -192.5 -75.5t-123 -196t-40.5 -264.5z" />
<glyph unicode="A" d="M33 0v72q74 6 108 40t68 136l377 1163h182l373 -1159q16 -48 28 -76t31.5 -53t46.5 -36.5t66 -14.5v-72h-502v72q74 3 106.5 22.5t32.5 63.5q0 26 -10 61l-68 221h-471l-67 -221q-12 -44 -12 -72q0 -42 33 -57t116 -18v-72h-438zM432 539h412l-92 303q-69 227 -107 391 h-8q-95 -340 -111 -391z" />
<glyph unicode="B" horiz-adv-x="1243" d="M76 0v72q101 3 132.5 34t31.5 121v957q0 90 -31.5 121t-132.5 34v72h516q267 0 389.5 -87.5t122.5 -260.5q0 -117 -59.5 -193.5t-198.5 -111.5v-8q163 -25 246.5 -123.5t83.5 -239.5q0 -99 -39.5 -175t-109 -121t-156.5 -68t-189 -23h-606zM434 100h260q159 0 218 69 t59 230q0 108 -27 168.5t-94.5 89.5t-190.5 29h-225v-586zM434 784h211q145 0 203.5 62t58.5 194q0 149 -60.5 210t-209.5 61h-203v-527z" />
<glyph unicode="C" horiz-adv-x="1181" d="M90 694q0 348 165 545t441 197q154 0 247 -25.5t159 -71.5v-229h-144q-31 124 -88 176.5t-180 52.5q-91 0 -160 -34t-120.5 -108t-78 -199t-26.5 -300q0 -145 18.5 -253.5t52 -179t85.5 -113.5t112.5 -60.5t139.5 -17.5q121 0 182 50.5t84 170.5h133v-215 q-145 -103 -399 -103q-313 0 -468 188.5t-155 528.5z" />
<glyph unicode="D" horiz-adv-x="1372" d="M76 0v72q101 3 132.5 34t31.5 121v957q0 90 -31.5 121t-132.5 34v72h518q159 0 284 -41.5t216 -126.5t139.5 -221t48.5 -317q0 -126 -22.5 -230.5t-73.5 -193.5t-130 -150.5t-196 -96t-266 -34.5h-518zM440 104h174q120 0 201 25.5t140 90t86.5 177t27.5 283.5 q0 140 -19 246.5t-54.5 180.5t-91.5 120t-126 67t-160 21h-178v-1211z" />
<glyph unicode="E" horiz-adv-x="1157" d="M76 0v72q101 3 132.5 34t31.5 121v957q0 90 -31.5 121t-132.5 34v72h962l21 -307h-86q-35 122 -73 164.5t-124 42.5h-342v-525h191q97 0 133.5 29.5t42.5 116.5h84v-389h-84q-6 84 -42.5 114.5t-131.5 30.5h-193v-588h344q118 0 159.5 47t53.5 191h92v-338h-1007z" />
<glyph unicode="F" horiz-adv-x="1130" d="M76 0v72q101 3 132.5 34t31.5 121v957q0 90 -31.5 121t-132.5 34v72h966l25 -317h-86q-45 138 -83 177.5t-132 39.5h-332v-557h191q97 0 133.5 29t42.5 116h84v-395h-84q-6 86 -43 118.5t-131 32.5h-193v-422q0 -92 35.5 -125t144.5 -36v-72h-538z" />
<glyph unicode="G" horiz-adv-x="1318" d="M90 698q0 341 167.5 539.5t438.5 198.5q283 0 434 -105v-227h-143q-12 63 -30.5 103.5t-52.5 72t-88.5 45.5t-135.5 14q-381 0 -381 -651q0 -147 20.5 -256t67 -192t127.5 -125.5t197 -42.5q152 0 233 63v334q0 91 -34.5 122t-149.5 34v71h512v-71q-79 -3 -106 -35.5 t-27 -120.5v-387q-83 -51 -203.5 -78t-239.5 -27q-283 0 -444.5 190.5t-161.5 530.5z" />
<glyph unicode="H" horiz-adv-x="1449" d="M76 0v72q101 3 132.5 34t31.5 121v957q0 90 -31.5 121t-132.5 34v72h522v-72q-101 -3 -132.5 -34t-31.5 -121v-385h582v385q0 90 -31.5 121t-132.5 34v72h522v-72q-101 -3 -132.5 -34t-31.5 -121v-957q0 -90 31.5 -121t132.5 -34v-72h-522v72q101 3 132.5 34t31.5 121 v469h-582v-469q0 -90 31.5 -121t132.5 -34v-72h-522z" />
<glyph unicode="I" horiz-adv-x="673" d="M76 0v72q101 3 132.5 34t31.5 121v957q0 90 -31.5 121t-132.5 34v72h522v-72q-101 -3 -132.5 -34t-31.5 -121v-957q0 -90 31.5 -121t132.5 -34v-72h-522z" />
<glyph unicode="J" horiz-adv-x="694" d="M8 -225q67 34 110.5 67.5t70 66.5t40 80t17.5 93.5t4 122.5v979q0 89 -34 120.5t-140 34.5v72h542v-72q-106 -3 -140 -34.5t-34 -120.5v-965q0 -163 -36.5 -259.5t-117 -154.5t-233.5 -106z" />
<glyph unicode="K" horiz-adv-x="1273" d="M76 0v72q101 3 132.5 34t31.5 121v957q0 90 -31.5 121t-132.5 34v72h522v-72q-101 -3 -132.5 -34t-31.5 -121v-957q0 -90 31.5 -121t132.5 -34v-72h-522zM467 739l377 441q49 60 49 98q0 58 -111 61v72h435v-72q-71 -10 -122 -49.5t-157 -159.5l-295 -331l432 -627 q39 -56 73.5 -75t113.5 -25v-72h-306z" />
<glyph unicode="L" horiz-adv-x="1114" d="M76 0v72q101 3 132.5 34t31.5 121v957q0 90 -31.5 121t-132.5 34v72h532v-72q-106 -3 -140 -36t-34 -123v-1080h295q110 0 158 52t80 194h90l-31 -346h-950z" />
<glyph unicode="M" horiz-adv-x="1640" d="M25 0v72q85 3 112 34.5t35 126.5l70 951q1 18 1 33q0 21 -2 35q-4 26 -21 46t-51 29.5t-91 11.5v72h395l297 -928q35 -109 47 -237h12q13 122 48 235l278 930h397v-72q-56 -3 -90 -12.5t-51 -29.5q-17 -19 -21 -45q-2 -15 -2 -35q0 -15 1 -33l81 -951q8 -93 34.5 -125.5 t111.5 -35.5v-72h-486v72q102 1 130 33q24 26 23 87q0 13 -1 27l-59 750q-6 63 -6 200v41h-13q-17 -130 -47 -223l-307 -987h-123l-301 942q-31 96 -59 270h-13q0 -68 -12 -270l-41 -721q-2 -22 -2 -41q0 -13 1 -24q2 -28 14.5 -46.5t45.5 -27.5t91 -10v-72h-426z" />
<glyph unicode="N" horiz-adv-x="1402" d="M76 0v72q101 3 132.5 34t31.5 121v957q0 90 -31.5 121t-132.5 34v72h332l522 -856q43 -71 83 -157.5t56 -139.5h12q-24 146 -24 424v502q0 90 -31.5 121t-132.5 34v72h448v-72q-92 -3 -119.5 -34t-27.5 -121v-1184h-145l-512 836q-119 191 -172 348h-13q25 -172 25 -377 v-580q0 -90 31.5 -121t132.5 -34v-72h-465z" />
<glyph unicode="O" horiz-adv-x="1380" d="M90 711q0 344 161 534.5t435 190.5q126 0 228.5 -39.5t171.5 -107.5t115.5 -163t67.5 -202t21 -228q0 -216 -70 -378t-205 -251.5t-319 -89.5q-148 0 -264 55t-190.5 153.5t-113 232t-38.5 293.5zM299 733q0 -154 20.5 -272t66 -207.5t123.5 -136.5t187 -47 q381 0 381 608q0 329 -91.5 495t-299.5 166q-200 0 -293.5 -151t-93.5 -455z" />
<glyph unicode="P" horiz-adv-x="1181" d="M76 0v72q101 3 132.5 34t31.5 121v957q0 90 -31.5 121t-132.5 34v72h516q528 0 528 -405q0 -199 -122.5 -308.5t-352.5 -109.5h-211v-355q0 -92 35.5 -125t144.5 -36v-72h-538zM434 686h199q151 0 215.5 69t64.5 228q0 94 -13.5 153t-49.5 100t-97 58t-157 17h-162v-625z " />
<glyph unicode="Q" horiz-adv-x="1384" d="M90 711q0 344 161 534.5t435 190.5q126 0 228.5 -39.5t171.5 -107.5t115.5 -163t67.5 -202t21 -228q0 -276 -113 -457t-317 -219q63 -15 137.5 -47.5t137 -54.5t125.5 -22q82 0 118 8l-55 -140q-35 -20 -119 -20q-51 0 -103 23.5t-99.5 58t-97.5 69t-116 60t-137 27.5 q-177 6 -305 102t-192 257t-64 370zM299 733q0 -154 20.5 -272t66 -207.5t123.5 -136.5t187 -47q381 0 381 608q0 329 -91.5 495t-299.5 166q-200 0 -293.5 -151t-93.5 -455z" />
<glyph unicode="R" horiz-adv-x="1251" d="M76 0v72q101 3 132.5 34t31.5 121v957q0 90 -31.5 121t-132.5 34v72h508q243 0 376.5 -89.5t133.5 -291.5q0 -169 -119 -262t-311 -96v-8q125 -31 206 -136q19 -24 46.5 -66.5t47 -74.5t60.5 -101t57 -96q19 -32 32 -49.5t33.5 -35t47.5 -25t66 -8.5v-72h-304 q-17 33 -52.5 104t-55.5 109t-49 93t-54.5 99t-50.5 84q-62 97 -116 136.5t-144 42.5v-445q0 -83 33 -115.5t127 -35.5v-72h-518zM434 741h152q145 0 223 65.5t78 221.5q0 162 -66.5 222.5t-224.5 60.5h-162v-570z" />
<glyph unicode="S" horiz-adv-x="1101" d="M82 90v254h141q11 -72 29 -119t52.5 -83t89.5 -52t136 -16q157 0 229 71.5t72 194.5q0 65 -14 109.5t-48.5 76.5t-80 53t-121.5 44l-141 43q-160 49 -238.5 137t-78.5 233q0 178 123 289t333 111q244 0 387 -105v-219h-133q-10 55 -27 94t-48 70.5t-82 47t-123 15.5 q-122 0 -192.5 -63.5t-70.5 -175.5q0 -109 54.5 -160.5t193.5 -93.5l144 -43q342 -101 342 -391q0 -205 -132 -320t-376 -115q-242 0 -420 113z" />
<glyph unicode="T" horiz-adv-x="1128" d="M41 1090l16 321h1014l16 -321h-96q-26 139 -55 180t-117 41h-157v-1084q0 -93 38 -122.5t146 -32.5v-72h-563v72q108 3 146 32.5t38 122.5v1084h-158q-88 0 -117 -41t-55 -180h-96z" />
<glyph unicode="U" horiz-adv-x="1400" d="M57 1339v72h523v-72q-108 -3 -141 -34t-33 -121v-695q0 -106 16 -176.5t54.5 -119.5t104 -71t164.5 -22q169 0 241.5 83.5t72.5 275.5v725q0 90 -33 121t-141 34v72h458v-72q-92 -3 -119.5 -34t-27.5 -121v-725q0 -249 -121 -365.5t-358 -116.5q-253 0 -379.5 118.5 t-126.5 348.5v740q0 89 -30 120.5t-124 34.5z" />
<glyph unicode="V" horiz-adv-x="1337" d="M33 1339v72h502v-72q-75 -3 -107.5 -22t-32.5 -64q0 -15 11 -61l182 -621q49 -172 102 -401h12q41 169 111 401l186 621q13 47 13 74q0 40 -32.5 55t-109.5 18v72h435v-72q-76 -11 -110 -43t-67 -133l-370 -1163h-187l-366 1159q-32 98 -64.5 135.5t-107.5 44.5z" />
<glyph unicode="W" horiz-adv-x="1837" d="M33 1339v72h493v-72q-77 -6 -110 -25.5t-33 -64.5q0 -27 6 -57l135 -610q34 -151 56 -361h12q38 197 78 361l198 829h154l207 -831q38 -151 82 -359h12q28 181 66 359l124 567q11 56 11 84q0 57 -34 80t-116 28v72h428v-72q-71 -10 -105.5 -53.5t-58.5 -144.5l-262 -1141 h-188l-223 897q-22 85 -43 248h-9q-22 -145 -47 -248l-211 -897h-196l-262 1159q-22 100 -54 136.5t-110 43.5z" />
<glyph unicode="X" horiz-adv-x="1294" d="M49 0v72q64 8 108 45.5t103 144.5l272 481l-262 445q-51 87 -89.5 115t-102.5 36v72h489v-72q-61 -3 -87.5 -17.5t-26.5 -43.5q0 -31 34 -94l181 -322h8l170 320q31 57 31 92q0 31 -26 46.5t-83 18.5v72h397v-72q-62 -8 -103 -41.5t-91 -121.5l-236 -410l305 -526 q53 -91 97.5 -125.5t107.5 -42.5v-72h-500v72q113 3 113 63q0 30 -33 94l-225 406h-8l-215 -410q-29 -54 -29 -88t29.5 -48t91.5 -17v-72h-420z" />
<glyph unicode="Y" horiz-adv-x="1216" d="M23 1339v72h487v-72q-58 -1 -83.5 -15.5t-25.5 -45.5q0 -30 29 -96l223 -475h9l221 479q24 56 24 88q0 34 -29.5 48t-91.5 17v72h408v-72q-64 -8 -104 -44t-95 -146l-280 -571v-351q0 -89 34 -120.5t140 -34.5v-72h-543v72q106 3 140 34.5t34 120.5v338l-305 606 q-47 94 -87.5 127t-104.5 41z" />
<glyph unicode="Z" horiz-adv-x="1062" d="M49 0v115l766 1196h-381q-100 0 -153.5 -54.5t-85.5 -177.5h-91l29 332h885v-115l-766 -1196h403q116 0 171.5 55.5t86.5 196.5h91l-31 -352h-924z" />
<glyph unicode="[" horiz-adv-x="614" d="M184 -317v1900h379v-86h-217v-1728h217v-86h-379z" />
<glyph unicode="\" horiz-adv-x="815" d="M96 1559h140l532 -1864h-139z" />
<glyph unicode="]" horiz-adv-x="614" d="M51 -231h217v1728h-217v86h379v-1900h-379v86z" />
<glyph unicode="^" horiz-adv-x="1236" d="M133 635l416 815h139l416 -815h-154l-338 668l-327 -668h-152z" />
<glyph unicode="_" horiz-adv-x="1015" d="M-4 -154h1024v-102h-1024v102z" />
<glyph unicode="`" horiz-adv-x="802" d="M164 1356l108 186l367 -313l-41 -70z" />
<glyph unicode="a" horiz-adv-x="1048" d="M74 262q0 90 38 155t110 102.5t167.5 55t220.5 17.5q45 0 72 -2v90q0 137 -40 195.5t-146 58.5q-118 0 -171 -50.5t-67 -133.5h-129v182q75 41 181 72.5t202 31.5q356 0 356 -344q0 -15 -4 -165t-4 -259q0 -116 26.5 -149.5t125.5 -40.5v-68q-57 -22 -142 -22 q-101 0 -139.5 36t-46.5 109q-15 -26 -38 -52t-57 -52.5t-83 -43t-103 -16.5q-150 0 -239.5 77t-89.5 216zM272 276q0 -106 42 -148t135 -42q68 0 126.5 42t96.5 108l6 256q-58 4 -72 4q-175 0 -254.5 -51.5t-79.5 -168.5z" />
<glyph unicode="b" horiz-adv-x="1136" d="M23 1370v66l286 59h31q25 -81 25 -203v-415q145 153 315 153q178 0 280.5 -130t102.5 -380q0 -255 -106 -397.5t-298 -142.5q-181 0 -321 157q-30 -94 -68 -137h-118q26 71 26 240v956q0 76 -14.5 112t-45 48t-95.5 14zM365 221q61 -60 116.5 -89.5t139.5 -29.5t135 37.5 t78.5 131t27.5 253.5q0 206 -55 289.5t-178 83.5q-80 0 -152.5 -39t-111.5 -88v-549z" />
<glyph unicode="c" horiz-adv-x="948" d="M74 487q0 257 131 400t338 143q190 0 307 -80v-188h-139q-16 94 -53 134t-119 40q-263 0 -263 -408q0 -239 69 -338.5t216 -99.5q86 0 142 25.5t131 87.5l53 -58q-148 -168 -355 -168q-96 0 -178 32t-145 93.5t-99 160.5t-36 224z" />
<glyph unicode="d" horiz-adv-x="1161" d="M74 494q0 242 113 389t307 147q164 0 278 -123v289q0 109 -30.5 140t-125.5 34v66l299 59h43v-1212q0 -58 6 -90t26.5 -51.5t48.5 -25t81 -7.5v-62l-260 -74h-31q-38 78 -45 179q-60 -77 -143.5 -124.5t-163.5 -47.5q-82 0 -152 28.5t-127.5 87.5t-90.5 161t-33 237z M274 518q0 -233 56 -328.5t180 -95.5q127 0 262 148v555q-45 56 -112.5 86t-135.5 30q-62 0 -105.5 -17.5t-77.5 -60t-50.5 -121.5t-16.5 -196z" />
<glyph unicode="e" horiz-adv-x="989" d="M74 510q0 245 123 386.5t317 141.5t302 -128t108 -361v-55h-654q3 -217 79.5 -305.5t242.5 -88.5q64 0 140 24.5t132 61.5l43 -69q-181 -140 -364 -140q-220 0 -344.5 141t-124.5 392zM272 594h457q0 187 -51 266.5t-168 79.5q-110 0 -169 -78.5t-69 -267.5z" />
<glyph unicode="f" horiz-adv-x="647" d="M59 0v70q90 6 117 31.5t27 111.5v680h-129v65l129 48v192q0 139 89 218t236 79q57 0 119.5 -11t100.5 -26l-19 -170h-125q-16 107 -94 107q-123 0 -123 -195v-194h248l-29 -113h-217v-680q0 -59 12.5 -86t50 -40.5t119.5 -16.5v-70h-512z" />
<glyph unicode="g" horiz-adv-x="1071" d="M90 -152q0 50 29 83t76 61l86 4q-23 -41 -23 -107q0 -90 58 -134t200 -44q287 0 287 191q0 39 -8 64t-27 43.5t-57.5 28t-91 14.5t-136.5 7q-76 2 -182 13q-64 7 -98.5 52.5t-34.5 106.5q0 58 51 103t139 74q-111 26 -177 106.5t-66 183.5q0 151 104.5 243.5t280.5 92.5 q84 0 159 -22q109 -33 154 -33q77 0 166 63l70 -133q-72 -37 -144 -37q-61 0 -143 39q123 -92 123 -217q0 -54 -19 -104t-61 -96t-119.5 -76t-183.5 -35q-14 -2 -45 -2q-56 -15 -90.5 -44.5t-34.5 -62.5q0 -51 74 -51h188q190 0 283.5 -63t93.5 -219q0 -148 -128 -238 t-323 -90q-203 0 -316.5 68t-113.5 167zM309 707q0 -232 189 -232q93 0 139.5 54.5t46.5 170.5q0 123 -45.5 180.5t-142.5 57.5q-187 0 -187 -231z" />
<glyph unicode="h" horiz-adv-x="1193" d="M47 1370v66l287 59h31q24 -79 24 -203v-430q82 82 158.5 125t183.5 43q126 0 201.5 -71.5t75.5 -202.5v-543q0 -86 25 -111.5t108 -31.5v-70h-463v70q66 3 95.5 15t38.5 36t9 78v520q0 89 -37 128.5t-112 39.5q-87 0 -151.5 -32t-131.5 -97v-559q0 -54 9 -78t38.5 -36 t95.5 -15v-70h-473v70q90 6 117 31.5t27 111.5v983q0 109 -30.5 140t-125.5 34z" />
<glyph unicode="i" horiz-adv-x="585" d="M53 889v61l305 82h31v-819q0 -89 24 -114t119 -29v-70h-473v70q90 6 117 31.5t27 111.5v502q0 58 -6 90t-24.5 51.5t-44.5 25t-75 7.5zM156 1319q0 54 36.5 91.5t90.5 37.5t90.5 -37.5t36.5 -91.5t-36.5 -91.5t-90.5 -37.5t-90.5 37.5t-36.5 91.5z" />
<glyph unicode="j" horiz-adv-x="550" d="M39 -340q93 42 128.5 123.5t35.5 241.5v690q0 58 -6 90t-24.5 51.5t-44.5 25t-75 7.5v61l305 82h31v-1009q0 -64 -7.5 -116t-19 -90t-34 -71t-42 -53.5t-55.5 -43.5t-61.5 -36t-71.5 -35zM156 1319q0 54 36.5 91.5t90.5 37.5t90.5 -37.5t36.5 -91.5t-36.5 -91.5 t-90.5 -37.5t-90.5 37.5t-36.5 91.5z" />
<glyph unicode="k" horiz-adv-x="1087" d="M47 1370v66l287 59h31q24 -74 24 -203v-1093q0 -54 9 -78t38.5 -36t95.5 -15v-70h-473v70q90 6 117 31.5t27 111.5v983q0 109 -30.5 140t-125.5 34zM408 537l280 286q37 38 37 65q0 10 -4 16q-16 30 -88 32v70h385v-70q-15 -1 -30.5 -6t-27 -10t-28.5 -16.5t-26 -18.5 t-29 -25.5t-28.5 -26t-33 -32l-33.5 -33.5l-188 -186l309 -389q48 -61 89 -89t91 -34v-70h-247z" />
<glyph unicode="l" horiz-adv-x="602" d="M47 1370v66l295 59h31q24 -74 24 -203v-1073q0 -91 26.5 -118t125.5 -31v-70h-490v70q96 6 124 31.5t28 111.5v983q0 57 -7 90t-27.5 51.5t-49 24.5t-80.5 8z" />
<glyph unicode="m" horiz-adv-x="1701" d="M53 889v61l262 82h31q32 -83 35 -168q57 53 96 83.5t101 56.5t127 26q85 0 147 -41.5t86 -118.5q82 77 156 118.5t163 41.5q114 0 186.5 -72t72.5 -202v-543q0 -86 25 -111.5t108 -31.5v-70h-453v70q87 4 110 28t23 101v520q0 91 -28.5 129.5t-96.5 38.5 q-69 0 -125.5 -25.5t-115.5 -75.5v-587q0 -74 24 -98.5t98 -30.5v-70h-442v70q87 4 110 28t23 101v520q0 91 -28.5 129.5t-96.5 38.5q-76 0 -133 -29t-129 -90v-569q0 -77 23 -101t110 -28v-70h-463v70q90 6 117 31.5t27 111.5v502q0 58 -6 90t-24.5 51.5t-44.5 25t-75 7.5z " />
<glyph unicode="n" horiz-adv-x="1193" d="M53 889v61l262 82h31q32 -76 35 -178q81 84 162 130t188 46q126 0 201.5 -71.5t75.5 -202.5v-543q0 -86 25 -111.5t108 -31.5v-70h-463v70q66 3 95.5 15t38.5 36t9 78v520q0 89 -37 128.5t-112 39.5q-87 0 -151.5 -32t-131.5 -97v-559q0 -54 9 -78t38.5 -36t95.5 -15v-70 h-473v70q90 6 117 31.5t27 111.5v502q0 58 -6 90t-24.5 51.5t-44.5 25t-75 7.5z" />
<glyph unicode="o" horiz-adv-x="1089" d="M74 506q0 245 130 387.5t337 142.5q148 0 257 -71t163.5 -192t54.5 -277q0 -240 -131.5 -380.5t-339.5 -140.5q-210 0 -340.5 142.5t-130.5 388.5zM274 526q0 -236 63.5 -343t211.5 -107q131 0 198.5 106t67.5 305q0 231 -69 340t-205 109q-61 0 -106.5 -18.5t-76 -52.5 t-49.5 -85.5t-27 -113t-8 -140.5z" />
<glyph unicode="p" horiz-adv-x="1163" d="M53 889v61l262 82h31q28 -70 33 -170q58 74 144.5 121t168.5 47q178 0 288 -127.5t110 -380.5q0 -244 -109.5 -388t-308.5 -144q-173 0 -283 116v-296q0 -85 28.5 -111.5t131.5 -30.5v-69h-490v69q90 6 117 32t27 112v903q0 58 -6 90t-24.5 51.5t-44.5 25t-75 7.5z M389 213q46 -57 112.5 -90t127.5 -33q67 0 113 18t80.5 61.5t50.5 121t16 192.5q0 232 -53.5 324t-180.5 92q-147 0 -266 -131v-555z" />
<glyph unicode="q" horiz-adv-x="1114" d="M74 494q0 242 113 389t307 147q183 0 311 -158q11 41 33.5 80.5t44.5 61.5h102q-24 -91 -24 -287v-915q0 -86 27 -112t116 -32v-69h-490v69q103 4 131.5 30.5t28.5 111.5v329q-61 -72 -139.5 -115.5t-157.5 -43.5q-82 0 -152 28.5t-127.5 87.5t-90.5 161t-33 237z M274 518q0 -233 56 -328.5t180 -95.5q127 0 262 148v555q-45 56 -112.5 86t-135.5 30q-62 0 -105.5 -17.5t-77.5 -60t-50.5 -121.5t-16.5 -196z" />
<glyph unicode="r" horiz-adv-x="745" d="M53 889v61l262 82h31q35 -88 35 -233q65 115 132.5 177t145.5 62q35 0 62 -10l-45 -203q-26 11 -64 11q-126 0 -174.5 -58t-48.5 -207v-358q0 -89 29.5 -114t144.5 -29v-70h-504v70q90 6 117 31.5t27 111.5v502q0 58 -6 90t-24.5 51.5t-44.5 25t-75 7.5z" />
<glyph unicode="s" horiz-adv-x="882" d="M76 61v199h137q10 -104 60.5 -147t158.5 -43q95 0 153 42.5t58 135.5q0 79 -41 117t-135 61l-121 29q-260 62 -260 284q0 139 101.5 217t256.5 78q169 0 308 -71v-185h-131q-15 83 -61.5 122.5t-131.5 39.5q-90 0 -139 -42t-49 -116q0 -66 35.5 -103t127.5 -58l121 -29 q145 -34 213 -101.5t68 -177.5q0 -154 -106 -246t-285 -92q-202 0 -338 86z" />
<glyph unicode="t" horiz-adv-x="657" d="M55 893v65l138 48q34 182 96 282l96 25q-18 -133 -18 -307h243l-28 -113h-217v-619q0 -118 26.5 -157t104.5 -39q55 0 116 20l17 -73q-105 -54 -203 -54q-121 0 -184.5 64.5t-63.5 212.5v645h-123z" />
<glyph unicode="u" horiz-adv-x="1187" d="M43 889v61l285 82h45v-749q0 -91 38 -128.5t115 -37.5q85 0 144 31.5t129 99.5v467q0 76 -13.5 112t-41.5 48t-89 14v61l285 82h45v-749q0 -58 6 -90t24.5 -51.5t44.5 -25t75 -7.5v-62l-248 -74h-31q-37 87 -45 183q-83 -89 -159.5 -135t-182.5 -46q-128 0 -205.5 69 t-77.5 204v467q0 76 -13.5 112t-41 48t-88.5 14z" />
<glyph unicode="v" horiz-adv-x="1034" d="M-2 936v70h455v-70q-73 -3 -102 -16.5t-29 -42.5q0 -21 14 -62l166 -457q32 -94 47 -178h8q18 82 49 176l162 459q14 44 14 59q0 31 -29 45t-102 17v70h385v-70q-62 -8 -90.5 -34.5t-58.5 -108.5l-295 -803h-141l-304 803q-30 81 -59 108t-90 35z" />
<glyph unicode="w" horiz-adv-x="1529" d="M4 936v70h438v-70q-58 -4 -87 -16.5t-29 -47.5q0 -21 10 -57l123 -407q28 -96 49 -203h8q22 105 49 201l164 600h129l195 -598q29 -85 49 -203h8q7 30 24.5 101.5t24.5 99.5l105 409q8 27 8 53q0 33 -25.5 49t-89.5 19v70h369v-70q-65 -7 -93 -35t-51 -108l-233 -803 h-145l-164 528q-29 95 -66 248h-8q-20 -112 -59 -248l-152 -528h-149l-259 803q-26 81 -54 108t-89 35z" />
<glyph unicode="x" horiz-adv-x="1067" d="M29 0v70q63 6 92 29t82 100l221 327l-193 281q-54 79 -85.5 100.5t-104.5 28.5v70h457v-70q-50 -3 -71 -11.5t-21 -27.5q0 -23 28 -68l133 -211h8l127 211q25 43 25 64q0 38 -94 43v70h360v-70q-65 -7 -98.5 -31.5t-79.5 -97.5l-174 -270l225 -338q54 -80 82.5 -101.5 t95.5 -27.5v-70h-454v70q55 3 78.5 12t23.5 29q0 17 -28 65l-168 264h-9l-165 -264q-21 -35 -21 -55q0 -45 100 -51v-70h-372z" />
<glyph unicode="y" horiz-adv-x="1034" d="M-2 936v70h455v-70q-73 -3 -102 -17.5t-29 -46.5q0 -13 14 -57l147 -414q49 -140 72 -270h6q18 98 60 227l147 457q8 25 12 47q5 38 -21.5 54.5t-107.5 19.5v70h385v-70q-63 -8 -91.5 -34.5t-57.5 -108.5l-287 -826q-66 -190 -151 -281.5t-234 -121.5l-49 141 q68 17 109.5 33.5t86.5 48.5t76 85t54 132l-74 -10q-47 184 -107 352l-164 447q-29 78 -59 107t-90 36z" />
<glyph unicode="z" horiz-adv-x="931" d="M82 0v100l575 805h-249q-103 0 -139.5 -36.5t-53.5 -153.5h-88v291h733v-109l-569 -797h227q59 0 97.5 6.5t65 18t46.5 40.5t33 59t33 89h92l-49 -313h-754z" />
<glyph unicode="{" horiz-adv-x="718" d="M51 598v70q111 0 164 43t53 143v485q0 125 65.5 184.5t170.5 59.5h164v-82h-117q-129 0 -129 -151v-471q0 -64 -15.5 -112t-41 -73.5t-50.5 -39t-51 -17.5v-8q26 -4 51 -17.5t50.5 -39t41 -73.5t15.5 -112v-471q0 -152 129 -152h117v-81h-164q-121 0 -178.5 57t-57.5 186 v486q0 100 -53 143t-164 43z" />
<glyph unicode="|" horiz-adv-x="499" d="M184 -305v1864h131v-1864h-131z" />
<glyph unicode="}" horiz-adv-x="718" d="M51 -238h117q129 0 129 152v473q0 64 15.5 112t41 73.5t50.5 39t51 17.5v8q-26 4 -51 17.5t-50.5 39t-41 73.5t-15.5 112v471q0 151 -129 151h-117v82h164q121 0 178.5 -57t57.5 -187v-485q0 -100 53 -143t164 -43v-70q-111 0 -164 -43t-53 -143v-486q0 -125 -65.5 -184 t-170.5 -59h-164v79z" />
<glyph unicode="~" horiz-adv-x="1134" d="M102 487q28 136 88 201.5t175 65.5q68 0 136 -25t128.5 -49.5t109.5 -24.5q149 0 215 129l78 -43q-36 -127 -101.5 -191.5t-178.5 -64.5q-68 0 -141 25.5t-135 50.5t-105 25q-71 0 -117 -34t-82 -103z" />
<glyph unicode="&#xa1;" horiz-adv-x="595" d="M164 932q0 58 40.5 98.5t96.5 40.5q55 0 93 -40t38 -99q0 -56 -38 -94.5t-95 -38.5q-56 0 -95.5 39t-39.5 94zM184 -387l64 1012h108l64 -977z" />
<glyph unicode="&#xa2;" horiz-adv-x="948" d="M74 487q0 237 112 377.5t295 161.5v197h92v-193q169 -7 277 -80v-188h-139q-14 83 -45 124t-93 48v-844q80 1 133.5 26.5t127.5 86.5l53 -58q-129 -148 -314 -165v-185h-92v185q-181 16 -294 145.5t-113 361.5zM276 528q0 -205 50 -305.5t155 -124.5v832 q-205 -41 -205 -402z" />
<glyph unicode="&#xa3;" horiz-adv-x="1185" d="M102 0v72q101 3 132.5 34t31.5 121v389h-164v91h164v178q0 129 35.5 225.5t100 153.5t147.5 84.5t186 27.5q192 0 307 -94v-192h-151q-14 103 -53.5 147.5t-128.5 44.5q-57 0 -100 -16t-77.5 -54t-52.5 -106t-18 -166v-233h391v-91h-391v-516h315q110 0 158 52t80 194h90 l-31 -346h-971z" />
<glyph unicode="&#xa4;" horiz-adv-x="962" d="M102 571q0 175 113 277l-96 149l117 78l98 -155q68 24 147 24q72 0 140 -22l98 153l117 -78l-93 -143q117 -107 117 -283q0 -182 -121 -282l97 -148l-117 -78l-103 158q-62 -18 -135 -18q-82 0 -143 20l-102 -160l-117 78l98 152q-115 101 -115 278zM293 588 q0 -152 42.5 -221.5t145.5 -69.5q105 0 148 69.5t43 221.5q0 130 -43 197t-148 67q-103 0 -145.5 -67t-42.5 -197z" />
<glyph unicode="&#xa5;" horiz-adv-x="1216" d="M23 1339v72h487v-72q-58 -1 -83.5 -15.5t-25.5 -45.5q0 -30 29 -96l223 -475h9l221 479q24 56 24 88q0 34 -29.5 48t-91.5 17v72h408v-72q-64 -8 -104 -44t-95 -146l-182 -371h285v-90h-330l-53 -110v-39h383v-90h-383v-230q0 -89 34 -121t140 -35v-63h-543v63 q106 3 140 35t34 121v230h-373v90h373v26l-63 123h-310v90h265l-197 393q-47 94 -87.5 127t-104.5 41z" />
<glyph unicode="&#xa6;" horiz-adv-x="534" d="M184 -307v821h131v-821h-131zM184 729v821h131v-821h-131z" />
<glyph unicode="&#xa7;" horiz-adv-x="892" d="M41 594q0 107 67 181.5t185 105.5q-87 45 -135.5 113.5t-48.5 183.5q0 140 99.5 225.5t237.5 85.5q164 0 293 -66v-184h-131q-15 82 -57 119t-119 37q-81 0 -129.5 -51t-48.5 -134q0 -69 42 -112.5t132 -83.5l119 -53q76 -35 123.5 -62.5t90 -65.5t62 -86t19.5 -110 q0 -122 -68.5 -203.5t-189.5 -111.5q94 -54 139 -119t45 -166q0 -144 -96.5 -226.5t-268.5 -82.5q-213 0 -325 71v199h137q11 -105 57 -148t150 -43q86 0 141 43.5t55 135.5q0 78 -43 127t-126 86l-132 57q-51 22 -85.5 40t-73.5 48t-62.5 62.5t-39 81t-15.5 106.5zM190 629 q0 -74 44 -118.5t141 -88.5l108 -51q88 9 145.5 65t57.5 144q0 76 -54.5 127t-150.5 92l-110 47q-78 -23 -129.5 -80t-51.5 -137z" />
<glyph unicode="&#xa8;" horiz-adv-x="1001" d="M164 1307q0 53 35 88t88 35t88 -35t35 -88t-35 -88t-88 -35t-88 35t-35 88zM592 1307q0 53 35 88t88 35t88 -35t35 -88t-35 -88t-88 -35t-88 35t-35 88z" />
<glyph unicode="&#xa9;" horiz-adv-x="1638" d="M90 705q0 161 57.5 298.5t156.5 232t232.5 147.5t282.5 53t282.5 -53t232.5 -147.5t156.5 -232t57.5 -298.5q0 -217 -96 -384t-261.5 -256.5t-371.5 -89.5t-371.5 89.5t-261.5 256.5t-96 384zM203 702q0 -143 48 -263.5t131 -202.5t196 -127.5t241 -45.5t241 45.5 t196.5 127.5t131.5 202.5t48 263.5q0 146 -48 268t-131.5 203.5t-196 127t-241.5 45.5t-241.5 -45.5t-195.5 -127t-131 -203.5t-48 -268zM389 696q0 213 110.5 333t327.5 120q186 0 295 -72v-180h-131q-15 94 -47 132t-123 38q-250 0 -250 -354q0 -170 63.5 -270.5 t190.5 -100.5q95 0 133 37.5t52 126.5h118v-178q-113 -72 -294 -72q-221 0 -333 114t-112 326z" />
<glyph unicode="&#xaa;" horiz-adv-x="808" d="M41 920q0 258 410 258q35 0 55 -2v53q0 104 -31.5 148t-112.5 44q-85 0 -118 -32t-45 -97h-117v140q53 32 136 55.5t157 23.5q136 0 209 -64.5t73 -197.5q0 -13 -3 -127.5t-3 -197.5q0 -88 15.5 -107.5t91.5 -25.5v-64q-45 -18 -109 -18q-77 0 -105.5 28t-35.5 84 q-71 -127 -215 -127q-115 0 -183.5 60t-68.5 166zM213 940q0 -78 30.5 -109.5t96.5 -31.5q49 0 90.5 30.5t67.5 79.5l6 189q-50 4 -55 4q-123 0 -179.5 -38.5t-56.5 -123.5z" />
<glyph unicode="&#xab;" horiz-adv-x="1034" d="M113 500l348 436l80 -74l-232 -362l232 -363l-80 -74zM514 500l348 436l80 -74l-231 -362l231 -363l-80 -74z" />
<glyph unicode="&#xac;" horiz-adv-x="1026" d="M113 485v115h800v-453h-120v338h-680z" />
<glyph unicode="&#xad;" horiz-adv-x="641" d="M113 481v146h415v-146h-415z" />
<glyph unicode="&#xae;" horiz-adv-x="1638" d="M90 705q0 161 57.5 298.5t156.5 232t232.5 147.5t282.5 53t282.5 -53t232.5 -147.5t156.5 -232t57.5 -298.5q0 -217 -96 -384t-261.5 -256.5t-371.5 -89.5t-371.5 89.5t-261.5 256.5t-96 384zM203 702q0 -143 48 -263.5t131 -202.5t196 -127.5t241 -45.5t241 45.5 t196.5 127.5t131.5 202.5t48 263.5q0 146 -48 268t-131.5 203.5t-196 127t-241.5 45.5t-241.5 -45.5t-195.5 -127t-131 -203.5t-48 -268zM436 279v59q73 1 92 24.5t19 96.5v493q0 73 -19 96.5t-92 24.5v64h352q162 0 247 -52t85 -182q0 -125 -64.5 -173.5t-195.5 -51.5v-6 q103 -25 168 -129q23 -40 70 -129q27 -47 48.5 -60t78.5 -14v-61h-236q-47 105 -108 217q-58 108 -88.5 139.5t-94.5 32.5v-209q0 -74 24.5 -96.5t102.5 -24.5v-59h-389zM698 739h80q102 0 141 35t39 129q0 85 -44 120.5t-162 35.5h-54v-320z" />
<glyph unicode="&#xaf;" horiz-adv-x="903" d="M164 1208v117h575v-117h-575z" />
<glyph unicode="&#xb0;" horiz-adv-x="856" d="M92 1079q0 159 91 252.5t241 93.5q160 0 250 -93t90 -257q0 -157 -92.5 -250.5t-243.5 -93.5q-158 0 -247 93t-89 255zM250 1087q0 -130 43.5 -184.5t136.5 -54.5q176 0 176 219q0 131 -44 186.5t-136 55.5q-176 0 -176 -222z" />
<glyph unicode="&#xb1;" horiz-adv-x="1026" d="M113 51v115h800v-115h-800zM113 606v115h344v317h121v-317h335v-115h-335v-336h-121v336h-344z" />
<glyph unicode="&#xb2;" horiz-adv-x="681" d="M43 512v84l160 164q51 54 71.5 76t53 61.5t44 65t21.5 60.5t10 73q0 69 -37.5 105t-103.5 36q-92 0 -172 -61l-37 53q111 104 260 104q118 0 192.5 -59.5t74.5 -165.5q0 -33 -7.5 -63.5t-27 -61.5t-37 -54.5t-53 -57t-57.5 -53t-69 -59.5t-71 -61l-78 -67h438l-20 -119 h-555z" />
<glyph unicode="&#xb3;" horiz-adv-x="657" d="M33 557q52 -12 123 -12q117 0 192.5 55.5t75.5 151.5q0 80 -39 112.5t-117 32.5q-27 0 -67 -4v88q20 -2 63 -2q152 0 152 135q0 61 -35.5 93t-97.5 32q-98 0 -177 -57l-38 61q115 90 260 90q110 0 178.5 -50t68.5 -142q0 -76 -50.5 -125t-137.5 -70q96 -10 151.5 -65.5 t55.5 -135.5q0 -86 -54.5 -149.5t-140.5 -94t-190 -30.5q-94 0 -156 18z" />
<glyph unicode="&#xb4;" horiz-adv-x="802" d="M164 1229l366 313l109 -186l-434 -197z" />
<glyph unicode="&#xb5;" horiz-adv-x="1107" d="M90 -360q27 133 27 370v322q-4 471 -13 665l156 29h45l-1 -268q-1 -267 -1 -412q0 -74 12.5 -122.5t36.5 -70.5t48 -29t59 -7q70 0 142.5 36.5t125.5 94.5v753l139 25h47v-776q0 -78 20 -115t83 -37q20 0 63 6v-77q-78 -45 -170 -45q-134 0 -172 165q-58 -76 -136.5 -125 t-166.5 -49q-40 0 -81.5 15t-63.5 41l-8 -4q18 -73 18 -238l2 -166l-203 -29z" />
<glyph unicode="&#xb6;" horiz-adv-x="1263" d="M41 1024q0 217 100.5 302t341.5 85h719v-63q-101 -3 -132.5 -34.5t-31.5 -121.5v-1448h-112v1571h-174v-1571h-113v885h-158q-108 0 -185 18t-136.5 61t-89 121.5t-29.5 194.5zM399 1024q0 -165 34 -231t132 -66h74v588h-74q-70 0 -104 -23.5t-48 -83.5t-14 -184z" />
<glyph unicode="&#xb7;" horiz-adv-x="595" d="M154 569q0 64 41.5 108t101.5 44t102.5 -44t42.5 -108q0 -63 -42.5 -108t-102.5 -45t-101.5 45t-41.5 108z" />
<glyph unicode="&#xb8;" horiz-adv-x="589" d="M109 -354l32 65q57 -37 127 -37q39 0 60.5 16t21.5 58q0 64 -143 68v43l47 164l76 -13l-27 -90q89 -6 131.5 -48t42.5 -103q0 -175 -203 -175q-90 0 -165 52z" />
<glyph unicode="&#xb9;" horiz-adv-x="643" d="M63 1169l246 150h117v-662q0 -54 32 -68.5t142 -17.5v-59h-508v59q112 3 143 17t31 69v527q-85 -43 -184 -72z" />
<glyph unicode="&#xba;" horiz-adv-x="813" d="M41 1096q0 187 101 296t261 109q173 0 271 -114.5t98 -296.5q0 -183 -102 -289.5t-264 -106.5q-161 0 -263 108t-102 294zM213 1114q0 -174 46.5 -255t152.5 -81q96 0 145 78.5t49 226.5q0 334 -198 334q-105 0 -150 -77.5t-45 -225.5z" />
<glyph unicode="&#xbb;" horiz-adv-x="1034" d="M92 137l232 363l-232 362l80 74l348 -436l-348 -437zM494 137l231 363l-231 362l79 74l349 -436l-349 -437z" />
<glyph unicode="&#xbc;" horiz-adv-x="1859" d="M63 1169l246 150h117v-662q0 -54 32 -68.5t142 -17.5v-59h-508v59q112 3 143 17t31 69v527q-85 -43 -184 -72zM354 -252l998 1747h110l-997 -1747h-111zM1165 186v52l291 569h156l-316 -547h263q0 182 49 328l110 20v-348h107v-74h-107v-206l-159 -23v229h-394z" />
<glyph unicode="&#xbd;" horiz-adv-x="1861" d="M63 1169l246 150h117v-662q0 -54 32 -68.5t142 -17.5v-59h-508v59q112 3 143 17t31 69v527q-85 -43 -184 -72zM354 -252l998 1747h110l-997 -1747h-111zM1249 0v84l160 164q45 47 61 64t47.5 53t42 54.5t26 48.5t20 57t4.5 59q0 69 -38 105t-104 36q-92 0 -172 -61 l-36 53q111 104 260 104q118 0 192 -59.5t74 -165.5q0 -33 -7.5 -63.5t-27 -61.5t-37 -54.5t-53 -57t-57.5 -53t-69 -59.5t-71 -61l-78 -67h439l-21 -119h-555z" />
<glyph unicode="&#xbe;" horiz-adv-x="1873" d="M33 557q52 -12 123 -12q117 0 192.5 55.5t75.5 151.5q0 80 -39 112.5t-117 32.5q-27 0 -67 -4v88q20 -2 63 -2q152 0 152 135q0 61 -35.5 93t-97.5 32q-98 0 -177 -57l-38 61q115 90 260 90q110 0 178.5 -50t68.5 -142q0 -76 -50.5 -125t-137.5 -70q96 -10 151.5 -65.5 t55.5 -135.5q0 -86 -54.5 -149.5t-140.5 -94t-190 -30.5q-94 0 -156 18zM369 -252l997 1747h111l-998 -1747h-110zM1180 186v52l290 569h156l-315 -547h262q0 182 49 328l111 20v-348h106v-74h-106v-206l-160 -23v229h-393z" />
<glyph unicode="&#xbf;" horiz-adv-x="913" d="M139 -76q0 192 203 320q91 58 124.5 107t33.5 138q0 52 -17 115h84q15 -26 23.5 -43t17 -50.5t8.5 -70.5q0 -139 -116 -245q-7 -7 -37 -33t-41.5 -37.5t-34 -39t-32.5 -50.5t-18.5 -58.5t-8.5 -74.5q0 -92 51 -144.5t131 -52.5q162 0 182 186h131v-184 q-48 -36 -134.5 -66t-199.5 -30q-76 0 -138 17t-110.5 53t-75 98t-26.5 145zM375 922q0 62 42.5 105.5t102.5 43.5q58 0 98.5 -43.5t40.5 -105.5q0 -59 -40.5 -99.5t-98.5 -40.5q-59 0 -102 41t-43 99z" />
<glyph unicode="&#xc0;" d="M33 0v72q74 6 108 40t68 136l377 1163h182l373 -1159q16 -48 28 -76t31.5 -53t46.5 -36.5t66 -14.5v-72h-502v72q74 3 106.5 22.5t32.5 63.5q0 26 -10 61l-68 221h-471l-67 -221q-12 -44 -12 -72q0 -42 33 -57t116 -18v-72h-438zM428 1632l88 189l391 -262l-41 -70z M432 539h412l-92 303q-69 227 -107 391h-8q-95 -340 -111 -391z" />
<glyph unicode="&#xc1;" d="M33 0v72q74 6 108 40t68 136l377 1163h182l373 -1159q16 -48 28 -76t31.5 -53t46.5 -36.5t66 -14.5v-72h-502v72q74 3 106.5 22.5t32.5 63.5q0 26 -10 61l-68 221h-471l-67 -221q-12 -44 -12 -72q0 -42 33 -57t116 -18v-72h-438zM432 539h412l-92 303q-69 227 -107 391 h-8q-95 -340 -111 -391zM432 1559l391 262l88 -189l-438 -143z" />
<glyph unicode="&#xc2;" d="M33 0v72q74 6 108 40t68 136l377 1163h182l373 -1159q16 -48 28 -76t31.5 -53t46.5 -36.5t66 -14.5v-72h-502v72q74 3 106.5 22.5t32.5 63.5q0 26 -10 61l-68 221h-471l-67 -221q-12 -44 -12 -72q0 -42 33 -57t116 -18v-72h-438zM340 1552l332 306l332 -306l-52 -61 l-280 166l-281 -166zM432 539h412l-92 303q-69 227 -107 391h-8q-95 -340 -111 -391z" />
<glyph unicode="&#xc3;" d="M33 0v72q74 6 108 40t68 136l377 1163h182l373 -1159q16 -48 28 -76t31.5 -53t46.5 -36.5t66 -14.5v-72h-502v72q74 3 106.5 22.5t32.5 63.5q0 26 -10 61l-68 221h-471l-67 -221q-12 -44 -12 -72q0 -42 33 -57t116 -18v-72h-438zM313 1565q52 204 215 204q45 0 87 -14.5 t68 -32.5t60.5 -32.5t67.5 -14.5q91 0 150 92l73 -28q-66 -195 -223 -195q-60 0 -112 22.5t-94 45t-77 22.5q-53 0 -83.5 -23.5t-61.5 -72.5zM432 539h412l-92 303q-69 227 -107 391h-8q-95 -340 -111 -391z" />
<glyph unicode="&#xc4;" d="M33 0v72q74 6 108 40t68 136l377 1163h182l373 -1159q16 -48 28 -76t31.5 -53t46.5 -36.5t66 -14.5v-72h-502v72q74 3 106.5 22.5t32.5 63.5q0 26 -10 61l-68 221h-471l-67 -221q-12 -44 -12 -72q0 -42 33 -57t116 -18v-72h-438zM336 1612q0 52 35 87.5t88 35.5t88 -35.5 t35 -87.5t-35 -87.5t-88 -35.5t-88 35.5t-35 87.5zM432 539h412l-92 303q-69 227 -107 391h-8q-95 -340 -111 -391zM764 1612q0 52 35 87.5t88 35.5t88 -35.5t35 -87.5t-35 -87.5t-88 -35.5t-88 35.5t-35 87.5z" />
<glyph unicode="&#xc5;" d="M33 0v72q74 6 108 40t68 136l377 1163h182l373 -1159q16 -48 28 -76t31.5 -53t46.5 -36.5t66 -14.5v-72h-502v72q74 3 106.5 22.5t32.5 63.5q0 26 -10 61l-68 221h-471l-67 -221q-12 -44 -12 -72q0 -42 33 -57t116 -18v-72h-438zM432 539h412l-92 303q-69 227 -107 391 h-8q-95 -340 -111 -391zM465 1681q0 90 58.5 149.5t148.5 59.5q92 0 150.5 -59.5t58.5 -149.5t-58.5 -149t-150.5 -59q-90 0 -148.5 59t-58.5 149zM547 1679q0 -57 34.5 -95t90.5 -38q57 0 92 38t35 95q0 60 -35 100t-92 40q-56 0 -90.5 -40t-34.5 -100z" />
<glyph unicode="&#xc6;" horiz-adv-x="1851" d="M33 0v72q74 6 109.5 32t80.5 111l518 975q23 44 23 72q0 71 -150 77v72h1119l20 -307h-86q-35 122 -73 164.5t-124 42.5h-342v-525h191q97 0 133.5 29.5t42.5 116.5h84v-389h-84q-6 84 -42.5 114.5t-131.5 30.5h-193v-588h345q118 0 159.5 47t53.5 191h92v-338h-1008v72 q101 3 132.5 34t31.5 121v275h-424l-158 -297q-26 -50 -26 -74q0 -29 27.5 -42.5t88.5 -16.5v-72h-409zM559 600h375v336q0 146 10 381h-8z" />
<glyph unicode="&#xc7;" horiz-adv-x="1181" d="M90 694q0 348 165 545t441 197q154 0 247 -25.5t159 -71.5v-229h-144q-31 124 -88 176.5t-180 52.5q-91 0 -160 -34t-120.5 -108t-78 -199t-26.5 -300q0 -145 18.5 -253.5t52 -179t85.5 -113.5t112.5 -60.5t139.5 -17.5q121 0 182 50.5t84 170.5h133v-215 q-145 -103 -399 -103l-17 -57q89 -6 131.5 -48t42.5 -103q0 -175 -202 -175q-91 0 -166 52l33 65q57 -37 127 -37q38 0 59.5 16t21.5 58q0 64 -143 68v43l35 123q-275 23 -410 208t-135 504z" />
<glyph unicode="&#xc8;" horiz-adv-x="1157" d="M76 0v72q101 3 132.5 34t31.5 121v957q0 90 -31.5 121t-132.5 34v72h962l21 -307h-86q-35 122 -73 164.5t-124 42.5h-342v-525h191q97 0 133.5 29.5t42.5 116.5h84v-389h-84q-6 84 -42.5 114.5t-131.5 30.5h-193v-588h344q118 0 159.5 47t53.5 191h92v-338h-1007z M365 1632l88 189l391 -262l-41 -70z" />
<glyph unicode="&#xc9;" horiz-adv-x="1157" d="M76 0v72q101 3 132.5 34t31.5 121v957q0 90 -31.5 121t-132.5 34v72h962l21 -307h-86q-35 122 -73 164.5t-124 42.5h-342v-525h191q97 0 133.5 29.5t42.5 116.5h84v-389h-84q-6 84 -42.5 114.5t-131.5 30.5h-193v-588h344q118 0 159.5 47t53.5 191h92v-338h-1007z M369 1559l391 262l88 -189l-438 -143z" />
<glyph unicode="&#xca;" horiz-adv-x="1157" d="M76 0v72q101 3 132.5 34t31.5 121v957q0 90 -31.5 121t-132.5 34v72h962l21 -307h-86q-35 122 -73 164.5t-124 42.5h-342v-525h191q97 0 133.5 29.5t42.5 116.5h84v-389h-84q-6 84 -42.5 114.5t-131.5 30.5h-193v-588h344q118 0 159.5 47t53.5 191h92v-338h-1007z M276 1552l332 306l332 -306l-51 -61l-281 166l-280 -166z" />
<glyph unicode="&#xcb;" horiz-adv-x="1157" d="M76 0v72q101 3 132.5 34t31.5 121v957q0 90 -31.5 121t-132.5 34v72h962l21 -307h-86q-35 122 -73 164.5t-124 42.5h-342v-525h191q97 0 133.5 29.5t42.5 116.5h84v-389h-84q-6 84 -42.5 114.5t-131.5 30.5h-193v-588h344q118 0 159.5 47t53.5 191h92v-338h-1007z M272 1612q0 52 35 87.5t88 35.5t88 -35.5t35 -87.5t-35 -87.5t-88 -35.5t-88 35.5t-35 87.5zM700 1612q0 52 35 87.5t88 35.5t88 -35.5t35 -87.5t-35 -87.5t-88 -35.5t-88 35.5t-35 87.5z" />
<glyph unicode="&#xcc;" horiz-adv-x="673" d="M76 0v72q101 3 132.5 34t31.5 121v957q0 90 -31.5 121t-132.5 34v72h522v-72q-101 -3 -132.5 -34t-31.5 -121v-957q0 -90 31.5 -121t132.5 -34v-72h-522zM92 1632l88 189l391 -262l-41 -70z" />
<glyph unicode="&#xcd;" horiz-adv-x="673" d="M76 0v72q101 3 132.5 34t31.5 121v957q0 90 -31.5 121t-132.5 34v72h522v-72q-101 -3 -132.5 -34t-31.5 -121v-957q0 -90 31.5 -121t132.5 -34v-72h-522zM96 1559l391 262l88 -189l-438 -143z" />
<glyph unicode="&#xce;" horiz-adv-x="673" d="M4 1552l332 306l332 -306l-52 -61l-280 166l-281 -166zM76 0v72q101 3 132.5 34t31.5 121v957q0 90 -31.5 121t-132.5 34v72h522v-72q-101 -3 -132.5 -34t-31.5 -121v-957q0 -90 31.5 -121t132.5 -34v-72h-522z" />
<glyph unicode="&#xcf;" horiz-adv-x="673" d="M0 1612q0 52 35 87.5t88 35.5t88 -35.5t35 -87.5t-35 -87.5t-88 -35.5t-88 35.5t-35 87.5zM76 0v72q101 3 132.5 34t31.5 121v957q0 90 -31.5 121t-132.5 34v72h522v-72q-101 -3 -132.5 -34t-31.5 -121v-957q0 -90 31.5 -121t132.5 -34v-72h-522zM428 1612q0 52 35 87.5 t88 35.5t88 -35.5t35 -87.5t-35 -87.5t-88 -35.5t-88 35.5t-35 87.5z" />
<glyph unicode="&#xd0;" horiz-adv-x="1372" d="M68 700v95h172v389q0 90 -31.5 121t-132.5 34v72h518q159 0 284 -41.5t216 -126.5t139.5 -221t48.5 -317q0 -126 -22.5 -230.5t-73.5 -193.5t-130 -150.5t-196 -96t-266 -34.5h-518v72q101 3 132.5 34t31.5 121v473h-172zM440 104h174q120 0 201 25.5t140 90t86.5 177 t27.5 283.5q0 140 -19 246.5t-54.5 180.5t-91.5 120t-126 67t-160 21h-178v-520h265v-95h-265v-596z" />
<glyph unicode="&#xd1;" horiz-adv-x="1402" d="M76 0v72q101 3 132.5 34t31.5 121v957q0 90 -31.5 121t-132.5 34v72h332l522 -856q43 -71 83 -157.5t56 -139.5h12q-24 146 -24 424v502q0 90 -31.5 121t-132.5 34v72h448v-72q-92 -3 -119.5 -34t-27.5 -121v-1184h-145l-512 836q-119 191 -172 348h-13q25 -172 25 -377 v-580q0 -90 31.5 -121t132.5 -34v-72h-465zM350 1565q52 204 215 204q45 0 87 -14.5t68 -32.5t60.5 -32.5t67.5 -14.5q51 0 85.5 23.5t63.5 68.5l74 -28q-66 -195 -223 -195q-60 0 -112 22.5t-94 45t-77 22.5q-53 0 -83.5 -23.5t-61.5 -72.5z" />
<glyph unicode="&#xd2;" horiz-adv-x="1380" d="M90 711q0 344 161 534.5t435 190.5q126 0 228.5 -39.5t171.5 -107.5t115.5 -163t67.5 -202t21 -228q0 -216 -70 -378t-205 -251.5t-319 -89.5q-148 0 -264 55t-190.5 153.5t-113 232t-38.5 293.5zM299 733q0 -154 20.5 -272t66 -207.5t123.5 -136.5t187 -47 q381 0 381 608q0 329 -91.5 495t-299.5 166q-200 0 -293.5 -151t-93.5 -455zM446 1632l89 189l391 -262l-41 -70z" />
<glyph unicode="&#xd3;" horiz-adv-x="1380" d="M90 711q0 344 161 534.5t435 190.5q126 0 228.5 -39.5t171.5 -107.5t115.5 -163t67.5 -202t21 -228q0 -216 -70 -378t-205 -251.5t-319 -89.5q-148 0 -264 55t-190.5 153.5t-113 232t-38.5 293.5zM299 733q0 -154 20.5 -272t66 -207.5t123.5 -136.5t187 -47 q381 0 381 608q0 329 -91.5 495t-299.5 166q-200 0 -293.5 -151t-93.5 -455zM451 1559l391 262l88 -189l-438 -143z" />
<glyph unicode="&#xd4;" horiz-adv-x="1380" d="M90 711q0 344 161 534.5t435 190.5q126 0 228.5 -39.5t171.5 -107.5t115.5 -163t67.5 -202t21 -228q0 -216 -70 -378t-205 -251.5t-319 -89.5q-148 0 -264 55t-190.5 153.5t-113 232t-38.5 293.5zM299 733q0 -154 20.5 -272t66 -207.5t123.5 -136.5t187 -47 q381 0 381 608q0 329 -91.5 495t-299.5 166q-200 0 -293.5 -151t-93.5 -455zM358 1552l332 306l332 -306l-51 -61l-281 166l-280 -166z" />
<glyph unicode="&#xd5;" horiz-adv-x="1380" d="M90 711q0 344 161 534.5t435 190.5q126 0 228.5 -39.5t171.5 -107.5t115.5 -163t67.5 -202t21 -228q0 -216 -70 -378t-205 -251.5t-319 -89.5q-148 0 -264 55t-190.5 153.5t-113 232t-38.5 293.5zM299 733q0 -154 20.5 -272t66 -207.5t123.5 -136.5t187 -47 q381 0 381 608q0 329 -91.5 495t-299.5 166q-200 0 -293.5 -151t-93.5 -455zM332 1565q52 204 215 204q57 0 106.5 -23.5t92 -47t83.5 -23.5q91 0 150 92l74 -28q-66 -195 -224 -195q-48 0 -91 14t-70 31t-59.5 31t-61.5 14q-53 0 -84 -23.5t-62 -72.5z" />
<glyph unicode="&#xd6;" horiz-adv-x="1380" d="M90 711q0 344 161 534.5t435 190.5q126 0 228.5 -39.5t171.5 -107.5t115.5 -163t67.5 -202t21 -228q0 -216 -70 -378t-205 -251.5t-319 -89.5q-148 0 -264 55t-190.5 153.5t-113 232t-38.5 293.5zM299 733q0 -154 20.5 -272t66 -207.5t123.5 -136.5t187 -47 q381 0 381 608q0 329 -91.5 495t-299.5 166q-200 0 -293.5 -151t-93.5 -455zM354 1612q0 52 35 87.5t88 35.5t88 -35.5t35 -87.5t-35 -87.5t-88 -35.5t-88 35.5t-35 87.5zM782 1612q0 52 35 87.5t88 35.5t88 -35.5t35 -87.5t-35 -87.5t-88 -35.5t-88 35.5t-35 87.5z" />
<glyph unicode="&#xd7;" horiz-adv-x="1034" d="M113 229l325 326l-325 328l75 78l328 -328l328 328l78 -78l-328 -328l328 -326l-78 -77l-328 327l-328 -327z" />
<glyph unicode="&#xd8;" horiz-adv-x="1380" d="M90 711q0 344 161 534.5t435 190.5q180 0 315 -82l109 180l88 -47l-117 -195q105 -99 157 -254.5t52 -341.5q0 -216 -70 -378t-205 -251.5t-319 -89.5q-199 0 -340 99l-118 -201l-82 45l127 217q-193 196 -193 574zM299 733q0 -288 72 -448l565 956q-95 98 -250 98 q-200 0 -293.5 -151t-93.5 -455zM426 190q94 -120 270 -120q381 0 381 608q0 309 -80 473z" />
<glyph unicode="&#xd9;" horiz-adv-x="1400" d="M57 1339v72h523v-72q-108 -3 -141 -34t-33 -121v-695q0 -106 16 -176.5t54.5 -119.5t104 -71t164.5 -22q169 0 241.5 83.5t72.5 275.5v725q0 90 -33 121t-141 34v72h458v-72q-92 -3 -119.5 -34t-27.5 -121v-725q0 -249 -121 -365.5t-358 -116.5q-253 0 -379.5 118.5 t-126.5 348.5v740q0 89 -30 120.5t-124 34.5zM485 1632l88 189l392 -262l-41 -70z" />
<glyph unicode="&#xda;" horiz-adv-x="1400" d="M57 1339v72h523v-72q-108 -3 -141 -34t-33 -121v-695q0 -106 16 -176.5t54.5 -119.5t104 -71t164.5 -22q169 0 241.5 83.5t72.5 275.5v725q0 90 -33 121t-141 34v72h458v-72q-92 -3 -119.5 -34t-27.5 -121v-725q0 -249 -121 -365.5t-358 -116.5q-253 0 -379.5 118.5 t-126.5 348.5v740q0 89 -30 120.5t-124 34.5zM489 1559l392 262l88 -189l-439 -143z" />
<glyph unicode="&#xdb;" horiz-adv-x="1400" d="M57 1339v72h523v-72q-108 -3 -141 -34t-33 -121v-695q0 -106 16 -176.5t54.5 -119.5t104 -71t164.5 -22q169 0 241.5 83.5t72.5 275.5v725q0 90 -33 121t-141 34v72h458v-72q-92 -3 -119.5 -34t-27.5 -121v-725q0 -249 -121 -365.5t-358 -116.5q-253 0 -379.5 118.5 t-126.5 348.5v740q0 89 -30 120.5t-124 34.5zM397 1552l332 306l332 -306l-51 -61l-281 166l-280 -166z" />
<glyph unicode="&#xdc;" horiz-adv-x="1400" d="M57 1339v72h523v-72q-108 -3 -141 -34t-33 -121v-695q0 -106 16 -176.5t54.5 -119.5t104 -71t164.5 -22q169 0 241.5 83.5t72.5 275.5v725q0 90 -33 121t-141 34v72h458v-72q-92 -3 -119.5 -34t-27.5 -121v-725q0 -249 -121 -365.5t-358 -116.5q-253 0 -379.5 118.5 t-126.5 348.5v740q0 89 -30 120.5t-124 34.5zM393 1612q0 52 35.5 87.5t87.5 35.5t87.5 -35.5t35.5 -87.5t-35.5 -87.5t-87.5 -35.5t-87.5 35.5t-35.5 87.5zM821 1612q0 52 35.5 87.5t87.5 35.5t87.5 -35.5t35.5 -87.5t-35.5 -87.5t-87.5 -35.5t-87.5 35.5t-35.5 87.5z" />
<glyph unicode="&#xdd;" horiz-adv-x="1216" d="M23 1339v72h487v-72q-58 -1 -83.5 -15.5t-25.5 -45.5q0 -30 29 -96l223 -475h9l221 479q24 56 24 88q0 34 -29.5 48t-91.5 17v72h408v-72q-64 -8 -104 -44t-95 -146l-280 -571v-351q0 -89 34 -120.5t140 -34.5v-72h-543v72q106 3 140 34.5t34 120.5v338l-305 606 q-47 94 -87.5 127t-104.5 41zM397 1559l391 262l89 -189l-439 -143z" />
<glyph unicode="&#xde;" horiz-adv-x="1181" d="M76 0v72q101 3 132.5 34t31.5 121v957q0 90 -31.5 121t-132.5 34v72h522v-72q-101 -3 -132.5 -34t-31.5 -121v-43h178q142 0 243 -27.5t159 -80.5t84 -121.5t26 -159.5q0 -200 -121 -300t-356 -100h-213v-119q0 -92 35.5 -125t144.5 -36v-72h-538zM434 449h201 q152 0 216 64.5t64 217.5q0 89 -13.5 145.5t-49.5 95t-97 54.5t-157 16h-164v-593z" />
<glyph unicode="&#xdf;" horiz-adv-x="1198" d="M59 0v70q90 6 117 31.5t27 111.5v680h-129v65l127 48v94q0 127 58 217t153 132t217 42q169 0 277 -77.5t108 -205.5q0 -45 -14 -84t-33 -65.5t-57.5 -56.5t-67 -47.5t-82.5 -47.5q-32 -17 -47 -30t-15 -29q0 -27 50 -53q91 -49 155.5 -93.5t123 -102.5t88.5 -128.5 t30 -151.5q0 -149 -100 -243t-269 -94q-177 0 -291 88l47 90q63 -39 117 -57.5t123 -18.5q172 0 172 213q0 69 -16.5 123t-54 100.5t-75 79t-104.5 80.5q-78 56 -104.5 85t-26.5 71q0 41 24.5 68t100.5 75q72 45 103.5 95t31.5 124q0 105 -50.5 151t-151.5 46 q-124 0 -178 -78t-54 -238v-1079h-330z" />
<glyph unicode="&#xe0;" horiz-adv-x="1048" d="M74 262q0 90 38 155t110 102.5t167.5 55t220.5 17.5q45 0 72 -2v90q0 137 -40 195.5t-146 58.5q-118 0 -171 -50.5t-67 -133.5h-129v182q75 41 181 72.5t202 31.5q356 0 356 -344q0 -15 -4 -165t-4 -259q0 -116 26.5 -149.5t125.5 -40.5v-68q-57 -22 -142 -22 q-101 0 -139.5 36t-46.5 109q-15 -26 -38 -52t-57 -52.5t-83 -43t-103 -16.5q-150 0 -239.5 77t-89.5 216zM229 1356l109 186l367 -313l-41 -70zM272 276q0 -106 42 -148t135 -42q68 0 126.5 42t96.5 108l6 256q-58 4 -72 4q-175 0 -254.5 -51.5t-79.5 -168.5z" />
<glyph unicode="&#xe1;" horiz-adv-x="1048" d="M74 262q0 90 38 155t110 102.5t167.5 55t220.5 17.5q45 0 72 -2v90q0 137 -40 195.5t-146 58.5q-118 0 -171 -50.5t-67 -133.5h-129v182q75 41 181 72.5t202 31.5q356 0 356 -344q0 -15 -4 -165t-4 -259q0 -116 26.5 -149.5t125.5 -40.5v-68q-57 -22 -142 -22 q-101 0 -139.5 36t-46.5 109q-15 -26 -38 -52t-57 -52.5t-83 -43t-103 -16.5q-150 0 -239.5 77t-89.5 216zM262 1229l367 313l108 -186l-434 -197zM272 276q0 -106 42 -148t135 -42q68 0 126.5 42t96.5 108l6 256q-58 4 -72 4q-175 0 -254.5 -51.5t-79.5 -168.5z" />
<glyph unicode="&#xe2;" horiz-adv-x="1048" d="M74 262q0 90 38 155t110 102.5t167.5 55t220.5 17.5q45 0 72 -2v90q0 137 -40 195.5t-146 58.5q-118 0 -171 -50.5t-67 -133.5h-129v182q75 41 181 72.5t202 31.5q356 0 356 -344q0 -15 -4 -165t-4 -259q0 -116 26.5 -149.5t125.5 -40.5v-68q-57 -22 -142 -22 q-101 0 -139.5 36t-46.5 109q-15 -26 -38 -52t-57 -52.5t-83 -43t-103 -16.5q-150 0 -239.5 77t-89.5 216zM168 1217l332 313l331 -313l-51 -62l-280 174l-281 -174zM272 276q0 -106 42 -148t135 -42q68 0 126.5 42t96.5 108l6 256q-58 4 -72 4q-175 0 -254.5 -51.5 t-79.5 -168.5z" />
<glyph unicode="&#xe3;" horiz-adv-x="1048" d="M74 262q0 90 38 155t110 102.5t167.5 55t220.5 17.5q45 0 72 -2v90q0 137 -40 195.5t-146 58.5q-118 0 -171 -50.5t-67 -133.5h-129v182q75 41 181 72.5t202 31.5q356 0 356 -344q0 -15 -4 -165t-4 -259q0 -116 26.5 -149.5t125.5 -40.5v-68q-57 -22 -142 -22 q-101 0 -139.5 36t-46.5 109q-15 -26 -38 -52t-57 -52.5t-83 -43t-103 -16.5q-150 0 -239.5 77t-89.5 216zM160 1217q21 94 70.5 155.5t127.5 61.5q59 0 137 -32t117 -32q88 0 136 86l71 -31q-26 -88 -78.5 -147t-128.5 -59q-60 0 -141 29.5t-113 29.5q-49 0 -77 -22 t-54 -68zM272 276q0 -106 42 -148t135 -42q68 0 126.5 42t96.5 108l6 256q-58 4 -72 4q-175 0 -254.5 -51.5t-79.5 -168.5z" />
<glyph unicode="&#xe4;" horiz-adv-x="1048" d="M74 262q0 90 38 155t110 102.5t167.5 55t220.5 17.5q45 0 72 -2v90q0 137 -40 195.5t-146 58.5q-118 0 -171 -50.5t-67 -133.5h-129v182q75 41 181 72.5t202 31.5q356 0 356 -344q0 -15 -4 -165t-4 -259q0 -116 26.5 -149.5t125.5 -40.5v-68q-57 -22 -142 -22 q-101 0 -139.5 36t-46.5 109q-15 -26 -38 -52t-57 -52.5t-83 -43t-103 -16.5q-150 0 -239.5 77t-89.5 216zM162 1307q0 53 35 88t88 35t88 -35t35 -88t-35 -88t-88 -35t-88 35t-35 88zM272 276q0 -106 42 -148t135 -42q68 0 126.5 42t96.5 108l6 256q-58 4 -72 4 q-175 0 -254.5 -51.5t-79.5 -168.5zM590 1307q0 53 35 88t88 35t88 -35t35 -88t-35 -88t-88 -35t-88 35t-35 88z" />
<glyph unicode="&#xe5;" horiz-adv-x="1048" d="M74 262q0 90 38 155t110 102.5t167.5 55t220.5 17.5q45 0 72 -2v90q0 137 -40 195.5t-146 58.5q-118 0 -171 -50.5t-67 -133.5h-129v182q75 41 181 72.5t202 31.5q356 0 356 -344q0 -15 -4 -165t-4 -259q0 -116 26.5 -149.5t125.5 -40.5v-68q-57 -22 -142 -22 q-101 0 -139.5 36t-46.5 109q-15 -26 -38 -52t-57 -52.5t-83 -43t-103 -16.5q-150 0 -239.5 77t-89.5 216zM272 276q0 -106 42 -148t135 -42q68 0 126.5 42t96.5 108l6 256q-58 4 -72 4q-175 0 -254.5 -51.5t-79.5 -168.5zM291 1356q0 90 58.5 149.5t148.5 59.5 q92 0 150.5 -59.5t58.5 -149.5t-58.5 -149.5t-150.5 -59.5q-90 0 -148.5 59.5t-58.5 149.5zM373 1354q0 -57 34.5 -95t90.5 -38q57 0 92 38t35 95q0 60 -35 99.5t-92 39.5q-56 0 -90.5 -39.5t-34.5 -99.5z" />
<glyph unicode="&#xe6;" horiz-adv-x="1576" d="M74 262q0 176 140 254t396 78h60v94q-1 68 -8.5 111t-26.5 75t-52.5 46t-86.5 14q-118 0 -171 -50.5t-67 -133.5h-129v182q75 41 181 72.5t202 31.5q209 0 287 -123q122 125 303 125q194 0 301.5 -128t107.5 -361v-55h-653q3 -217 79.5 -305.5t242.5 -88.5q64 0 140 24.5 t132 61.5l43 -69q-181 -140 -365 -140q-245 0 -368 170q-116 -170 -359 -170q-151 0 -240 73.5t-89 211.5zM272 276q0 -176 177 -176q155 0 258 148q-36 86 -39 246h-62q-176 0 -255 -51t-79 -167zM860 594h457q0 187 -51 266.5t-168 79.5q-110 0 -169 -78.5t-69 -267.5z " />
<glyph unicode="&#xe7;" horiz-adv-x="948" d="M74 487q0 257 131 400t338 143q190 0 307 -80v-188h-139q-16 94 -53 134t-119 40q-263 0 -263 -408q0 -239 69 -338.5t216 -99.5q86 0 142 25.5t131 87.5l53 -58q-148 -168 -355 -168h-18l-16 -57q89 -6 131.5 -48t42.5 -103q0 -175 -203 -175q-91 0 -166 52l33 65 q57 -37 127 -37q39 0 60.5 16t21.5 58q0 64 -144 68v43l37 127q-164 29 -264 157t-100 344z" />
<glyph unicode="&#xe8;" horiz-adv-x="989" d="M74 510q0 245 123 386.5t317 141.5t302 -128t108 -361v-55h-654q3 -217 79.5 -305.5t242.5 -88.5q64 0 140 24.5t132 61.5l43 -69q-181 -140 -364 -140q-220 0 -344.5 141t-124.5 392zM254 1356l108 186l367 -313l-41 -70zM272 594h457q0 187 -51 266.5t-168 79.5 q-110 0 -169 -78.5t-69 -267.5z" />
<glyph unicode="&#xe9;" horiz-adv-x="989" d="M74 510q0 245 123 386.5t317 141.5t302 -128t108 -361v-55h-654q3 -217 79.5 -305.5t242.5 -88.5q64 0 140 24.5t132 61.5l43 -69q-181 -140 -364 -140q-220 0 -344.5 141t-124.5 392zM272 594h457q0 187 -51 266.5t-168 79.5q-110 0 -169 -78.5t-69 -267.5zM285 1229 l366 313l109 -186l-434 -197z" />
<glyph unicode="&#xea;" horiz-adv-x="989" d="M74 510q0 245 123 386.5t317 141.5t302 -128t108 -361v-55h-654q3 -217 79.5 -305.5t242.5 -88.5q64 0 140 24.5t132 61.5l43 -69q-181 -140 -364 -140q-220 0 -344.5 141t-124.5 392zM178 1217l332 313l332 -313l-51 -62l-281 174l-281 -174zM272 594h457 q0 187 -51 266.5t-168 79.5q-110 0 -169 -78.5t-69 -267.5z" />
<glyph unicode="&#xeb;" horiz-adv-x="989" d="M74 510q0 245 123 386.5t317 141.5t302 -128t108 -361v-55h-654q3 -217 79.5 -305.5t242.5 -88.5q64 0 140 24.5t132 61.5l43 -69q-181 -140 -364 -140q-220 0 -344.5 141t-124.5 392zM174 1307q0 53 35 88t88 35t88 -35t35 -88t-35 -88t-88 -35t-88 35t-35 88zM272 594 h457q0 187 -51 266.5t-168 79.5q-110 0 -169 -78.5t-69 -267.5zM602 1307q0 53 35 88t88 35t88 -35t35 -88t-35 -88t-88 -35t-88 35t-35 88z" />
<glyph unicode="&#xec;" horiz-adv-x="585" d="M29 1356l108 186l367 -313l-41 -70zM53 889v61l305 82h31v-819q0 -89 24 -114t119 -29v-70h-473v70q90 6 117 31.5t27 111.5v502q0 58 -6 90t-24.5 51.5t-44.5 25t-75 7.5z" />
<glyph unicode="&#xed;" horiz-adv-x="585" d="M53 889v61l305 82h31v-819q0 -89 24 -114t119 -29v-70h-473v70q90 6 117 31.5t27 111.5v502q0 58 -6 90t-24.5 51.5t-44.5 25t-75 7.5zM55 1229l367 313l108 -186l-434 -197z" />
<glyph unicode="&#xee;" horiz-adv-x="585" d="M-41 1217l332 313l332 -313l-52 -62l-280 174l-281 -174zM53 889v61l305 82h31v-819q0 -89 24 -114t119 -29v-70h-473v70q90 6 117 31.5t27 111.5v502q0 58 -6 90t-24.5 51.5t-44.5 25t-75 7.5z" />
<glyph unicode="&#xef;" horiz-adv-x="585" d="M-43 1307q0 53 35.5 88t87.5 35t87.5 -35t35.5 -88t-35.5 -88t-87.5 -35t-87.5 35t-35.5 88zM53 889v61l305 82h31v-819q0 -89 24 -114t119 -29v-70h-473v70q90 6 117 31.5t27 111.5v502q0 58 -6 90t-24.5 51.5t-44.5 25t-75 7.5zM385 1307q0 53 35.5 88t87.5 35 t87.5 -35t35.5 -88t-35.5 -88t-87.5 -35t-87.5 35t-35.5 88z" />
<glyph unicode="&#xf0;" horiz-adv-x="1095" d="M74 504q0 123 38 224t103.5 167.5t152 102.5t185.5 36q94 0 178 -49q-64 134 -176 229l-299 -120l-35 80l250 102q-110 70 -272 119l30 75q223 -53 377 -139l260 105l35 -78l-205 -84q320 -233 320 -735q0 -269 -130 -416.5t-341 -147.5q-207 0 -339 146.5t-132 382.5z M274 508q0 -213 64.5 -322.5t210.5 -109.5q131 0 198.5 113t67.5 329q0 203 -39 346q-117 70 -211 70q-291 0 -291 -426z" />
<glyph unicode="&#xf1;" horiz-adv-x="1193" d="M53 889v61l262 82h31q32 -76 35 -178q81 84 162 130t188 46q126 0 201.5 -71.5t75.5 -202.5v-543q0 -86 25 -111.5t108 -31.5v-70h-463v70q66 3 95.5 15t38.5 36t9 78v520q0 89 -37 128.5t-112 39.5q-87 0 -151.5 -32t-131.5 -97v-559q0 -54 9 -78t38.5 -36t95.5 -15v-70 h-473v70q90 6 117 31.5t27 111.5v502q0 58 -6 90t-24.5 51.5t-44.5 25t-75 7.5zM268 1217q21 94 71 155.5t128 61.5q59 0 137 -32t117 -32q87 0 135 86l72 -31q-26 -88 -78.5 -147t-128.5 -59q-60 0 -141 29.5t-113 29.5q-49 0 -77 -22t-54 -68z" />
<glyph unicode="&#xf2;" horiz-adv-x="1089" d="M74 506q0 245 130 387.5t337 142.5q148 0 257 -71t163.5 -192t54.5 -277q0 -240 -131.5 -380.5t-339.5 -140.5q-210 0 -340.5 142.5t-130.5 388.5zM274 526q0 -236 63.5 -343t211.5 -107q131 0 198.5 106t67.5 305q0 231 -69 340t-205 109q-61 0 -106.5 -18.5t-76 -52.5 t-49.5 -85.5t-27 -113t-8 -140.5zM279 1356l108 186l367 -313l-41 -70z" />
<glyph unicode="&#xf3;" horiz-adv-x="1089" d="M74 506q0 245 130 387.5t337 142.5q148 0 257 -71t163.5 -192t54.5 -277q0 -240 -131.5 -380.5t-339.5 -140.5q-210 0 -340.5 142.5t-130.5 388.5zM274 526q0 -236 63.5 -343t211.5 -107q131 0 198.5 106t67.5 305q0 231 -69 340t-205 109q-61 0 -106.5 -18.5t-76 -52.5 t-49.5 -85.5t-27 -113t-8 -140.5zM307 1229l367 313l108 -186l-434 -197z" />
<glyph unicode="&#xf4;" horiz-adv-x="1089" d="M74 506q0 245 130 387.5t337 142.5q148 0 257 -71t163.5 -192t54.5 -277q0 -240 -131.5 -380.5t-339.5 -140.5q-210 0 -340.5 142.5t-130.5 388.5zM211 1217l332 313l331 -313l-51 -62l-280 174l-281 -174zM274 526q0 -236 63.5 -343t211.5 -107q131 0 198.5 106 t67.5 305q0 231 -69 340t-205 109q-61 0 -106.5 -18.5t-76 -52.5t-49.5 -85.5t-27 -113t-8 -140.5z" />
<glyph unicode="&#xf5;" horiz-adv-x="1089" d="M74 506q0 245 130 387.5t337 142.5q148 0 257 -71t163.5 -192t54.5 -277q0 -240 -131.5 -380.5t-339.5 -140.5q-210 0 -340.5 142.5t-130.5 388.5zM221 1217q21 94 71 155.5t128 61.5q59 0 137 -32t117 -32q87 0 135 86l72 -31q-26 -88 -78.5 -147t-128.5 -59 q-60 0 -141 29.5t-113 29.5q-49 0 -77 -22t-54 -68zM274 526q0 -236 63.5 -343t211.5 -107q131 0 198.5 106t67.5 305q0 231 -69 340t-205 109q-61 0 -106.5 -18.5t-76 -52.5t-49.5 -85.5t-27 -113t-8 -140.5z" />
<glyph unicode="&#xf6;" horiz-adv-x="1089" d="M74 506q0 245 130 387.5t337 142.5q148 0 257 -71t163.5 -192t54.5 -277q0 -240 -131.5 -380.5t-339.5 -140.5q-210 0 -340.5 142.5t-130.5 388.5zM209 1307q0 53 35.5 88t87.5 35t87.5 -35t35.5 -88t-35.5 -88t-87.5 -35t-87.5 35t-35.5 88zM274 526q0 -236 63.5 -343 t211.5 -107q131 0 198.5 106t67.5 305q0 231 -69 340t-205 109q-61 0 -106.5 -18.5t-76 -52.5t-49.5 -85.5t-27 -113t-8 -140.5zM637 1307q0 53 35.5 88t87.5 35t87.5 -35t35.5 -88t-35.5 -88t-87.5 -35t-87.5 35t-35.5 88z" />
<glyph unicode="&#xf7;" horiz-adv-x="1259" d="M113 502v108h1034v-108h-1034zM500 111q0 56 38 95.5t93 39.5q54 0 92.5 -38.5t38.5 -92.5q0 -58 -38.5 -98t-92.5 -40q-56 0 -93.5 38.5t-37.5 95.5zM500 983q0 56 38 95.5t93 39.5q54 0 92.5 -38.5t38.5 -92.5q0 -58 -38.5 -97.5t-92.5 -39.5q-56 0 -93.5 38t-37.5 95z " />
<glyph unicode="&#xf8;" horiz-adv-x="1089" d="M74 506q0 245 130 387.5t337 142.5q131 0 233 -57l103 172l81 -47l-108 -180q81 -71 123.5 -182t42.5 -246q0 -240 -131.5 -380.5t-339.5 -140.5q-125 0 -234 56l-106 -178l-76 45l111 184q-166 144 -166 424zM274 526q0 -208 45 -309l392 655q-67 64 -170 64 q-61 0 -106.5 -18.5t-76 -52.5t-49.5 -85.5t-27 -113t-8 -140.5zM375 135q59 -59 174 -59q131 0 198.5 106t67.5 305q0 192 -49 299z" />
<glyph unicode="&#xf9;" horiz-adv-x="1187" d="M43 889v61l285 82h45v-749q0 -91 38 -128.5t115 -37.5q85 0 144 31.5t129 99.5v467q0 76 -13.5 112t-41.5 48t-89 14v61l285 82h45v-749q0 -58 6 -90t24.5 -51.5t44.5 -25t75 -7.5v-62l-248 -74h-31q-37 87 -45 183q-83 -89 -159.5 -135t-182.5 -46q-128 0 -205.5 69 t-77.5 204v467q0 76 -13.5 112t-41 48t-88.5 14zM324 1356l108 186l367 -313l-41 -70z" />
<glyph unicode="&#xfa;" horiz-adv-x="1187" d="M43 889v61l285 82h45v-749q0 -91 38 -128.5t115 -37.5q85 0 144 31.5t129 99.5v467q0 76 -13.5 112t-41.5 48t-89 14v61l285 82h45v-749q0 -58 6 -90t24.5 -51.5t44.5 -25t75 -7.5v-62l-248 -74h-31q-37 87 -45 183q-83 -89 -159.5 -135t-182.5 -46q-128 0 -205.5 69 t-77.5 204v467q0 76 -13.5 112t-41 48t-88.5 14zM350 1229l367 313l108 -186l-434 -197z" />
<glyph unicode="&#xfb;" horiz-adv-x="1187" d="M43 889v61l285 82h45v-749q0 -91 38 -128.5t115 -37.5q85 0 144 31.5t129 99.5v467q0 76 -13.5 112t-41.5 48t-89 14v61l285 82h45v-749q0 -58 6 -90t24.5 -51.5t44.5 -25t75 -7.5v-62l-248 -74h-31q-37 87 -45 183q-83 -89 -159.5 -135t-182.5 -46q-128 0 -205.5 69 t-77.5 204v467q0 76 -13.5 112t-41 48t-88.5 14zM254 1217l332 313l332 -313l-52 -62l-280 174l-281 -174z" />
<glyph unicode="&#xfc;" horiz-adv-x="1187" d="M43 889v61l285 82h45v-749q0 -91 38 -128.5t115 -37.5q85 0 144 31.5t129 99.5v467q0 76 -13.5 112t-41.5 48t-89 14v61l285 82h45v-749q0 -58 6 -90t24.5 -51.5t44.5 -25t75 -7.5v-62l-248 -74h-31q-37 87 -45 183q-83 -89 -159.5 -135t-182.5 -46q-128 0 -205.5 69 t-77.5 204v467q0 76 -13.5 112t-41 48t-88.5 14zM252 1307q0 53 35 88t88 35t88 -35t35 -88t-35 -88t-88 -35t-88 35t-35 88zM680 1307q0 53 35 88t88 35t88 -35t35 -88t-35 -88t-88 -35t-88 35t-35 88z" />
<glyph unicode="&#xfd;" horiz-adv-x="1034" d="M-2 936v70h455v-70q-73 -3 -102 -17.5t-29 -46.5q0 -13 14 -57l147 -414q49 -140 72 -270h6q18 98 60 227l147 457q8 25 12 47q5 38 -21.5 54.5t-107.5 19.5v70h385v-70q-63 -8 -91.5 -34.5t-57.5 -108.5l-287 -826q-66 -190 -151 -281.5t-234 -121.5l-49 141 q68 17 109.5 33.5t86.5 48.5t76 85t54 132l-74 -10q-47 184 -107 352l-164 447q-29 78 -59 107t-90 36zM317 1229l367 313l109 -186l-435 -197z" />
<glyph unicode="&#xfe;" horiz-adv-x="1138" d="M14 1370v66l295 59h31q25 -73 25 -203v-422q124 160 311 160q173 0 281 -128t108 -380q0 -244 -109.5 -388t-308.5 -144q-172 0 -282 116v-296q0 -85 28.5 -111.5t130.5 -30.5v-69h-489v69q89 6 116 32t27 112v1384q0 57 -7 90t-27.5 51.5t-49 24.5t-80.5 8zM365 213 q46 -57 112.5 -90t126.5 -33q67 0 113 18t80.5 61.5t50.5 121t16 192.5q0 233 -53 324.5t-180 91.5q-147 0 -266 -131v-555z" />
<glyph unicode="&#xff;" horiz-adv-x="1034" d="M-2 936v70h455v-70q-73 -3 -102 -17.5t-29 -46.5q0 -13 14 -57l147 -414q49 -140 72 -270h6q18 98 60 227l147 457q8 25 12 47q5 38 -21.5 54.5t-107.5 19.5v70h385v-70q-63 -8 -91.5 -34.5t-57.5 -108.5l-287 -826q-66 -190 -151 -281.5t-234 -121.5l-49 141 q68 17 109.5 33.5t86.5 48.5t76 85t54 132l-74 -10q-47 184 -107 352l-164 447q-29 78 -59 107t-90 36zM217 1307q0 53 35.5 88t87.5 35t87.5 -35t35.5 -88t-35.5 -88t-87.5 -35t-87.5 35t-35.5 88zM645 1307q0 53 35.5 88t87.5 35t87.5 -35t35.5 -88t-35.5 -88t-87.5 -35 t-87.5 35t-35.5 88z" />
<glyph unicode="&#x152;" horiz-adv-x="1896" d="M90 705q0 144 37.5 262t104.5 199.5t161 137t205 81.5t238 26h942l20 -307h-86q-35 122 -72.5 164.5t-123.5 42.5h-342v-525h190q97 0 133.5 29.5t42.5 116.5h84v-389h-84q-6 84 -42.5 114.5t-131.5 30.5h-192v-588h344q118 0 159.5 47t53.5 191h92v-338h-987 q-186 0 -330 52.5t-234 147.5t-136 222.5t-46 282.5zM303 680q0 -135 24.5 -236t67.5 -165.5t108.5 -104t140.5 -55t171 -15.5h137v1211h-141q-508 0 -508 -635z" />
<glyph unicode="&#x153;" horiz-adv-x="1734" d="M74 506q0 245 130 387.5t337 142.5q122 0 219.5 -52t150.5 -142q51 95 144.5 145.5t204.5 50.5q194 0 301.5 -128t107.5 -361v-55h-653q0 -216 77.5 -305t243.5 -89q64 0 140.5 25t132.5 61l43 -69q-181 -140 -365 -140q-124 0 -223 51.5t-150 141.5 q-61 -92 -157.5 -143.5t-212.5 -51.5q-210 0 -340.5 142.5t-130.5 388.5zM274 526q0 -236 63.5 -343t211.5 -107q131 0 198.5 106t67.5 305q0 231 -69 340t-205 109q-61 0 -106.5 -18.5t-76 -52.5t-49.5 -85.5t-27 -113t-8 -140.5zM1018 594h457q0 187 -51 266.5t-169 79.5 q-110 0 -168.5 -78.5t-68.5 -267.5z" />
<glyph unicode="&#x178;" horiz-adv-x="1216" d="M23 1339v72h487v-72q-58 -1 -83.5 -15.5t-25.5 -45.5q0 -30 29 -96l223 -475h9l221 479q24 56 24 88q0 34 -29.5 48t-91.5 17v72h408v-72q-64 -8 -104 -44t-95 -146l-280 -571v-351q0 -89 34 -120.5t140 -34.5v-72h-543v72q106 3 140 34.5t34 120.5v338l-305 606 q-47 94 -87.5 127t-104.5 41zM301 1612q0 52 35.5 87.5t87.5 35.5t87.5 -35.5t35.5 -87.5t-35.5 -87.5t-87.5 -35.5t-87.5 35.5t-35.5 87.5zM729 1612q0 52 35.5 87.5t87.5 35.5t87.5 -35.5t35.5 -87.5t-35.5 -87.5t-87.5 -35.5t-87.5 35.5t-35.5 87.5z" />
<glyph unicode="&#x2c6;" horiz-adv-x="991" d="M164 1217l332 313l331 -313l-51 -62l-280 174l-281 -174z" />
<glyph unicode="&#x2dc;" horiz-adv-x="987" d="M164 1217q21 94 70.5 155.5t127.5 61.5q59 0 137 -32t117 -32q88 0 136 86l71 -31q-26 -88 -78.5 -147t-128.5 -59q-60 0 -141 29.5t-113 29.5q-49 0 -77 -22t-54 -68z" />
<glyph unicode="&#x2000;" horiz-adv-x="945" />
<glyph unicode="&#x2001;" horiz-adv-x="1890" />
<glyph unicode="&#x2002;" horiz-adv-x="945" />
<glyph unicode="&#x2003;" horiz-adv-x="1890" />
<glyph unicode="&#x2004;" horiz-adv-x="630" />
<glyph unicode="&#x2005;" horiz-adv-x="472" />
<glyph unicode="&#x2006;" horiz-adv-x="315" />
<glyph unicode="&#x2007;" horiz-adv-x="315" />
<glyph unicode="&#x2008;" horiz-adv-x="236" />
<glyph unicode="&#x2009;" horiz-adv-x="378" />
<glyph unicode="&#x200a;" horiz-adv-x="105" />
<glyph unicode="&#x2010;" horiz-adv-x="641" d="M113 481v146h415v-146h-415z" />
<glyph unicode="&#x2011;" horiz-adv-x="641" d="M113 481v146h415v-146h-415z" />
<glyph unicode="&#x2012;" horiz-adv-x="641" d="M113 481v146h415v-146h-415z" />
<glyph unicode="&#x2013;" horiz-adv-x="1210" d="M113 516v105h985v-105h-985z" />
<glyph unicode="&#x2014;" horiz-adv-x="1669" d="M113 516v105h1443v-105h-1443z" />
<glyph unicode="&#x2018;" horiz-adv-x="546" d="M121 1100q0 120 73.5 214t200.5 130l43 -60q-166 -64 -166 -163q0 -24 15 -37.5t57 -28.5q32 -12 58 -41t26 -76q0 -59 -41.5 -100t-103.5 -41q-71 0 -116.5 57t-45.5 146z" />
<glyph unicode="&#x2019;" horiz-adv-x="546" d="M109 954q84 32 124.5 74.5t40.5 89.5q0 24 -14.5 37t-46.5 25q-94 33 -94 120q0 59 41.5 100.5t103.5 41.5q71 0 116.5 -57t45.5 -146q0 -120 -73.5 -214t-200.5 -130z" />
<glyph unicode="&#x201a;" horiz-adv-x="546" d="M109 -209q84 32 124.5 74.5t40.5 89.5q0 22 -13 34.5t-48 26.5q-94 36 -94 121q0 59 41.5 100.5t103.5 41.5q71 0 116.5 -57t45.5 -146q0 -120 -73.5 -214t-200.5 -130z" />
<glyph unicode="&#x201c;" horiz-adv-x="972" d="M121 1100q0 120 73.5 214t200.5 130l43 -60q-166 -64 -166 -163q0 -24 15 -37.5t57 -28.5q32 -12 58 -41t26 -76q0 -59 -41.5 -100t-103.5 -41q-71 0 -116.5 57t-45.5 146zM547 1100q0 120 73.5 214t200.5 130l43 -60q-166 -64 -166 -163q0 -24 15 -37.5t57 -28.5 q32 -12 58 -41t26 -76q0 -59 -41.5 -100t-103.5 -41q-71 0 -116.5 57t-45.5 146z" />
<glyph unicode="&#x201d;" horiz-adv-x="972" d="M109 954q84 32 124.5 74.5t40.5 89.5q0 24 -14.5 37t-46.5 25q-94 33 -94 120q0 59 41.5 100.5t103.5 41.5q71 0 116.5 -57t45.5 -146q0 -120 -73.5 -214t-200.5 -130zM535 954q84 32 124.5 74.5t40.5 89.5q0 24 -14.5 37t-46.5 25q-94 33 -94 120q0 59 41.5 100.5 t103.5 41.5q71 0 116.5 -57t45.5 -146q0 -120 -73.5 -214t-200.5 -130z" />
<glyph unicode="&#x201e;" horiz-adv-x="972" d="M109 -209q84 32 124.5 74.5t40.5 89.5q0 22 -13 34.5t-48 26.5q-94 36 -94 121q0 59 41.5 100.5t103.5 41.5q71 0 116.5 -57t45.5 -146q0 -120 -73.5 -214t-200.5 -130zM535 -209q84 32 124.5 74.5t40.5 89.5q0 22 -13 35t-48 26q-94 36 -94 121q0 59 41.5 100.5 t103.5 41.5q71 0 116.5 -57t45.5 -146q0 -120 -73.5 -214t-200.5 -130z" />
<glyph unicode="&#x2022;" horiz-adv-x="1058" d="M174 686q0 151 103 257t251 106t252.5 -106t104.5 -257t-104.5 -256.5t-252.5 -105.5t-251 105.5t-103 256.5z" />
<glyph unicode="&#x2026;" horiz-adv-x="1572" d="M154 129q0 63 41.5 106.5t101.5 43.5q62 0 105.5 -43.5t43.5 -106.5q0 -64 -43 -111t-102 -47q-61 0 -104 46.5t-43 111.5zM641 129q0 63 40.5 106.5t100.5 43.5q63 0 106.5 -43.5t43.5 -106.5q0 -65 -43 -111.5t-103 -46.5q-61 0 -103 46.5t-42 111.5zM1126 129 q0 63 42 106.5t102 43.5q62 0 105.5 -43.5t43.5 -106.5q0 -64 -43.5 -111t-103.5 -47q-61 0 -103.5 46.5t-42.5 111.5z" />
<glyph unicode="&#x202f;" horiz-adv-x="378" />
<glyph unicode="&#x2039;" horiz-adv-x="632" d="M113 500l348 436l80 -74l-232 -362l232 -363l-80 -74z" />
<glyph unicode="&#x203a;" horiz-adv-x="632" d="M92 137l232 363l-232 362l80 74l348 -436l-348 -437z" />
<glyph unicode="&#x205f;" horiz-adv-x="472" />
<glyph unicode="&#x20ac;" horiz-adv-x="1269" d="M41 518v90h180q-2 27 -2 86q0 55 2 84h-180v90h190q38 269 190.5 418.5t381.5 149.5q148 0 236.5 -25.5t150.5 -71.5v-229h-148q-15 64 -31.5 103.5t-44 69.5t-69 43t-102.5 13q-153 0 -238.5 -110.5t-105.5 -360.5h540v-90h-547q0 -127 2 -170h545v-90h-540 q11 -128 40 -215t77 -137t107.5 -71t141.5 -21q115 0 168.5 49.5t77.5 171.5h137v-215q-141 -103 -383 -103q-259 0 -405.5 141t-182.5 400h-188z" />
<glyph unicode="&#x2122;" horiz-adv-x="2127" d="M102 1110v301h732l16 -301h-84q-25 131 -60.5 173t-121.5 42h-31v-504q0 -91 28 -121.5t128 -33.5v-68h-459v68q100 3 128 33.5t28 121.5v504h-41q-100 0 -133.5 -42.5t-45.5 -172.5h-84zM926 598v64q67 3 94 31.5t33 119.5l28 406q5 69 -15.5 93.5t-92.5 28.5v70h305 l152 -461q32 -94 38 -184h11q14 95 43 182l157 463h287v-72q-63 -4 -85.5 -23.5t-22.5 -64.5q0 -18 2 -34l30 -400q7 -90 37.5 -122.5t97.5 -35.5v-61h-391v61q65 3 91 25.5t26 89.5q0 12 -2 41l-20 262q-3 47 -3 86q0 57 3 92h-11q-21 -101 -49 -180l-170 -477h-106 l-156 477q-28 91 -47 180h-12q0 -82 -7 -182l-16 -258q-6 -94 16.5 -122t98.5 -31v-64h-344z" />
<glyph unicode="&#x25fc;" horiz-adv-x="1003" d="M0 0v1004h1004v-1004h-1004z" />
<glyph unicode="&#xfb01;" horiz-adv-x="1163" d="M59 0v70q90 6 117 31.5t27 111.5v680h-129v65l129 48v135q0 163 101.5 258.5t275.5 95.5q148 0 249 -37v-184h-149q-8 54 -39 87.5t-80 33.5q-174 0 -174 -252v-137h449l100 26h31v-819q0 -89 24 -114t119 -29v-70h-465v70q84 6 109.5 31.5t25.5 111.5v506 q0 104 -26.5 139t-108.5 35h-256v-680q0 -84 25 -111.5t108 -31.5v-70h-463z" />
<glyph unicode="&#xfb02;" horiz-adv-x="1171" d="M59 0v70q90 6 117 31.5t27 111.5v680h-129v65l129 48v129q0 169 107.5 264.5t297.5 95.5q150 0 244 -53l55 53h60v-1276q0 -92 26 -118.5t125 -30.5v-70h-489v70q95 6 123 31.5t28 111.5v983q0 199 -190 199q-106 0 -154.5 -62.5t-48.5 -195.5v-131h248l-29 -113h-217 v-680q0 -84 25 -111.5t108 -31.5v-70h-463z" />
<glyph unicode="&#xfb03;" horiz-adv-x="1740" d="M59 0v70q90 6 117 31.5t27 111.5v680h-129v65l129 48v94q0 164 105 259t290 95q82 0 151 -25t113 -69q99 135 295 135q149 0 250 -37v-184h-150q-8 54 -38.5 87.5t-79.5 33.5q-174 0 -174 -252v-137h448l100 26h31v-819q0 -89 24 -114t120 -29v-70h-465v70 q84 6 109.5 31.5t25.5 111.5v506q0 110 -28.5 142t-121.5 32h-241v-680q0 -84 25 -111.5t108 -31.5v-70h-455v70q84 6 109.5 31.5t25.5 111.5v680h-391v-680q0 -84 25 -111.5t108 -31.5v-70h-463zM387 1006h393v141q0 62 -15.5 104.5t-44.5 64t-61 30t-73 8.5 q-103 0 -151 -62t-48 -190v-96z" />
<glyph unicode="&#xfb04;" horiz-adv-x="1748" d="M59 0v70q90 6 117 31.5t27 111.5v680h-129v65l129 48v94q0 164 105 259t290 95q160 0 258 -88q110 129 330 129q150 0 244 -53l55 53h59v-1276q0 -91 26.5 -118t125.5 -31v-70h-490v70q96 6 124 31.5t28 111.5v983q0 199 -191 199q-106 0 -154 -62.5t-48 -195.5v-131h247 l-28 -113h-217v-680q0 -84 25 -111.5t108 -31.5v-70h-455v70q84 6 109.5 31.5t25.5 111.5v680h-391v-680q0 -84 25 -111.5t108 -31.5v-70h-463zM387 1006h393v141q0 62 -15.5 104.5t-44.5 64t-61 30t-73 8.5q-103 0 -151 -62t-48 -190v-96z" />
</font>
</defs>
</svg>
